<svg width="360" height="62" viewBox="0 0 360 62" fill="none" xmlns="http://www.w3.org/2000/svg">
<rect x="0.183594" y="0.0431824" width="359.749" height="61.9568" rx="5.29901" fill="#CE6A45"/>
<rect x="3.36328" y="3.2226" width="82.1346" height="55.598" rx="3.17941" fill="#FCFBF8"/>
<path fill-rule="evenodd" clip-rule="evenodd" d="M38.1968 30.7985C38.0725 30.9252 37.9492 31.0509 37.7909 31.1337L37.7902 31.1345C37.7862 31.136 37.7821 31.1375 37.7781 31.139C37.7721 31.1413 37.7661 31.1436 37.76 31.146C37.7523 31.1489 37.7445 31.1519 37.7367 31.1549C37.7281 31.1581 37.7195 31.1614 37.7109 31.1645C37.7131 31.1491 37.7155 31.1339 37.7179 31.1187C37.7188 31.113 37.7197 31.1073 37.7206 31.1016C37.7221 31.092 37.7236 31.0825 37.725 31.0728C37.7363 31.017 37.7474 30.9612 37.7586 30.9054L37.7586 30.9053C37.7891 30.7529 37.8195 30.6006 37.8531 30.4487C37.9799 29.8796 37.9547 29.8194 37.4797 29.4969C37.3736 29.4251 37.2728 29.345 37.1719 29.2649C37.127 29.2292 37.082 29.1935 37.0365 29.1585C37.0164 29.1431 36.9925 29.1293 36.9684 29.1152C36.8911 29.0704 36.8111 29.024 36.8439 28.9209C36.8769 28.8176 36.9672 28.8296 37.0534 28.8411C37.0832 28.8451 37.1125 28.849 37.1388 28.848C37.9695 28.8202 38.0288 28.772 38.1992 27.9502C38.2023 27.9358 38.203 27.9208 38.2037 27.9058C38.2042 27.8957 38.2047 27.8857 38.2059 27.8758C38.2162 27.7984 38.2429 27.7254 38.3252 27.7059C38.4141 27.6856 38.4608 27.754 38.4912 27.8232L38.4923 27.8257C38.523 27.8954 38.5521 27.9615 38.6853 28.0224C38.6853 27.9277 38.687 27.8352 38.6887 27.7443L38.6887 27.744C38.6924 27.5407 38.696 27.3455 38.6801 27.1517C38.6549 26.8412 38.775 26.7239 39.0758 26.7141C39.5028 26.7002 39.9297 26.6793 40.3565 26.6584L40.3565 26.6584C40.8052 26.6365 41.2539 26.6145 41.7028 26.6006C42.7128 26.5692 43.7228 26.5361 44.7327 26.503L44.7328 26.503L44.733 26.503L44.7331 26.503L44.7332 26.503C47.548 26.4108 50.3627 26.3185 53.1782 26.2638C56.681 26.1961 60.1831 26.172 63.657 26.8179C65.1062 27.0873 66.5657 27.2924 68.0254 27.4975L68.0255 27.4975L68.0256 27.4975L68.0256 27.4975L68.0257 27.4975C69.6455 27.7251 71.2654 27.9527 72.8716 28.2683C73.1568 28.3239 73.3799 28.2487 73.5978 28.0961L73.6046 28.0913L73.6164 28.0831L73.6167 28.0829C73.7319 28.0026 73.8561 27.9161 73.8386 27.7465C73.8201 27.5668 73.6719 27.5111 73.5288 27.4645C73.3999 27.4224 73.2695 27.3863 73.1376 27.3548C71.4618 26.9551 69.7604 26.7064 68.0594 26.4577C67.7093 26.4065 67.3592 26.3554 67.0093 26.3029C66.5158 26.2284 66.029 26.1217 65.5807 25.851C65.8533 25.8144 66.1242 25.8097 66.3944 25.8049L66.3947 25.8049C66.4747 25.8035 66.5546 25.8021 66.6344 25.7999C66.6656 25.7989 66.7016 25.8047 66.7385 25.8107C66.8449 25.8279 66.9581 25.8463 66.9812 25.7044C67.0125 25.5132 66.8369 25.4643 66.6884 25.423C66.6787 25.4203 66.669 25.4176 66.6596 25.4149C66.6132 25.402 66.5642 25.3986 66.5152 25.3952L66.5151 25.3952L66.5151 25.3952L66.515 25.3952L66.515 25.3952C66.4897 25.3934 66.4644 25.3917 66.4395 25.3886C66.0932 25.346 65.7462 25.3074 65.3991 25.2688L65.3989 25.2688C64.6173 25.1818 63.8355 25.0947 63.0612 24.963C61.0478 24.6209 59.0219 24.439 56.9863 24.3578C53.0458 24.2007 49.1059 24.2678 45.1658 24.3349H45.1657L45.1656 24.3349C43.1071 24.37 41.0486 24.405 38.9899 24.4081C38.6757 24.4081 38.5793 24.5615 38.5964 24.8525C38.6157 25.1773 38.626 25.5029 38.6275 25.8284C38.6277 25.8611 38.6338 25.8972 38.6399 25.9337L38.6399 25.9337C38.656 26.0298 38.6726 26.129 38.5845 26.1781C38.4795 26.2365 38.4172 26.1619 38.3546 26.087C38.3253 26.052 38.296 26.0169 38.2622 25.9954C38.1415 25.9186 38.0298 25.8271 37.9191 25.7365L37.9065 25.7262C37.6753 25.536 37.4649 25.566 37.2425 25.754C37.1997 25.7902 37.1549 25.8406 37.1096 25.8914C37.0006 26.0139 36.8891 26.1392 36.7965 26.0766C36.6403 25.9713 36.7169 25.7726 36.7841 25.5982L36.7842 25.5982C36.8024 25.5508 36.82 25.5052 36.832 25.4638C36.9721 24.9826 36.8839 24.642 36.4148 24.4232C36.3145 24.3762 36.2261 24.3029 36.1381 24.2299L36.1381 24.2299L36.138 24.2299L36.138 24.2299L36.138 24.2299C36.1006 24.1988 36.0633 24.1679 36.0251 24.139C36.0041 24.123 35.9791 24.1087 35.9539 24.0943C35.8767 24.0501 35.7967 24.0043 35.819 23.9051C35.8433 23.7966 35.931 23.8059 36.0155 23.8149C36.0469 23.8182 36.0779 23.8215 36.1051 23.8187C36.2193 23.8066 36.3341 23.8006 36.4488 23.7946C36.556 23.7889 36.6632 23.7833 36.7698 23.7728C37.0566 23.7442 37.0906 23.4803 37.0855 23.2953C37.0804 23.1206 36.9505 23.1519 36.8339 23.1801C36.7975 23.1888 36.7623 23.1973 36.7327 23.1991C36.1507 23.2344 35.5739 23.1796 34.9964 23.1248L34.995 23.1247L34.9878 23.124C34.7254 23.0991 34.5946 23.0867 34.5433 23.1456C34.4923 23.204 34.5194 23.3326 34.5734 23.5887L34.5734 23.5887L34.5734 23.5887L34.5741 23.5923C34.578 23.6089 34.5697 23.628 34.5591 23.6523C34.5534 23.6655 34.547 23.6802 34.5415 23.6968C34.4998 23.6652 34.4588 23.6331 34.4181 23.6013L34.418 23.6013L34.418 23.6012L34.4179 23.6012L34.4179 23.6012C34.1652 23.4037 33.9226 23.2141 33.596 23.1811C33.208 23.1417 32.9535 23.3771 32.6949 23.6162L32.6946 23.6164C32.6767 23.6329 32.6588 23.6495 32.6408 23.666C32.5371 23.3104 32.5178 23.2946 32.1821 23.3299C32.0196 23.347 31.8571 23.3658 31.6946 23.3846C31.5139 23.4055 31.3331 23.4264 31.1521 23.445C31.1311 23.4472 31.109 23.4475 31.0869 23.4479H31.0868C30.996 23.4494 30.9055 23.4509 30.8942 23.5803C30.8816 23.7307 30.9876 23.7976 31.1217 23.8269L31.1312 23.829L31.1364 23.8302L31.1562 23.8346C31.229 23.8506 31.3029 23.8668 31.3707 23.8953C31.4385 23.9241 31.5226 23.9339 31.6055 23.9436C31.7654 23.9623 31.9211 23.9805 31.948 24.1329C31.9755 24.2894 31.7761 24.4069 31.6069 24.5066C31.5712 24.5277 31.5369 24.5479 31.5063 24.5675C31.2129 24.7562 31.1899 24.9863 31.3129 25.2743C31.3338 25.3231 31.356 25.3715 31.3782 25.42L31.3782 25.42L31.3783 25.42L31.3783 25.4201L31.3783 25.4201C31.4703 25.6206 31.5623 25.8212 31.5611 26.0525C31.5663 26.0675 31.5713 26.0828 31.5763 26.098C31.5813 26.1132 31.5863 26.1284 31.5915 26.1435C31.5767 26.1416 31.5621 26.1395 31.5475 26.1375L31.5475 26.1375L31.5474 26.1375C31.5328 26.1354 31.5182 26.1333 31.5033 26.1314C31.4315 26.0764 31.3574 26.0237 31.2832 25.9709L31.2831 25.9709L31.2831 25.9709L31.2831 25.9708L31.2831 25.9708C31.1139 25.8504 30.9445 25.7299 30.8023 25.5826C30.5326 25.3021 30.3325 25.2923 30.0865 25.6074C30.0624 25.6382 30.0375 25.6759 30.0115 25.7152C29.9149 25.8611 29.8035 26.0295 29.6664 25.9525C29.5315 25.8768 29.5993 25.7285 29.6656 25.5833C29.6922 25.525 29.7186 25.4672 29.7316 25.4149C29.8249 25.0344 29.7871 24.6826 29.4892 24.4149C29.1825 24.1397 28.8386 23.8555 28.3999 24.0014C28.0895 24.1044 27.8427 24.054 27.6011 23.8848C27.3484 23.7074 27.1017 23.5179 26.8683 23.3149L26.8631 23.3104C26.5469 23.0353 26.3935 22.9018 26.2601 22.9198C26.1343 22.9369 26.0262 23.0885 25.8163 23.3831L25.8049 23.3991C25.791 23.4186 25.7758 23.4372 25.7606 23.4558C25.7441 23.476 25.7276 23.496 25.713 23.5171C25.7117 23.519 25.7105 23.5209 25.7092 23.5228C25.7079 23.5247 25.7066 23.5266 25.7053 23.5285L25.7052 23.5286L25.7051 23.5288C25.6723 23.5774 25.6387 23.6272 25.5707 23.6119C25.4818 23.5916 25.4707 23.5141 25.467 23.4367C25.4566 23.2194 25.5203 23.0187 25.5907 22.8171C25.7212 22.4435 25.6678 22.1367 25.2899 21.9269C25.1303 21.8383 24.9833 21.7263 24.8366 21.6146C24.7953 21.5832 24.7541 21.5518 24.7126 21.5209C24.6981 21.5101 24.6819 21.4999 24.6655 21.4896C24.5969 21.4464 24.524 21.4005 24.5533 21.2998C24.5764 21.2208 24.6424 21.222 24.7072 21.2232H24.7072C24.7317 21.2236 24.7561 21.2241 24.7778 21.2202C24.8386 21.2089 24.9008 21.2036 24.9624 21.2059L24.986 21.2067H24.986C25.3585 21.2207 25.535 21.2273 25.6442 21.1436C25.7424 21.0681 25.7861 20.9195 25.869 20.6369C25.8915 20.5601 25.917 20.4735 25.9472 20.3758C25.9546 20.3521 25.9572 20.3269 25.9598 20.3017C25.9624 20.2765 25.965 20.2514 25.9724 20.2277C26.0324 20.0374 26.1376 20.0698 26.2384 20.1871C26.2822 20.2379 26.3071 20.3073 26.3308 20.3735L26.3355 20.3863C26.5637 21.0104 26.8935 21.5089 27.6426 21.5119C27.7308 21.5119 27.822 21.554 27.8553 21.6405C27.8938 21.7414 27.8256 21.7824 27.7606 21.8216C27.7404 21.8337 27.7205 21.8457 27.7041 21.8593C27.6375 21.9149 27.5682 21.9669 27.4988 22.0188C27.4193 22.0783 27.3399 22.1378 27.2647 22.2029C27.1365 22.3141 27.058 22.46 27.1158 22.6367C27.1688 22.7995 27.2278 22.9604 27.2869 23.1213L27.2869 23.1213L27.2869 23.1213L27.2869 23.1213L27.2869 23.1213L27.287 23.1215L27.287 23.1217L27.2871 23.1219L27.2872 23.122C27.318 23.206 27.3489 23.29 27.3788 23.3743C27.4307 23.5217 27.5122 23.6382 27.6767 23.5382C28.2418 23.1932 28.8676 23.1567 29.4995 23.1199L29.533 23.1179C29.7968 23.1029 30.0524 23.0171 30.1317 22.7066C30.2021 22.4307 30.3021 22.4961 30.3955 22.6833C30.4778 22.8487 30.5889 22.9412 30.7742 22.9156C31.3729 22.8344 31.9724 22.7525 32.5704 22.6645C32.7134 22.6435 32.8283 22.5593 32.8616 22.4111C32.894 22.2679 32.7844 22.1872 32.6884 22.1165L32.6801 22.1104C32.4438 21.9372 32.2041 21.7697 31.964 21.602C31.93 21.5782 31.896 21.5545 31.862 21.5307L31.8589 21.5285C31.797 21.4849 31.737 21.4427 31.7531 21.354C31.7709 21.2525 31.8553 21.248 31.925 21.2577C32.6423 21.3555 33.0662 21.0743 33.138 20.3149L33.1388 20.307C33.1461 20.233 33.1571 20.1217 33.2729 20.1232C33.3451 20.1238 33.3736 20.1848 33.4008 20.243C33.4063 20.2547 33.4117 20.2663 33.4174 20.2773C33.4557 20.3503 33.4954 20.4228 33.5351 20.4952L33.5351 20.4952C33.6273 20.6636 33.7195 20.8318 33.7946 21.0074C33.9154 21.2908 34.1191 21.445 34.4096 21.4803C34.7268 21.5186 35.0017 21.6374 35.2455 21.8457C35.5404 22.0983 35.8806 22.1487 36.254 22.0735C36.775 21.969 37.2966 21.8728 37.8205 21.7886C37.8729 21.7802 37.9264 21.7669 37.9802 21.7536C38.206 21.6976 38.437 21.6404 38.6075 21.9367C38.6349 21.9841 38.7691 21.9871 38.8513 21.9811C40.2388 21.8826 41.6231 21.9462 43.0076 22.0098C43.6329 22.0385 44.2582 22.0673 44.884 22.0811C46.2758 22.1113 47.6682 22.1158 49.0605 22.1203H49.0605C51.2736 22.1275 53.4866 22.1347 55.6977 22.245C58.2127 22.3698 60.727 22.5344 63.219 22.9209C63.5161 22.967 63.813 23.014 64.1099 23.0609C65.1298 23.2222 66.1494 23.3834 67.1739 23.5104C67.1822 23.5115 67.1908 23.5126 67.1995 23.5138L67.1995 23.5138L67.1996 23.5138L67.1997 23.5138C67.3253 23.5308 67.4822 23.552 67.5147 23.3841C67.5476 23.2127 67.4267 23.2028 67.3165 23.1939C67.2875 23.1915 67.2592 23.1892 67.2346 23.1841C65.7607 22.8743 64.3106 22.4705 62.8774 22.0059C62.8529 21.998 62.8263 21.9926 62.7993 21.9871C62.7102 21.9691 62.6167 21.9501 62.5803 21.8382C62.6148 21.7662 62.6733 21.7714 62.7226 21.7757C62.7295 21.7763 62.7361 21.7769 62.7425 21.7773C62.9336 21.7892 63.1246 21.8029 63.3155 21.8166C63.6667 21.8418 64.0177 21.8669 64.3691 21.8811C64.4091 21.8828 64.4563 21.8942 64.5048 21.9059C64.6402 21.9386 64.7853 21.9737 64.8115 21.8081C64.8339 21.6645 64.6988 21.6378 64.5649 21.6114C64.5088 21.6003 64.453 21.5893 64.4091 21.5698C64.4021 21.5664 64.3941 21.5652 64.3862 21.564C64.3817 21.5633 64.3771 21.5626 64.3728 21.5615C61.2798 20.7382 58.1156 20.3826 54.9389 20.1472C52.7368 19.9837 50.5294 19.9528 48.322 19.9219L48.3219 19.9219L48.3218 19.9219L48.3217 19.9219L48.3216 19.9219C47.3314 19.908 46.3412 19.8941 45.3515 19.8683C43.4042 19.8175 41.4556 19.7993 39.5074 19.7811C39.3198 19.7793 39.1322 19.7776 38.9447 19.7758C38.6082 19.7728 38.4763 19.6547 38.4912 19.3119C38.505 19.0015 38.4987 18.6902 38.4924 18.3791V18.3789V18.3788V18.3787V18.3785C38.4906 18.2889 38.4888 18.1992 38.4875 18.1096L38.4874 18.1056C38.4756 17.3209 38.4755 17.3134 39.2685 17.357C43.4842 17.5886 47.6998 17.8239 51.9155 18.0607C51.9345 18.0618 51.9539 18.0642 51.9731 18.0666C52.0535 18.0768 52.1319 18.0867 52.1756 17.9908C52.2327 17.866 52.1489 17.772 52.0681 17.6976C51.916 17.5573 51.7204 17.5335 51.525 17.5098L51.5176 17.5089L51.5171 17.5088L51.5169 17.5088L51.5167 17.5088C48.9797 17.2043 46.4428 16.8998 43.9065 16.5908C43.89 16.5888 43.8711 16.5895 43.8514 16.5902C43.7777 16.5929 43.694 16.596 43.6917 16.4547C44.2584 16.3962 44.8233 16.436 45.388 16.4758C45.8975 16.5116 46.4069 16.5475 46.9173 16.5111C46.3341 16.2262 45.7391 16.0074 45.0914 15.9645C43.0588 15.8307 41.0232 15.7495 38.9869 15.6901C38.5964 15.6788 38.2348 15.5991 37.8813 15.4307C37.4574 15.2284 37.0239 15.0397 36.5512 14.9908C36.2385 14.9585 36.1206 15.1119 36.211 15.4164C36.2557 15.5663 36.3036 15.7152 36.3515 15.8641L36.3516 15.8646L36.3518 15.8652L36.3519 15.8656L36.3521 15.866C36.3842 15.9659 36.4163 16.0658 36.4474 16.166C36.4549 16.19 36.4676 16.2152 36.4804 16.2407C36.5158 16.3111 36.5523 16.3837 36.4837 16.4389C36.3925 16.5117 36.3327 16.4431 36.2764 16.3785C36.2558 16.3549 36.2357 16.3319 36.2148 16.3164C36.0162 16.169 35.8168 16.0171 35.6434 15.8404C35.4315 15.6246 35.2796 15.6705 35.0884 15.8743C35.0565 15.9084 35.0258 15.9451 34.9947 15.9824L34.9947 15.9824C34.8737 16.1277 34.746 16.2809 34.5089 16.3156C34.5245 16.2322 34.5384 16.1518 34.5519 16.0736L34.552 16.0731L34.552 16.0728C34.581 15.9052 34.6082 15.7477 34.646 15.5931C34.8142 14.9096 34.5815 14.6284 33.8931 14.7577C32.6629 14.9892 31.4215 15.1157 30.1797 15.2423C29.9614 15.2645 29.7431 15.2868 29.5248 15.3096C29.2084 15.3427 29.1047 15.5006 29.181 15.7848C29.2305 15.9684 29.2937 16.1477 29.357 16.3272C29.3933 16.43 29.4296 16.5329 29.4633 16.6367C29.4655 16.6433 29.4678 16.6501 29.4702 16.657L29.4703 16.6572C29.4923 16.7208 29.5177 16.7944 29.4463 16.8412C29.3773 16.886 29.3228 16.8388 29.2703 16.7932C29.2647 16.7883 29.2592 16.7835 29.2536 16.7788C29.1731 16.7104 29.0916 16.6433 29.0101 16.5763L29.0101 16.5763L29.0101 16.5763C28.8613 16.4539 28.7128 16.3318 28.5711 16.2021C28.4088 16.0532 28.2836 16.0532 28.1339 16.2209C28.0243 16.3439 27.9044 16.4576 27.7705 16.5844L27.7705 16.5844L27.7705 16.5845L27.7703 16.5846L27.77 16.5849C27.7068 16.6448 27.6405 16.7076 27.5707 16.7758C27.5251 16.4497 27.5904 16.2054 27.6553 15.9624L27.6554 15.9618L27.6555 15.9614L27.6556 15.9611L27.6557 15.9609C27.6602 15.9438 27.6648 15.9267 27.6693 15.9096C27.7212 15.7156 27.719 15.5081 27.4337 15.5239C26.8636 15.556 26.2942 15.5976 25.7248 15.6392L25.7246 15.6392L25.7245 15.6392L25.7244 15.6392L25.7243 15.6392C25.6536 15.6444 25.5829 15.6496 25.5122 15.6547C25.384 15.6637 25.2706 15.6901 25.2951 15.8773C25.3558 16.3352 25.962 17.0096 26.4155 17.1367C26.463 17.15 26.5206 17.1498 26.5782 17.1496C26.706 17.1492 26.8343 17.1487 26.8542 17.2953C26.8701 17.4116 26.7581 17.4827 26.6461 17.5537C26.5967 17.5851 26.5472 17.6165 26.5089 17.6517L26.5035 17.6566C26.4688 17.6882 26.4327 17.7213 26.3918 17.7427C26.1213 17.8856 26.0783 18.0901 26.191 18.3698C26.2171 18.4347 26.2458 18.4991 26.2747 18.5638C26.3809 18.8015 26.489 19.0437 26.4785 19.3374C26.1844 19.207 25.9706 19.0016 25.7602 18.7995C25.7304 18.7709 25.7006 18.7424 25.6708 18.7141C25.4462 18.5029 25.2506 18.4908 25.0394 18.7284C25.0237 18.746 25.008 18.7638 24.9923 18.7817L24.9923 18.7817C24.8631 18.9287 24.7299 19.0804 24.5059 19.1615C24.5127 19.1036 24.5159 19.0477 24.519 18.994C24.5254 18.883 24.5312 18.7815 24.5666 18.6923C24.8238 18.051 24.637 17.6239 24.0235 17.3269C24.0043 17.3177 23.9828 17.308 23.96 17.2977L23.96 17.2977C23.794 17.223 23.5592 17.1173 23.6263 16.9156C23.6661 16.795 23.8355 16.8115 23.998 16.8273C24.0593 16.8332 24.1197 16.8391 24.1717 16.8374L24.1727 16.8374C24.7401 16.8201 24.7505 16.8198 24.9023 16.266C24.9138 16.2239 24.9229 16.181 24.932 16.1382C24.941 16.0953 24.9501 16.0525 24.9616 16.0104C25.0224 15.7825 24.9498 15.684 24.7074 15.6998C24.0302 15.7434 23.3514 15.7795 22.6733 15.8119C22.371 15.8262 22.288 15.9532 22.3829 16.251C22.4064 16.3254 22.4354 16.3986 22.465 16.4735C22.5438 16.6725 22.6271 16.8832 22.6244 17.1585C22.5215 17.0726 22.4228 16.9916 22.3276 16.9134C22.1142 16.7383 21.918 16.5773 21.73 16.4074C21.5388 16.2337 21.3899 16.254 21.2313 16.445C21.1221 16.5767 21.0071 16.7036 20.8858 16.8374L20.8858 16.8374L20.8857 16.8375C20.8285 16.9007 20.7698 16.9654 20.7096 17.0329C20.6215 16.8122 20.6684 16.6401 20.7135 16.4746L20.7135 16.4746L20.7135 16.4746L20.7135 16.4746L20.7135 16.4746C20.7234 16.4382 20.7332 16.4022 20.7415 16.366C20.7919 16.1457 20.72 16.0299 20.4799 16.0419L20.4256 16.0447C19.9992 16.0662 19.5737 16.0876 19.1565 16.1893C18.654 16.3119 18.5792 16.5825 18.9401 16.9705C19.046 17.0848 19.1787 17.1374 19.3299 17.1675C19.3844 17.1784 19.4453 17.1857 19.5074 17.1931C19.7146 17.2177 19.9358 17.2441 19.982 17.4141C20.023 17.5661 19.8458 17.669 19.6783 17.7662C19.6188 17.8008 19.5605 17.8347 19.5136 17.8698C19.2765 18.0472 19.212 18.2232 19.3313 18.5074C19.3385 18.5245 19.3457 18.5416 19.353 18.5588C19.471 18.8395 19.5924 19.1281 19.6211 19.4668C19.4043 19.3732 19.2464 19.2355 19.0933 19.1019L19.0933 19.1019L19.0933 19.1019L19.0933 19.1019L19.0933 19.1019C19.0397 19.0552 18.9867 19.0089 18.9319 18.9653C18.4643 18.5923 18.4058 18.5983 17.9982 19.0532C17.9778 19.076 17.9595 19.1061 17.9407 19.1369C17.8851 19.2278 17.8261 19.3246 17.7004 19.2555C17.5794 19.1892 17.6166 19.077 17.6521 18.9698C17.6621 18.9397 17.6719 18.91 17.6781 18.8818C17.6875 18.8372 17.6986 18.7932 17.7096 18.7493L17.7096 18.7493C17.7168 18.7205 17.724 18.6918 17.7307 18.663C17.8915 17.9878 17.8122 17.8367 17.2172 17.4833C16.9667 17.3352 16.8082 17.4028 16.6407 17.5923C16.4798 17.7755 16.368 17.9887 16.2563 18.2019C16.212 18.2863 16.1678 18.3707 16.1205 18.4532C16.0345 18.6029 16.0975 18.6946 16.2279 18.7495C16.6251 18.9179 16.7852 19.2562 16.8763 19.6487C16.9107 19.7964 16.945 19.9441 16.9793 20.0918L16.9793 20.092L16.9794 20.0921C17.0691 20.4788 17.1589 20.8655 17.2506 21.2517C17.2559 21.274 17.2602 21.2979 17.2646 21.3223C17.2836 21.4269 17.3041 21.5396 17.4099 21.5683C17.7989 21.6743 18.1998 21.6615 18.5799 21.5442C18.7605 21.488 18.7895 21.3233 18.8183 21.1596C18.8299 21.0935 18.8415 21.0276 18.863 20.969C18.8824 20.9164 18.888 20.8527 18.8936 20.7892C18.9058 20.6515 18.9178 20.5147 19.0705 20.4931C19.2389 20.4693 19.2771 20.6069 19.3148 20.743C19.3308 20.8004 19.3466 20.8575 19.3721 20.9021C19.4122 20.9725 19.4499 21.0456 19.4875 21.1185C19.6887 21.509 19.8884 21.8965 20.4584 21.8623C20.6074 21.8532 20.7919 21.8698 20.8312 22.0382C20.8647 22.1828 20.746 22.2507 20.6352 22.3141C20.6112 22.3279 20.5875 22.3414 20.5659 22.3555C20.0568 22.6856 20.0153 22.8262 20.2443 23.4051C20.2564 23.4356 20.2691 23.4659 20.2819 23.4965C20.3612 23.6863 20.4436 23.8833 20.411 24.1495C20.318 24.0731 20.2281 24.0018 20.1413 23.933L20.1413 23.933L20.1413 23.933L20.1413 23.933C19.9558 23.786 19.7845 23.6502 19.627 23.4991C19.3795 23.2615 19.1846 23.2916 18.9779 23.5435C18.9638 23.5607 18.9497 23.5782 18.9357 23.5957C18.8199 23.7399 18.7017 23.8871 18.5081 23.9435C18.4212 23.8205 18.4572 23.7062 18.4927 23.5936C18.5093 23.5409 18.5258 23.4886 18.5296 23.4359C18.5392 23.3096 18.5407 23.2472 18.3799 23.2931C17.8226 23.4525 17.5862 23.7773 17.7018 24.3457C17.8545 25.0969 17.833 25.8352 17.6574 26.5751C17.6203 26.7292 17.6122 26.8683 17.7507 26.9833L17.7533 26.9854C18.0881 27.2622 18.4225 27.5385 18.8526 27.6532C18.8732 27.6587 18.894 27.6648 18.9149 27.6708C19.0852 27.7204 19.2583 27.7707 19.3521 27.5262C19.4484 27.2758 19.4121 27.0615 19.1735 26.9051C18.9253 26.742 18.6807 26.5735 18.4369 26.4044C18.4284 26.3985 18.4196 26.3926 18.4107 26.3867C18.3365 26.3374 18.2556 26.2836 18.2947 26.1735C18.3243 26.0901 18.3912 26.0975 18.4572 26.1049C18.4786 26.1072 18.5 26.1096 18.5199 26.1089C19.1132 26.0848 19.5055 25.7793 19.6967 25.1923C19.7025 25.174 19.7064 25.1531 19.7104 25.1318C19.723 25.0639 19.7365 24.9919 19.816 24.9856C19.9282 24.9771 19.9664 25.0811 19.9989 25.1699C20.0009 25.1754 20.0029 25.1809 20.0049 25.1863C20.2873 25.9435 20.7445 26.4848 21.6455 26.5059C21.5169 26.7305 21.3365 26.8549 21.1625 26.975C21.1029 27.0161 21.044 27.0567 20.9883 27.1006C20.8245 27.2299 20.7467 27.3548 20.8571 27.5766C20.9546 27.7738 21.017 27.9901 21.0786 28.2037L21.0786 28.2037C21.0863 28.2303 21.0939 28.2569 21.1016 28.2833C21.108 28.305 21.1194 28.3282 21.1311 28.3519C21.1656 28.4219 21.2026 28.4969 21.1202 28.5548C21.0243 28.6225 20.9596 28.5552 20.8984 28.4914C20.8801 28.4724 20.8622 28.4537 20.8438 28.439C20.7353 28.3518 20.6292 28.2619 20.5231 28.172L20.523 28.1719C20.4304 28.0934 20.3378 28.0149 20.2435 27.9382C20.2269 27.9248 20.2105 27.9093 20.1938 27.8936C20.1187 27.8231 20.0395 27.7486 19.9286 27.8427C19.8264 27.9299 19.882 28.0447 19.9285 28.1408L19.9345 28.1533C20.1383 28.5796 20.1613 29.0074 20.0049 29.46C19.8997 29.766 19.9353 30.0788 20.1205 30.3585C20.1269 30.3682 20.1332 30.3781 20.1396 30.3882C20.1873 30.4637 20.2383 30.5443 20.3384 30.5277C20.4195 30.5147 20.4404 30.438 20.4601 30.3656C20.4643 30.35 20.4685 30.3347 20.4733 30.3202C20.4835 30.2883 20.4877 30.251 20.4919 30.2134C20.5037 30.1092 20.5157 30.0034 20.6563 30.0089C20.7782 30.0137 20.8195 30.1256 20.8598 30.235C20.8697 30.2618 20.8795 30.2885 20.8904 30.3134L20.9001 30.3355C21.0678 30.7181 21.2313 31.0913 21.7337 31.1548C23.241 31.345 24.7497 31.5089 26.2725 31.4811C26.4244 31.4781 26.6534 31.463 26.6734 31.351C26.7372 30.9932 26.97 31.0136 27.1793 31.0319C27.2349 31.0368 27.2887 31.0415 27.3373 31.039C27.7375 31.0179 27.9924 30.9112 28.0376 30.4585C28.0507 30.3232 28.1054 30.1924 28.1638 30.0529C28.1915 29.987 28.2199 29.9192 28.2451 29.848C28.4064 29.9799 28.4877 30.1482 28.5667 30.3118C28.613 30.4075 28.6584 30.5015 28.7186 30.5856C28.7289 30.6 28.7388 30.6149 28.7486 30.6296L28.7486 30.6296C28.802 30.7101 28.8534 30.7874 28.9661 30.7766L29.039 30.7694L29.0391 30.7694C29.5053 30.7237 29.9715 30.678 30.4363 30.6194C30.6 30.5984 30.7342 30.5081 30.7905 30.3299C30.9809 29.7299 30.9668 29.6818 30.4585 29.3051C30.4202 29.2767 30.3809 29.2494 30.3416 29.2221C30.2477 29.157 30.154 29.0919 30.0747 29.0119C30.0414 28.9784 29.9919 28.9551 29.9428 28.932C29.8464 28.8866 29.7515 28.842 29.7849 28.7224C29.8269 28.5721 29.9514 28.5936 30.071 28.6143C30.1183 28.6224 30.1648 28.6305 30.2051 28.6277C30.8186 28.5856 30.9031 28.5299 31.0973 27.9329C31.0984 27.9295 31.0995 27.9261 31.1006 27.9227C31.1036 27.9138 31.1067 27.9049 31.1098 27.8959C31.1127 27.8875 31.1157 27.8791 31.1187 27.8706C31.1363 27.8208 31.154 27.7709 31.164 27.7194C31.1668 27.7047 31.169 27.6894 31.1712 27.6742L31.1712 27.6741C31.1837 27.5889 31.1963 27.5029 31.3107 27.4991C31.4329 27.4954 31.47 27.6044 31.5011 27.6984C31.7345 28.3976 32.1191 28.9187 32.9179 28.9811C33.1025 28.9954 33.1195 29.1089 32.978 29.2247C32.8053 29.366 32.6312 29.5059 32.4467 29.6307C32.2777 29.7442 32.277 29.8908 32.3266 30.0578C32.3807 30.239 32.5015 30.3254 32.6882 30.3074C32.7158 30.3047 32.7434 30.3021 32.771 30.2994C32.9036 30.2869 33.0362 30.2744 33.1662 30.2495C33.5826 30.17 33.9987 30.0886 34.4149 30.0072L34.415 30.0072L34.4151 30.0072L34.4152 30.0072L34.4153 30.0072C34.7863 29.9346 35.1574 29.8621 35.5286 29.7908C35.5515 29.7865 35.5759 29.7786 35.6007 29.7706C35.6843 29.7435 35.7731 29.7148 35.8279 29.8157C35.8761 29.9034 35.8108 29.9589 35.7492 30.0111C35.7312 30.0264 35.7135 30.0415 35.699 30.057C35.533 30.236 35.5189 30.4397 35.619 30.6472C35.6964 30.8077 35.7861 30.9622 35.8759 31.1169L35.876 31.1169L35.876 31.1169C35.9048 31.1666 35.9336 31.2162 35.9621 31.266C36.0191 31.366 36.0962 31.451 36.2155 31.4668C36.3195 31.4807 36.4239 31.4986 36.5283 31.5165C36.7794 31.5595 37.031 31.6025 37.2796 31.5909C38.4015 31.5382 39.5256 31.4818 40.6416 31.36C43.8817 31.0072 47.1307 30.7693 50.3801 30.5313L50.3801 30.5313L50.3802 30.5313L50.3802 30.5313L50.3803 30.5313L50.7891 30.5014C55.0352 30.1901 59.279 30.2202 63.511 30.6758C63.8207 30.7091 64.1304 30.7428 64.4401 30.7764L64.4403 30.7764C66.3875 30.9878 68.3347 31.1992 70.2891 31.3367C70.5492 31.3548 70.8093 31.369 71.0627 31.2675C70.448 31.1025 69.8226 30.9944 69.1978 30.8865C68.4306 30.7539 67.6645 30.6215 66.9204 30.3841C67.3058 30.2969 67.6874 30.2976 68.0697 30.3322C68.7892 30.3977 69.5007 30.5184 70.2123 30.6392C70.6689 30.7166 71.1256 30.7941 71.5844 30.857C71.6324 30.8636 71.6808 30.8723 71.7292 30.8811C71.9019 30.9122 72.0759 30.9436 72.2432 30.8796C72.3729 30.8299 72.5588 30.7555 72.5574 30.6014C72.5562 30.4762 72.4346 30.4503 72.3204 30.4259C72.2913 30.4197 72.2626 30.4135 72.2365 30.4059C68.9449 29.4435 65.5747 29.0021 62.1623 28.8382C61.7399 28.8179 61.3346 28.7382 60.9419 28.5675C60.5299 28.3886 60.0941 28.2931 59.6436 28.2984C58.4524 28.313 57.261 28.3286 56.0696 28.3442L56.0651 28.3443L56.0648 28.3443L56.0645 28.3443L56.0641 28.3443C54.8746 28.3599 53.6851 28.3755 52.4957 28.3901C52.2341 28.3931 52.0133 28.472 51.8421 28.6796C51.5806 28.9969 51.2538 29.0736 50.8766 28.9322C50.7217 28.8743 50.5713 28.845 50.4075 28.8924C49.507 29.1507 48.5823 29.2014 47.6574 29.2522C47.4734 29.2623 47.2894 29.2724 47.1055 29.2841C47.0991 29.2845 47.0927 29.2849 47.0863 29.2853C46.9608 29.2936 46.8285 29.3022 46.7143 29.1871C46.8507 29.0755 47.0199 29.0313 47.1927 28.9861C47.4414 28.9211 47.6975 28.8542 47.8732 28.5818C47.8133 28.5818 47.7589 28.5811 47.7082 28.5805H47.7081H47.7081H47.708C47.6101 28.5792 47.5256 28.5781 47.4412 28.5826L47.3358 28.5883C44.7337 28.7308 42.1308 28.8733 39.5279 29.0187C38.6964 29.0658 38.6964 29.0705 38.6942 29.8933L38.6942 29.9044C38.694 29.9559 38.7011 30.0151 38.7083 30.0752C38.7269 30.2297 38.7461 30.3899 38.6431 30.4397C38.4638 30.5264 38.3297 30.663 38.1968 30.7985ZM28.2013 19.4331C27.9598 19.2698 27.7136 19.1031 27.4944 18.8653H27.4937C27.729 18.8014 27.9388 18.8117 28.1426 18.8217L28.1427 18.8217C28.1692 18.823 28.1957 18.8243 28.2221 18.8254C28.5548 18.8397 28.766 18.7201 28.8283 18.3683C28.8631 18.1728 28.9142 17.978 28.9765 17.7893C29.0306 17.6247 29.1313 17.5923 29.2277 17.7615C29.2413 17.7852 29.255 17.809 29.2687 17.8327C29.3547 17.9814 29.4415 18.1315 29.4996 18.2916C29.676 18.7773 30.0109 19.0367 30.5133 19.0961C30.5372 19.0989 30.563 19.1002 30.5895 19.1015C30.7034 19.107 30.8286 19.1131 30.8587 19.248C30.8834 19.3577 30.7946 19.4055 30.709 19.4517C30.679 19.4678 30.6494 19.4838 30.6252 19.5021C30.0621 19.9269 30.0346 20.0314 30.3214 20.7698C30.3461 20.833 30.3761 20.8937 30.4062 20.9545L30.4062 20.9545L30.4062 20.9545L30.4062 20.9545L30.4063 20.9546L30.4063 20.9546C30.4259 20.9942 30.4455 21.0339 30.4637 21.0743C30.4911 21.1352 30.4911 21.1968 30.4385 21.2457C30.3681 21.3111 30.3007 21.278 30.2429 21.2254C30.1484 21.1395 30.055 21.0526 29.9615 20.9657C29.8914 20.9005 29.8213 20.8353 29.7508 20.7705C29.4767 20.5186 29.218 20.5119 28.9431 20.7878C28.9157 20.8155 28.8895 20.8459 28.8628 20.8768C28.7706 20.9837 28.6734 21.0964 28.5044 21.1209C28.4615 20.8527 28.5297 20.6144 28.5969 20.3796C28.6109 20.3306 28.6249 20.2818 28.6378 20.2329C28.7149 19.942 28.6371 19.7352 28.3866 19.56C28.3255 19.5171 28.2636 19.4752 28.2013 19.4331ZM23.8616 27.594C23.8862 27.5264 23.9119 27.4559 23.9383 27.3811C24.1665 27.5412 24.2651 27.7578 24.3236 27.9585C24.4992 28.5585 24.8912 28.836 25.484 28.8743C25.5826 28.8803 25.6908 28.8976 25.7086 29.0247C25.7201 29.11 25.6621 29.1516 25.6031 29.1938C25.5904 29.2029 25.5777 29.2121 25.5655 29.2217C24.9201 29.7345 24.9134 29.7623 25.2054 30.5307C25.2309 30.5988 25.2621 30.6648 25.2934 30.7309C25.2994 30.7436 25.3054 30.7563 25.3114 30.769C25.3521 30.8563 25.3588 30.948 25.2773 31.0051C25.1928 31.0638 25.1113 31.0089 25.0453 30.9487C24.9958 30.9036 24.9478 30.8568 24.8999 30.81L24.8999 30.8099L24.8998 30.8099C24.8151 30.7271 24.7305 30.6445 24.6378 30.5721C24.2236 30.248 24.1502 30.26 23.7575 30.6157C23.7276 30.6425 23.6989 30.68 23.6699 30.7179C23.5983 30.8116 23.5246 30.9079 23.4255 30.8533C23.2736 30.769 23.361 30.533 23.4129 30.4104C23.7041 29.7269 23.3995 29.3375 22.8334 29.0277C22.8067 29.013 22.776 28.9984 22.744 28.9831C22.5903 28.9099 22.4045 28.8213 22.4659 28.639C22.5069 28.5162 22.6607 28.5339 22.8092 28.5509H22.8092H22.8092H22.8092H22.8092C22.8671 28.5576 22.9242 28.5642 22.9735 28.5623L22.9939 28.5615C23.5551 28.5398 23.5557 28.5398 23.7278 27.9803C23.7668 27.854 23.8121 27.7297 23.8615 27.5942L23.8615 27.5941L23.8615 27.5941L23.8616 27.594ZM24.3069 25.7113C24.3698 25.8511 24.4345 25.9946 24.3933 26.1796C24.0791 25.9871 23.8071 25.7578 23.5522 25.5126C23.3417 25.3104 23.1728 25.3344 22.9898 25.5397C22.9602 25.5729 22.9316 25.6072 22.9028 25.6418C22.7834 25.7849 22.6617 25.9309 22.4659 26.0066C22.3859 25.7266 22.4724 25.4824 22.5544 25.2507C22.5651 25.2205 22.5757 25.1906 22.5859 25.1608C22.6956 24.8397 22.5911 24.6307 22.3495 24.4517C22.2222 24.3572 22.0934 24.2643 21.9646 24.1715L21.9645 24.1714C21.8527 24.0908 21.7409 24.0102 21.63 23.9284C21.6253 23.9249 21.6205 23.9214 21.6156 23.9179C21.5711 23.8857 21.5222 23.8503 21.5329 23.7826C21.5485 23.6841 21.6367 23.6705 21.7026 23.6826C22.4851 23.8217 22.8571 23.4487 22.9327 22.6878C22.9372 22.6435 22.9685 22.6019 23.0021 22.5574L23.0021 22.5574L23.0021 22.5574L23.0021 22.5574L23.0021 22.5573C23.0187 22.5354 23.0358 22.5127 23.0505 22.4886C23.238 22.6367 23.3477 22.8292 23.404 23.0465C23.5522 23.6156 23.9316 23.8938 24.4866 23.9623C24.5062 23.9647 24.5265 23.9663 24.5469 23.9679C24.6519 23.9761 24.7594 23.9846 24.7941 24.1111C24.8246 24.2236 24.7455 24.2688 24.6691 24.3125L24.6691 24.3125C24.6469 24.3251 24.6249 24.3377 24.6059 24.3517C24.0591 24.757 24.0094 24.9359 24.2547 25.5886C24.2701 25.6298 24.2884 25.6704 24.3069 25.7113ZM37.6182 21.3397C37.6173 21.3683 37.616 21.4059 37.616 21.4577V21.457C37.516 21.371 37.4207 21.2903 37.3293 21.2128L37.3291 21.2126L37.329 21.2126L37.3283 21.212L37.3283 21.212C37.1316 21.0453 36.9522 20.8934 36.7794 20.7344C36.5623 20.5344 36.3889 20.5224 36.1955 20.7743C36.1799 20.7945 36.1633 20.8167 36.1459 20.8399C36.009 21.0228 35.8219 21.2726 35.7042 21.1938C35.5541 21.094 35.6283 20.9014 35.6995 20.7165C35.7253 20.6495 35.7508 20.5834 35.765 20.5232L35.7724 20.4918C35.9059 19.9254 35.9065 19.9229 35.4189 19.5758C35.2373 19.4465 35.0565 19.3156 34.8817 19.178C34.8676 19.1671 34.8507 19.1571 34.8334 19.1468C34.7748 19.1122 34.7119 19.075 34.7416 18.9886C34.7685 18.9109 34.8432 18.9028 34.9142 18.895C34.9312 18.8932 34.948 18.8913 34.9639 18.8886C35.0239 18.8773 35.0862 18.8698 35.1477 18.8698C35.8955 18.8692 35.9053 18.8293 36.0017 18.4341C36.0261 18.3339 36.0561 18.211 36.1051 18.06C36.1138 18.0334 36.1198 18.0044 36.1258 17.9753C36.146 17.8777 36.1663 17.7797 36.2874 17.7728C36.3796 17.7672 36.4057 17.8419 36.4321 17.9172C36.445 17.9539 36.4579 17.9908 36.4786 18.0186C36.5297 18.0871 36.5653 18.1698 36.5964 18.251C36.7972 18.7758 37.1106 19.1525 37.7161 19.1886C37.7282 19.1892 37.7413 19.1897 37.7549 19.1902C37.862 19.1938 38.0039 19.1987 38.0354 19.3262C38.0631 19.4373 37.9724 19.493 37.888 19.5449C37.8617 19.561 37.8359 19.5768 37.8146 19.5938L37.8067 19.6002C37.227 20.066 37.2266 20.0663 37.473 20.7878C37.5249 20.9412 37.5701 21.0961 37.6145 21.2517C37.6204 21.2724 37.6197 21.295 37.6182 21.3397V21.3397ZM28.5917 28.7112C28.5353 28.3542 28.448 28.1251 28.3503 27.8961C28.0998 27.3104 28.1428 27.1863 28.6578 26.8517C28.6872 26.8325 28.7233 26.8169 28.7599 26.8009C28.8666 26.7546 28.978 26.7061 28.9416 26.5623C28.9028 26.4096 28.7577 26.3991 28.621 26.3891C28.5907 26.3869 28.5608 26.3847 28.5326 26.3811C28.1243 26.3277 27.8249 26.1382 27.6567 25.7337C27.5418 25.4578 27.4174 25.1773 27.1936 24.9397C27.1803 24.9676 27.1664 24.9923 27.1536 25.015L27.1536 25.015L27.1536 25.015C27.1284 25.0598 27.1076 25.0968 27.1046 25.1352C27.0424 25.9517 26.5889 26.2442 25.8249 26.136L25.8219 26.1355C25.7687 26.128 25.6919 26.1171 25.6708 26.1961C25.6477 26.2822 25.7106 26.3273 25.7699 26.3697L25.7753 26.3735C25.8288 26.4123 25.881 26.4537 25.9332 26.4952L25.9332 26.4952L25.9332 26.4952L25.9332 26.4952L25.9332 26.4953C26.0472 26.5858 26.1612 26.6763 26.2888 26.7382C26.7423 26.9593 26.8156 27.3014 26.6993 27.7615C26.6869 27.8103 26.6687 27.866 26.6498 27.9239C26.5853 28.1216 26.5125 28.3449 26.6311 28.4036C26.7758 28.4743 26.9168 28.2891 27.042 28.1247C27.0765 28.0793 27.1098 28.0355 27.1417 27.9991C27.3381 27.7736 27.49 27.7841 27.6967 27.969C27.8761 28.1302 28.0633 28.2818 28.2737 28.4521L28.2737 28.4521C28.3739 28.5332 28.4793 28.6186 28.5917 28.7112ZM33.944 28.4521C33.8773 28.5236 33.8048 28.6013 33.6627 28.6194H33.6612C33.6799 28.5175 33.6959 28.4166 33.7117 28.3168V28.3168L33.7117 28.3168L33.7117 28.3168L33.7117 28.3168L33.7117 28.3168L33.7117 28.3167C33.7474 28.092 33.7821 27.8732 33.8442 27.6623C33.9346 27.3555 33.8442 27.16 33.596 26.9961C33.4346 26.89 33.2784 26.7762 33.1222 26.6625L33.1222 26.6625L33.1221 26.6624L33.1221 26.6624L33.1221 26.6624C33.0581 26.6158 32.9941 26.5692 32.9298 26.5232C32.9161 26.5134 32.901 26.5039 32.8857 26.4942C32.814 26.4491 32.7372 26.4007 32.772 26.3029C32.8042 26.2133 32.8866 26.2202 32.9653 26.2268C32.9897 26.2288 33.0137 26.2308 33.0358 26.2299C33.0673 26.2286 33.0989 26.227 33.1304 26.2254C33.2598 26.2188 33.3892 26.2121 33.5167 26.2254C33.8672 26.2615 34.0191 26.0653 34.0562 25.754C34.0843 25.5119 34.1495 25.2916 34.3111 25.0766C34.5378 25.2705 34.6497 25.542 34.7386 25.7923C34.9046 26.26 35.2196 26.4615 35.6775 26.5051C35.6922 26.5065 35.7074 26.5078 35.7227 26.5091C35.8716 26.5214 36.043 26.5357 36.0732 26.7074C36.0973 26.8416 35.9825 26.8999 35.8736 26.9552C35.8416 26.9715 35.81 26.9875 35.7827 27.0051C35.2625 27.3405 35.2255 27.4878 35.4752 28.1277C35.4936 28.1743 35.5225 28.2251 35.552 28.2767C35.6333 28.4191 35.7185 28.5686 35.5967 28.6585C35.458 28.7616 35.3644 28.6327 35.2733 28.5074C35.2355 28.4553 35.1981 28.4038 35.1581 28.3698C34.6045 27.8999 34.5237 27.8969 33.9932 28.4014C33.9765 28.4172 33.9605 28.4345 33.9441 28.452L33.944 28.4521ZM23.4795 21.7593C23.4424 21.4664 23.3637 21.2572 23.2859 21.05C23.2813 21.0378 23.2767 21.0256 23.2721 21.0134C23.1125 20.5903 23.2098 20.245 23.564 19.9773C23.5691 19.9735 23.5743 19.9698 23.5795 19.9661C23.5947 19.9554 23.6097 19.9447 23.6218 19.9307C23.6503 19.8986 23.6916 19.874 23.7326 19.8495C23.8156 19.8 23.8976 19.7511 23.8708 19.642C23.8399 19.5146 23.7108 19.5055 23.5946 19.4974C23.5688 19.4956 23.5436 19.4938 23.5203 19.4908C23.0112 19.4239 22.6481 19.1893 22.4985 18.66C22.4647 18.5416 22.4001 18.4318 22.3355 18.3221L22.3355 18.3221L22.3354 18.3221C22.3106 18.28 22.2858 18.2379 22.2628 18.1953C22.2578 18.1862 22.253 18.1766 22.2482 18.1668L22.2482 18.1668L22.2481 18.1668L22.2481 18.1668C22.2195 18.1095 22.1885 18.0474 22.1094 18.0615C22.0301 18.0758 22.0005 18.1397 21.9835 18.2216C21.9684 18.2942 21.9469 18.3661 21.9255 18.4378C21.8933 18.546 21.8611 18.6539 21.8508 18.7638C21.8175 19.1239 21.6063 19.2194 21.2958 19.2134C21.2646 19.2128 21.2333 19.2119 21.202 19.2111L21.2019 19.211C20.9928 19.2052 20.7792 19.1993 20.5466 19.2758C20.7172 19.5077 20.9333 19.6475 21.1435 19.7834L21.1435 19.7834L21.1435 19.7834L21.1435 19.7834C21.2447 19.8489 21.3446 19.9135 21.4373 19.9871C21.65 20.1555 21.7263 20.3344 21.6626 20.6006C21.6543 20.635 21.6458 20.6695 21.6373 20.704L21.6373 20.7044C21.57 20.978 21.5015 21.2565 21.5055 21.5735C21.7125 21.467 21.852 21.3121 21.9877 21.1616L21.9877 21.1616C22.0244 21.1208 22.0609 21.0803 22.0983 21.0412C22.2584 20.8735 22.3977 20.8638 22.574 21.0171C22.7611 21.1801 22.9542 21.3354 23.1642 21.5043C23.265 21.5854 23.3697 21.6696 23.4795 21.7593ZM31.7515 18.6688L31.7519 18.6684L31.7521 18.6681L31.7521 18.6681L31.7522 18.668L31.7522 18.668L31.7522 18.668C31.8632 18.549 31.9568 18.4487 32.0435 18.3427C32.2384 18.1044 32.4244 18.1201 32.6393 18.3201C32.8032 18.4728 32.9781 18.6133 33.1529 18.7537L33.153 18.7538L33.153 18.7538L33.1531 18.7539C33.1908 18.7842 33.2286 18.8145 33.2662 18.845C33.2748 18.8519 33.2837 18.8598 33.2929 18.8678C33.3419 18.9111 33.3982 18.9607 33.4582 18.9164C33.5434 18.854 33.5019 18.7562 33.4641 18.6765C33.4471 18.64 33.4253 18.6056 33.4034 18.571L33.4034 18.571C33.3852 18.5422 33.3669 18.5134 33.3514 18.4833C33.0217 17.851 33.1158 17.4841 33.7057 17.0946C33.7221 17.0838 33.7409 17.0739 33.7599 17.0638C33.8228 17.0306 33.8883 16.9959 33.882 16.9231C33.8729 16.8137 33.7631 16.788 33.6708 16.7663C33.6661 16.7652 33.6614 16.7641 33.6567 16.763C33.5805 16.7448 33.5036 16.7303 33.4266 16.7158C33.3704 16.7052 33.3141 16.6946 33.2581 16.6825C32.9305 16.6111 32.6868 16.4179 32.5993 16.0931C32.5658 15.9697 32.503 15.8648 32.4406 15.7606C32.3828 15.664 32.3253 15.568 32.2918 15.4585C32.2688 15.3833 32.2162 15.3216 32.1295 15.3382C32.0487 15.354 32.0161 15.4269 31.9991 15.5021C31.9887 15.5479 31.9802 15.5942 31.9716 15.6405C31.9575 15.7167 31.9434 15.7929 31.9213 15.8668C31.7642 16.3916 31.7071 16.4352 31.1706 16.4502C31.0398 16.4538 30.909 16.4528 30.7782 16.4519C30.7178 16.4514 30.6574 16.451 30.5971 16.451C30.7773 16.7694 31.0325 16.9514 31.2821 17.1294C31.3178 17.1549 31.3533 17.1802 31.3885 17.2059C31.6975 17.4307 31.7812 17.6991 31.636 18.051C31.5435 18.2747 31.5204 18.5083 31.5676 18.8676C31.6343 18.7945 31.6951 18.7292 31.7515 18.6688ZM37.9597 16.4658C37.9967 16.4721 38.0316 16.478 38.0525 16.4675C38.3281 16.4149 38.4178 16.5487 38.4111 16.7735C38.4108 16.7826 38.4107 16.7925 38.4106 16.8027C38.4098 16.89 38.4088 17.0075 38.2689 16.9577C38.2623 16.9554 38.2556 16.953 38.249 16.9506L38.2354 16.9458C38.0504 16.8799 37.838 16.8043 37.8087 16.581C37.79 16.4372 37.8799 16.4524 37.9597 16.4658ZM63.9707 33.359C64.0779 33.5494 64.2353 33.5584 64.3809 33.5668C64.4155 33.5688 64.4493 33.5708 64.4817 33.5751C65.1937 33.6676 65.9061 33.7565 66.6185 33.8455C67.5099 33.9568 68.4012 34.0681 69.2917 34.1864C69.6372 34.2325 69.9794 34.3032 70.3214 34.3738L70.3214 34.3738L70.3215 34.3738L70.3215 34.3738L70.3216 34.3738C70.487 34.408 70.6525 34.4422 70.8182 34.4736C70.8255 34.475 70.8329 34.4764 70.8403 34.4777L70.8406 34.4778C70.9842 34.5046 71.1362 34.533 71.0961 34.736C71.0588 34.9264 70.9098 34.9095 70.7686 34.8936C70.7581 34.8924 70.7477 34.8912 70.7374 34.8901C70.0314 34.8171 69.3251 34.7461 68.6189 34.675L68.6187 34.675L68.6185 34.675L68.6183 34.675L68.6181 34.675C67.0038 34.5126 65.3895 34.3502 63.7778 34.1645C61.754 33.9315 59.7347 34.0337 57.714 34.1465C53.8491 34.3625 50.0112 34.844 46.1734 35.3256L46.1733 35.3256C45.4682 35.4141 44.763 35.5025 44.0577 35.5894C43.7378 35.6287 43.4179 35.6683 43.098 35.7078L43.0916 35.7086C40.1064 36.0777 37.1204 36.4469 34.1199 36.6525C31.3255 36.8443 28.5259 36.9894 25.7212 36.8646C25.0059 36.8325 24.2906 36.8051 23.5753 36.7777C23.2176 36.764 22.8599 36.7503 22.5022 36.736C22.042 36.7179 21.9479 36.5991 22.0287 36.139C22.0687 35.9097 21.9331 35.9646 21.8197 36.0142C21.5477 36.1315 21.2765 36.251 21.0097 36.3803C20.7037 36.5285 20.4866 36.5006 20.3213 36.151C20.252 36.0046 20.1673 35.8659 20.0826 35.727C19.9663 35.5364 19.8498 35.3455 19.7722 35.1337C19.4981 34.3864 19.9101 33.7833 20.6978 33.7969C20.9801 33.8021 21.2639 33.8405 21.5425 33.8879C25.6233 34.5796 29.7227 34.4969 33.8324 34.2442C36.0259 34.1091 38.21 33.8786 40.394 33.6481C41.9405 33.4849 43.4869 33.3217 45.0366 33.1924C46.3518 33.0825 47.6647 32.9476 48.9776 32.8128L48.9777 32.8128C50.2797 32.679 51.5816 32.5453 52.8855 32.436C57.2857 32.0668 61.6873 32.0051 66.0801 32.5473C66.6515 32.618 67.2189 32.7189 67.7864 32.8197L67.7864 32.8197L67.7865 32.8198L67.7866 32.8198L67.7866 32.8198C68.0212 32.8615 68.2558 32.9032 68.4906 32.9427C68.5751 32.957 68.6648 32.9751 68.7359 33.0179L68.7439 33.0227C68.8346 33.0767 68.9478 33.1442 68.9212 33.2706C68.8999 33.3699 68.8135 33.3706 68.7312 33.3714C68.7101 33.3715 68.6893 33.3717 68.67 33.3736C67.5733 33.4706 66.4795 33.5142 65.3843 33.3352C64.9239 33.2601 64.4562 33.2765 63.9707 33.359ZM22.3265 42.1029C22.3398 42.0911 22.3522 42.08 22.3639 42.0696L22.364 42.0696C22.411 42.0278 22.4464 41.9963 22.4814 41.9638C22.5166 41.9313 22.5688 41.9083 22.6205 41.8855C22.728 41.838 22.8333 41.7915 22.7793 41.6631C22.7372 41.5628 22.6049 41.6153 22.484 41.6634C22.4453 41.6787 22.4078 41.6936 22.3747 41.7029C22.102 41.7804 21.8315 41.8676 21.5633 41.9593C21.5435 41.966 21.5236 41.9736 21.5036 41.9813L21.5035 41.9813C21.3935 42.0235 21.2826 42.0659 21.1898 41.9533C21.0794 41.8187 21.0742 41.651 21.152 41.4931C21.2413 41.3108 21.3759 41.1634 21.5107 41.0158L21.5107 41.0158L21.5108 41.0157L21.5108 41.0157C21.5438 40.9795 21.5769 40.9434 21.6092 40.9067C21.7634 40.7322 21.8464 40.6052 21.5055 40.5676C21.4891 40.5658 21.4724 40.5641 21.4555 40.5624C21.2341 40.5399 20.9767 40.5138 21.0001 40.1646C21.0246 39.7984 21.2987 39.4999 21.6359 39.5097C21.9214 39.518 22.2066 39.5391 22.4919 39.5603H22.492H22.492H22.492L22.4924 39.5603L22.4925 39.5603L22.4926 39.5603C22.6995 39.5756 22.9064 39.591 23.1135 39.6014C26.0383 39.7495 28.9616 39.7307 31.8827 39.5104C32.0614 39.4967 32.24 39.4839 32.4234 39.4707H32.4234H32.4235C32.5421 39.4621 32.6628 39.4534 32.7868 39.4443C32.768 39.6152 32.6422 39.6895 32.5241 39.7593L32.5241 39.7593C32.5025 39.772 32.4811 39.7846 32.4607 39.7977C32.0302 40.0728 31.5582 40.2578 31.0743 40.4082C30.6882 40.5277 30.3622 40.7465 30.0532 40.9984L30.0516 40.9997C29.9453 41.0866 29.8268 41.1834 29.9035 41.3413C29.9654 41.4691 30.0532 41.4313 30.1383 41.3947C30.1682 41.3818 30.1978 41.3691 30.2258 41.3638C30.3214 41.3458 30.4296 41.324 30.503 41.2653C31.2484 40.6707 32.1291 40.4213 33.0088 40.1721L33.0088 40.1721L33.0089 40.1721L33.0089 40.1721C33.3027 40.0889 33.5965 40.0057 33.885 39.9097C35.6486 39.3232 37.4745 38.9976 39.3085 38.7661C39.5331 38.7377 39.758 38.7156 39.9826 38.6935C40.7117 38.6219 41.4368 38.5506 42.1325 38.2683C42.2515 38.2203 42.3907 38.2206 42.5287 38.2209C42.5808 38.221 42.6326 38.2212 42.6831 38.2187L42.7227 38.2168C42.9942 38.2041 43.2668 38.1914 43.522 38.0931C44.8558 37.5819 46.2482 37.4871 47.6539 37.4773C47.7991 37.4766 47.9555 37.454 48.0874 37.3969C49.1791 36.9191 50.3377 36.7956 51.496 36.6721L51.4962 36.6721C51.7231 36.6479 51.95 36.6237 52.1763 36.5969C52.2965 36.5827 52.4174 36.5734 52.5383 36.5641C52.7254 36.5497 52.9126 36.5353 53.0967 36.5029C53.6673 36.4022 54.203 36.5104 54.7203 36.7397C54.9855 36.857 55.259 36.936 55.5443 36.9232C55.8974 36.9067 56.2509 36.9015 56.6045 36.8964C57.2013 36.8877 57.798 36.879 58.3927 36.8157C58.6662 36.7864 58.9218 36.7142 59.1656 36.5796C59.9615 36.1397 60.8137 35.9232 61.7214 35.9352C62.4624 35.945 63.202 35.9089 63.9415 35.8593C65.5162 35.7539 67.0769 35.9166 68.6383 36.0794L68.7172 36.0876L68.8432 36.1007C68.8961 36.1062 68.949 36.1117 69.0019 36.1172C69.1746 36.1352 69.3132 36.1946 69.3932 36.3548L69.3966 36.3616L69.4015 36.3712C69.4613 36.4898 69.5288 36.6236 69.4636 36.7465C69.4005 36.8658 69.2982 36.8384 69.1983 36.8117L69.1982 36.8116C69.1633 36.8023 69.1287 36.793 69.0961 36.7901C68.7897 36.7614 68.4836 36.7294 68.1775 36.6974L68.1775 36.6974C67.1953 36.5947 66.2133 36.4921 65.2235 36.4961C65.1984 36.4961 65.1694 36.493 65.1392 36.4898C65.0359 36.4788 64.9194 36.4663 64.9034 36.5728C64.8831 36.7032 65.0043 36.7349 65.1141 36.7637C65.1449 36.7718 65.1749 36.7797 65.2005 36.7894C65.6991 36.9778 66.2176 37.0851 66.7361 37.1925C66.9666 37.2402 67.1971 37.2879 67.4258 37.3428C67.4646 37.352 67.5036 37.3606 67.5426 37.3692C67.564 37.3739 67.5854 37.3786 67.6066 37.3834C67.6104 37.3842 67.6143 37.3851 67.6181 37.386L67.6228 37.3871C67.7154 37.4081 67.8123 37.4301 67.7948 37.5616C67.7783 37.683 67.7004 37.679 67.6131 37.6745C67.5987 37.6738 67.5842 37.673 67.5696 37.6728C66.7426 37.6608 65.9156 37.6548 65.0886 37.6503C63.2613 37.6405 61.4391 37.6939 59.6206 37.9194C59.2047 37.9713 58.7763 37.9288 58.3494 37.8865C58.1945 37.8712 58.0398 37.8558 57.8859 37.845C55.8244 37.7014 53.7962 37.9668 51.7754 38.3345C51.6932 38.3495 51.5835 38.3736 51.5428 38.433C51.308 38.776 50.9518 38.8289 50.6005 38.881C50.5817 38.8838 50.5629 38.8866 50.5441 38.8894C50.5262 38.8921 50.5083 38.8948 50.4905 38.8976C47.9371 39.2992 45.3989 39.787 42.8606 40.2749L42.8596 40.2751L42.8586 40.2752L42.8579 40.2754C41.9798 40.4441 41.1017 40.6129 40.2229 40.7781C36.4319 41.4901 32.6171 41.9841 28.7764 42.2796C26.7801 42.433 24.7801 42.4352 22.7838 42.2495C22.7705 42.2483 22.7572 42.2472 22.7439 42.2461C22.6091 42.2348 22.4717 42.2233 22.328 42.1022L22.3265 42.1029ZM27.5793 47.3145C27.6079 47.3133 27.637 47.3121 27.6656 47.3134V47.3142C28.371 47.236 29.0861 47.1097 29.7182 46.7601C30.6341 46.2534 31.5959 45.8547 32.5575 45.4561C33.2484 45.1697 33.9391 44.8833 34.6127 44.5571C34.6322 44.5476 34.6537 44.5396 34.6753 44.5316C34.7601 44.5 34.8463 44.4679 34.8209 44.345C34.7946 44.2189 34.6999 44.2294 34.6116 44.2392L34.6116 44.2392C34.5877 44.2418 34.5644 44.2444 34.543 44.2443C34.0953 44.2405 33.6525 44.2912 33.2095 44.342L33.2095 44.342L33.2093 44.342C33.0276 44.3628 32.8459 44.3836 32.6638 44.4007C30.3649 44.615 28.0653 44.8186 25.7657 45.0221C24.9676 45.0928 24.1694 45.1634 23.3714 45.2345C23.3509 45.2362 23.3293 45.2365 23.3075 45.2367C23.2154 45.2377 23.1201 45.2388 23.0883 45.3525C23.0461 45.5044 23.0779 45.6623 23.1995 45.7653C23.281 45.8345 23.3921 45.8789 23.4966 45.9059C23.7202 45.9639 23.945 46.0176 24.1698 46.0714L24.1698 46.0714L24.1698 46.0714C24.5691 46.1669 24.9682 46.2623 25.3603 46.3811C25.9939 46.5728 26.5526 46.4059 27.0987 46.1074C27.1755 46.0651 27.2481 46.0152 27.3207 45.9653L27.3207 45.9653C27.3708 45.9309 27.4208 45.8965 27.4722 45.8646C27.5359 45.8247 27.613 45.7946 27.6737 45.8631C27.7338 45.9307 27.7026 46.0037 27.653 46.0646C27.6102 46.1177 27.5659 46.1696 27.5215 46.2216L27.5215 46.2217L27.5214 46.2218L27.5214 46.2218L27.5214 46.2218C27.4446 46.3118 27.3678 46.4019 27.2988 46.4977C27.1514 46.7028 27.223 46.9104 27.2941 47.1165C27.3009 47.1363 27.3077 47.1561 27.3144 47.1759C27.3632 47.3234 27.4683 47.3191 27.5793 47.3145ZM29.8472 31.8315C29.9487 31.3089 30.2984 31.1833 30.769 31.1698C31.0241 31.1624 31.2785 31.1111 31.5327 31.0598L31.5327 31.0598L31.5327 31.0598C31.6425 31.0376 31.7523 31.0155 31.862 30.9969C31.8654 30.9963 31.8689 30.9958 31.8725 30.9953C31.8763 30.9947 31.8802 30.9942 31.8842 30.9937C31.9151 30.9895 31.9477 30.9851 31.968 30.9675C32.0829 30.8689 32.1994 30.9231 32.3207 30.9794C32.4683 31.048 32.6229 31.1198 32.7898 30.9224C32.9271 30.7605 33.1586 30.7543 33.3908 30.748H33.3908C33.4982 30.7451 33.6057 30.7422 33.7042 30.7239C34.0191 30.6653 34.3355 30.6149 34.6542 30.5833C34.6898 30.5799 34.7304 30.5681 34.772 30.556C34.9112 30.5156 35.0628 30.4717 35.0862 30.7217C35.1106 30.9863 34.9617 31.1773 34.6949 31.2284C34.5616 31.2544 34.4263 31.2695 34.2909 31.2846C34.1945 31.2954 34.0979 31.3062 34.0021 31.3209C33.9922 31.3224 33.9819 31.3238 33.9715 31.3253L33.9715 31.3253C33.8575 31.3409 33.7287 31.3586 33.8917 31.5322C34.0258 31.6751 33.9198 31.7435 33.7968 31.748C32.4933 31.7909 31.1899 31.8254 29.8857 31.86C29.8675 31.86 29.8487 31.8326 29.8486 31.8322L29.8472 31.8315ZM38.5917 23.6659C38.5851 23.6232 38.5789 23.5833 38.5831 23.5517V23.551L38.5832 23.5479C38.6032 23.2079 38.6203 22.9159 38.1896 22.9976C38.1463 23.0058 38.0974 23.0047 38.0481 23.0036C37.9117 23.0006 37.7727 22.9975 37.745 23.1908C37.7035 23.4826 38.1244 23.9848 38.3645 23.9728C38.6372 23.9591 38.6124 23.7992 38.5917 23.6659Z" fill="#132527"/>
<path d="M97.1332 28.9318C97.0704 28.9318 97.0389 28.8925 97.0389 28.8139L97.0625 12.6376C97.0625 12.559 97.1018 12.5197 97.1804 12.5197H99.7979C99.8765 12.5197 99.9158 12.559 99.9158 12.6376L99.8922 26.0314H104.75C104.828 26.0314 104.868 26.0707 104.868 26.1493V28.8139C104.868 28.8925 104.828 28.9318 104.75 28.9318H97.1332ZM111.395 29.1676C110.546 29.1676 109.767 28.9554 109.06 28.531C108.368 28.0908 107.81 27.517 107.386 26.8096C106.961 26.0864 106.749 25.2926 106.749 24.4279L106.773 16.9529C106.773 16.0883 106.977 15.3022 107.386 14.5948C107.81 13.8874 108.376 13.3215 109.084 12.897C109.791 12.4726 110.561 12.2603 111.395 12.2603C112.243 12.2603 113.014 12.4726 113.705 12.897C114.397 13.3215 114.947 13.8874 115.356 14.5948C115.781 15.3022 115.993 16.0883 115.993 16.9529L116.016 24.4279C116.016 25.2926 115.804 26.0864 115.38 26.8096C114.971 27.517 114.413 28.0908 113.705 28.531C113.014 28.9554 112.243 29.1676 111.395 29.1676ZM111.395 26.3144C111.866 26.3144 112.275 26.1257 112.621 25.7484C112.982 25.3554 113.163 24.9153 113.163 24.4279L113.139 16.9529C113.139 16.4341 112.974 15.9939 112.644 15.6324C112.314 15.2708 111.898 15.09 111.395 15.09C110.907 15.09 110.491 15.2708 110.145 15.6324C109.799 15.9782 109.626 16.4184 109.626 16.9529V24.4279C109.626 24.9467 109.799 25.3947 110.145 25.772C110.491 26.1336 110.907 26.3144 111.395 26.3144ZM123.091 29.1676C122.227 29.1676 121.441 28.9554 120.733 28.531C120.041 28.0908 119.491 27.5091 119.083 26.786C118.674 26.0629 118.469 25.2533 118.469 24.3572L118.493 17C118.493 16.1354 118.69 15.3494 119.083 14.642C119.491 13.9188 120.041 13.3451 120.733 12.9206C121.441 12.4804 122.227 12.2603 123.091 12.2603C123.956 12.2603 124.734 12.4726 125.426 12.897C126.117 13.3215 126.668 13.8953 127.076 14.6184C127.485 15.3258 127.689 16.1197 127.689 17V18.0848C127.689 18.1476 127.658 18.1791 127.595 18.1791H124.954C124.891 18.1791 124.86 18.1476 124.86 18.0848V17C124.86 16.4813 124.687 16.0332 124.341 15.6559C124.011 15.2787 123.594 15.09 123.091 15.09C122.525 15.09 122.093 15.2865 121.794 15.6795C121.496 16.0568 121.346 16.497 121.346 17V24.3572C121.346 24.9388 121.511 25.4105 121.841 25.772C122.187 26.1336 122.604 26.3144 123.091 26.3144C123.594 26.3144 124.011 26.1179 124.341 25.7249C124.687 25.3161 124.86 24.8602 124.86 24.3572V23.2725C124.86 23.2096 124.891 23.1782 124.954 23.1782H127.619C127.682 23.1782 127.713 23.2096 127.713 23.2725V24.3572C127.713 25.2533 127.501 26.0629 127.076 26.786C126.668 27.5091 126.117 28.0908 125.426 28.531C124.734 28.9554 123.956 29.1676 123.091 29.1676ZM129.164 28.8139L132.088 12.6141C132.104 12.5512 132.143 12.5197 132.206 12.5197H135.625C135.688 12.5197 135.728 12.5512 135.743 12.6141L138.549 28.8139C138.565 28.8925 138.534 28.9318 138.455 28.9318H135.838C135.775 28.9318 135.735 28.8925 135.72 28.8139L135.46 27.0925H132.253L131.994 28.8139C131.978 28.8925 131.939 28.9318 131.876 28.9318H129.259C129.196 28.9318 129.164 28.8925 129.164 28.8139ZM132.725 24.5694H134.989L134.022 17.9433L133.88 17.0708L133.786 17.9433L132.725 24.5694ZM141.067 28.9318C141.004 28.9318 140.973 28.8925 140.973 28.8139L140.996 12.6376C140.996 12.559 141.035 12.5197 141.114 12.5197H143.731C143.81 12.5197 143.849 12.559 143.849 12.6376L143.826 26.0314H148.683C148.762 26.0314 148.801 26.0707 148.801 26.1493V28.8139C148.801 28.8925 148.762 28.9318 148.683 28.9318H141.067ZM151.382 28.9318C151.32 28.9318 151.288 28.8925 151.288 28.8139L151.312 12.6376C151.312 12.559 151.351 12.5197 151.43 12.5197H154.047C154.126 12.5197 154.165 12.559 154.165 12.6376L154.141 26.0314H158.999C159.078 26.0314 159.117 26.0707 159.117 26.1493V28.8139C159.117 28.8925 159.078 28.9318 158.999 28.9318H151.382ZM161.885 28.9318C161.838 28.9318 161.815 28.9004 161.815 28.8375L161.838 22.1406L158.678 12.6141C158.663 12.5512 158.686 12.5197 158.749 12.5197H161.367C161.445 12.5197 161.492 12.5512 161.508 12.6141L163.253 18.9572L165.022 12.6141C165.037 12.5512 165.077 12.5197 165.139 12.5197H167.781C167.843 12.5197 167.867 12.5512 167.851 12.6141L164.668 22.0463L164.691 28.8375C164.691 28.9004 164.66 28.9318 164.597 28.9318H161.885ZM178.906 29.1676C178.057 29.1676 177.279 28.9554 176.571 28.531C175.88 28.0908 175.322 27.517 174.897 26.8096C174.473 26.0864 174.261 25.2926 174.261 24.4279L174.284 16.9529C174.284 16.0883 174.489 15.3022 174.897 14.5948C175.322 13.8874 175.888 13.3215 176.595 12.897C177.302 12.4726 178.073 12.2603 178.906 12.2603C179.755 12.2603 180.525 12.4726 181.217 12.897C181.909 13.3215 182.459 13.8874 182.867 14.5948C183.292 15.3022 183.504 16.0883 183.504 16.9529L183.528 24.4279C183.528 25.2926 183.316 26.0864 182.891 26.8096C182.482 27.517 181.924 28.0908 181.217 28.531C180.525 28.9554 179.755 29.1676 178.906 29.1676ZM178.906 26.3144C179.378 26.3144 179.786 26.1257 180.132 25.7484C180.494 25.3554 180.675 24.9153 180.675 24.4279L180.651 16.9529C180.651 16.4341 180.486 15.9939 180.156 15.6324C179.826 15.2708 179.409 15.09 178.906 15.09C178.419 15.09 178.002 15.2708 177.656 15.6324C177.31 15.9782 177.137 16.4184 177.137 16.9529V24.4279C177.137 24.9467 177.31 25.3947 177.656 25.772C178.002 26.1336 178.419 26.3144 178.906 26.3144ZM188.019 28.9318C187.956 28.9318 187.917 28.8925 187.901 28.8139L185.118 12.6141C185.103 12.5512 185.126 12.5197 185.189 12.5197H187.83C187.893 12.5197 187.932 12.5512 187.948 12.6141L189.457 23.2725L191.013 12.6141C191.029 12.5512 191.076 12.5197 191.155 12.5197H193.277C193.34 12.5197 193.379 12.5512 193.395 12.6141L194.928 23.2725L196.461 12.6141C196.476 12.5512 196.516 12.5197 196.579 12.5197H199.196C199.275 12.5197 199.306 12.5512 199.29 12.6141L196.484 28.8139C196.468 28.8454 196.445 28.8768 196.413 28.9082C196.382 28.924 196.366 28.9318 196.366 28.9318H193.513C193.466 28.9318 193.427 28.8925 193.395 28.8139L192.193 20.3485L190.99 28.8139C190.974 28.8925 190.935 28.9318 190.872 28.9318H188.019ZM201.835 28.9318C201.709 28.9318 201.646 28.8768 201.646 28.7668L201.623 12.7084C201.623 12.5826 201.685 12.5197 201.811 12.5197H203.933L207.919 21.8105L207.801 12.7084C207.801 12.5826 207.871 12.5197 208.013 12.5197H210.347C210.442 12.5197 210.489 12.5826 210.489 12.7084L210.512 28.7903C210.512 28.8847 210.473 28.9318 210.395 28.9318H208.319L204.24 20.2542L204.405 28.7432C204.405 28.8689 204.334 28.9318 204.193 28.9318H201.835ZM213.598 28.9318C213.535 28.9318 213.504 28.8925 213.504 28.8139L213.528 12.6141C213.528 12.5512 213.559 12.5197 213.622 12.5197H221.191C221.254 12.5197 221.286 12.559 221.286 12.6376V15.2787C221.286 15.3415 221.254 15.373 221.191 15.373H216.357V19.0516H221.191C221.254 19.0516 221.286 19.083 221.286 19.1459L221.309 21.8105C221.309 21.8734 221.278 21.9048 221.215 21.9048H216.357V26.0314H221.215C221.278 26.0314 221.309 26.0707 221.309 26.1493V28.8375C221.309 28.9004 221.278 28.9318 221.215 28.9318H213.598ZM224.467 28.9318C224.389 28.9318 224.349 28.8925 224.349 28.8139L224.396 12.6141C224.396 12.5512 224.428 12.5197 224.491 12.5197L228.9 12.4961C229.765 12.4804 230.551 12.6848 231.258 13.1092C231.982 13.5337 232.555 14.1075 232.98 14.8306C233.404 15.538 233.616 16.3241 233.616 17.1887V23.9563C233.616 24.8681 233.396 25.7013 232.956 26.4559C232.516 27.1947 231.926 27.7842 231.188 28.2244C230.449 28.6646 229.616 28.8925 228.688 28.9082L224.467 28.9318ZM227.226 26.0314H228.688C229.27 26.0314 229.757 25.827 230.15 25.4183C230.559 25.0096 230.763 24.5223 230.763 23.9563V17.1651C230.763 16.6621 230.575 16.2297 230.197 15.8682C229.836 15.4909 229.403 15.3101 228.9 15.3258L227.25 15.3494L227.226 26.0314ZM244.311 28.9528C243.487 28.9528 242.762 28.7504 242.134 28.3458C241.52 27.9411 241.039 27.4318 240.69 26.8178C240.341 26.2038 240.166 25.5898 240.166 24.9758V23.5944C240.166 23.12 240.278 22.6595 240.501 22.2129C240.725 21.7664 241.018 21.3687 241.38 21.0199C241.087 20.6989 240.857 20.3082 240.69 19.8477C240.522 19.3733 240.438 18.85 240.438 18.2779C240.438 17.5523 240.606 16.8964 240.941 16.3104C241.29 15.7104 241.75 15.2359 242.322 14.8871C242.908 14.5382 243.557 14.3638 244.269 14.3638H247.095C247.192 14.3638 247.241 14.4126 247.241 14.5103V16.729C247.241 16.8127 247.199 16.8546 247.116 16.8546H244.269C243.92 16.8546 243.613 16.9941 243.348 17.2732C243.097 17.5523 242.971 17.8872 242.971 18.2779C242.971 18.7523 243.076 19.1221 243.285 19.3872C243.508 19.6524 243.836 19.7849 244.269 19.7849H249.962C250.032 19.7849 250.067 19.8198 250.067 19.8896V22.2129C250.067 22.2688 250.039 22.2967 249.983 22.2967H248.141L248.12 28.8481C248.12 28.9039 248.092 28.9318 248.036 28.9318L244.311 28.9528ZM244.311 26.441L245.671 26.4201L245.692 22.2967H244.248C243.955 22.2967 243.683 22.3734 243.432 22.5269C243.194 22.6665 243.006 22.8339 242.867 23.0293C242.727 23.2246 242.657 23.413 242.657 23.5944V24.9758C242.657 25.1852 242.72 25.4084 242.846 25.6456C242.985 25.8689 243.18 26.0573 243.432 26.2108C243.683 26.3643 243.976 26.441 244.311 26.441ZM260.906 29.1676C260.057 29.1676 259.279 28.9554 258.571 28.531C257.88 28.0908 257.322 27.517 256.897 26.8096C256.473 26.0864 256.26 25.2926 256.26 24.4279L256.284 16.9529C256.284 16.0883 256.488 15.3022 256.897 14.5948C257.322 13.8874 257.887 13.3215 258.595 12.897C259.302 12.4726 260.073 12.2603 260.906 12.2603C261.755 12.2603 262.525 12.4726 263.217 12.897C263.908 13.3215 264.459 13.8874 264.867 14.5948C265.292 15.3022 265.504 16.0883 265.504 16.9529L265.528 24.4279C265.528 25.2926 265.315 26.0864 264.891 26.8096C264.482 27.517 263.924 28.0908 263.217 28.531C262.525 28.9554 261.755 29.1676 260.906 29.1676ZM260.906 26.3144C261.377 26.3144 261.786 26.1257 262.132 25.7484C262.494 25.3554 262.674 24.9153 262.674 24.4279L262.651 16.9529C262.651 16.4341 262.486 15.9939 262.156 15.6324C261.825 15.2708 261.409 15.09 260.906 15.09C260.418 15.09 260.002 15.2708 259.656 15.6324C259.31 15.9782 259.137 16.4184 259.137 16.9529V24.4279C259.137 24.9467 259.31 25.3947 259.656 25.772C260.002 26.1336 260.418 26.3144 260.906 26.3144ZM268.382 28.9318C268.303 28.9318 268.264 28.8925 268.264 28.8139L268.311 12.6141C268.311 12.5512 268.342 12.5197 268.405 12.5197H272.933C274.379 12.5197 275.519 12.9599 276.352 13.8402C277.201 14.7206 277.625 15.9153 277.625 17.4245C277.625 18.5406 277.405 19.5074 276.965 20.3249C276.525 21.1424 275.951 21.7712 275.244 22.2114C274.536 22.6515 273.766 22.8716 272.933 22.8716H271.14V28.8139C271.14 28.8925 271.101 28.9318 271.023 28.9318H268.382ZM271.14 20.0184H272.933C273.436 20.0184 273.868 19.7826 274.23 19.3109C274.607 18.8236 274.795 18.1948 274.795 17.4245C274.795 16.8114 274.63 16.3083 274.3 15.9153C273.97 15.5223 273.514 15.3258 272.933 15.3258L271.14 15.3494V20.0184ZM280.263 28.9318C280.2 28.9318 280.168 28.8925 280.168 28.8139L280.192 12.6141C280.192 12.5512 280.223 12.5197 280.286 12.5197H287.855C287.918 12.5197 287.95 12.559 287.95 12.6376V15.2787C287.95 15.3415 287.918 15.373 287.855 15.373H283.021V19.0516H287.855C287.918 19.0516 287.95 19.083 287.95 19.1459L287.973 21.8105C287.973 21.8734 287.942 21.9048 287.879 21.9048H283.021V26.0314H287.879C287.942 26.0314 287.973 26.0707 287.973 26.1493V28.8375C287.973 28.9004 287.942 28.9318 287.879 28.9318H280.263ZM291.108 28.9318C291.045 28.9318 291.013 28.8925 291.013 28.8139L291.061 12.6141C291.061 12.5512 291.092 12.5197 291.155 12.5197H295.918C296.767 12.5197 297.545 12.732 298.253 13.1564C298.976 13.5651 299.55 14.1232 299.974 14.8306C300.398 15.5223 300.611 16.3083 300.611 17.1887C300.611 17.7703 300.524 18.297 300.351 18.7686C300.178 19.2245 299.974 19.6175 299.738 19.9476C299.502 20.262 299.29 20.4978 299.102 20.655C299.95 21.5983 300.375 22.7065 300.375 23.9799L300.398 28.8139C300.398 28.8925 300.359 28.9318 300.281 28.9318H297.616C297.553 28.9318 297.522 28.9082 297.522 28.8611V23.9799C297.522 23.414 297.317 22.9266 296.909 22.5179C296.516 22.0935 296.028 21.8812 295.447 21.8812H293.89L293.867 28.8139C293.867 28.8925 293.835 28.9318 293.772 28.9318H291.108ZM293.89 19.0516H295.918C296.406 19.0516 296.838 18.8708 297.215 18.5092C297.592 18.1476 297.781 17.7075 297.781 17.1887C297.781 16.6856 297.592 16.2533 297.215 15.8918C296.854 15.5302 296.421 15.3494 295.918 15.3494H293.89V19.0516ZM302.531 28.8139L305.455 12.6141C305.47 12.5512 305.51 12.5197 305.573 12.5197H308.992C309.055 12.5197 309.094 12.5512 309.11 12.6141L311.916 28.8139C311.931 28.8925 311.9 28.9318 311.821 28.9318H309.204C309.141 28.9318 309.102 28.8925 309.086 28.8139L308.827 27.0925H305.62L305.36 28.8139C305.345 28.8925 305.305 28.9318 305.242 28.9318H302.625C302.562 28.9318 302.531 28.8925 302.531 28.8139ZM306.091 24.5694H308.355L307.388 17.9433L307.247 17.0708L307.152 17.9433L306.091 24.5694ZM315.569 28.9318C315.506 28.9318 315.474 28.8925 315.474 28.8139V15.373H312.409C312.33 15.373 312.291 15.3337 312.291 15.2551L312.314 12.6141C312.314 12.5512 312.346 12.5197 312.409 12.5197H321.369C321.448 12.5197 321.487 12.5512 321.487 12.6141V15.2551C321.487 15.3337 321.456 15.373 321.393 15.373H318.304L318.327 28.8139C318.327 28.8925 318.296 28.9318 318.233 28.9318H315.569ZM323.689 28.9318C323.627 28.9318 323.595 28.8925 323.595 28.8139L323.619 12.6141C323.619 12.5512 323.65 12.5197 323.713 12.5197H331.282C331.345 12.5197 331.377 12.559 331.377 12.6376V15.2787C331.377 15.3415 331.345 15.373 331.282 15.373H326.448V19.0516H331.282C331.345 19.0516 331.377 19.083 331.377 19.1459L331.4 21.8105C331.4 21.8734 331.369 21.9048 331.306 21.9048H326.448V26.0314H331.306C331.369 26.0314 331.4 26.0707 331.4 26.1493V28.8375C331.4 28.9004 331.369 28.9318 331.306 28.9318H323.689ZM334.558 28.9318C334.48 28.9318 334.44 28.8925 334.44 28.8139L334.488 12.6141C334.488 12.5512 334.519 12.5197 334.582 12.5197L338.991 12.4961C339.856 12.4804 340.642 12.6848 341.349 13.1092C342.073 13.5337 342.646 14.1075 343.071 14.8306C343.495 15.538 343.708 16.3241 343.708 17.1887V23.9563C343.708 24.8681 343.487 25.7013 343.047 26.4559C342.607 27.1947 342.018 27.7842 341.279 28.2244C340.54 28.6646 339.707 28.8925 338.779 28.9082L334.558 28.9318ZM337.317 26.0314H338.779C339.361 26.0314 339.848 25.827 340.241 25.4183C340.65 25.0096 340.854 24.5223 340.854 23.9563V17.1651C340.854 16.6621 340.666 16.2297 340.288 15.8682C339.927 15.4909 339.494 15.3101 338.991 15.3258L337.341 15.3494L337.317 26.0314Z" fill="#FCFBF8"/>
<path d="M101.704 50.6997C100.666 50.6997 99.7753 50.5167 99.0335 50.1507C98.3015 49.7847 97.7377 49.2159 97.342 48.4444C96.9563 47.663 96.7634 46.659 96.7634 45.4324C96.7634 43.6421 97.1986 42.3166 98.0691 41.4561C98.9395 40.5955 100.151 40.1652 101.704 40.1652C102.545 40.1652 103.302 40.3086 103.974 40.5955C104.657 40.8824 105.196 41.3176 105.592 41.9012C105.997 42.4749 106.2 43.2069 106.2 44.0971H104.227C104.227 43.6025 104.118 43.1871 103.9 42.8508C103.692 42.5046 103.401 42.2424 103.025 42.0644C102.649 41.8863 102.219 41.7973 101.734 41.7973C101.061 41.7973 100.502 41.9309 100.057 42.1979C99.6121 42.4551 99.2808 42.8409 99.0631 43.3552C98.8554 43.8696 98.7516 44.5076 98.7516 45.2692V45.5956C98.7516 46.3672 98.8554 47.0101 99.0631 47.5245C99.2808 48.0388 99.6072 48.4246 100.042 48.6818C100.488 48.939 101.051 49.0676 101.734 49.0676C102.248 49.0676 102.698 48.9835 103.084 48.8153C103.47 48.6373 103.767 48.3801 103.974 48.0438C104.192 47.6976 104.301 47.2772 104.301 46.7826H106.2C106.2 47.6729 106.002 48.4098 105.606 48.9934C105.211 49.5671 104.672 49.9974 103.989 50.2842C103.316 50.5612 102.555 50.6997 101.704 50.6997ZM108.213 50.5216V40.3433H116.151V41.9902H110.142V44.4977H115.498V46.1446H110.142V48.8747H116.24V50.5216H108.213ZM118.479 50.5216V40.3433H123.835C124.587 40.3433 125.21 40.4719 125.705 40.729C126.199 40.9862 126.57 41.3522 126.817 41.827C127.065 42.3018 127.188 42.8607 127.188 43.5036C127.188 44.1663 127.04 44.7549 126.743 45.2692C126.446 45.7737 126.011 46.1545 125.437 46.4117L127.544 50.5216H125.437L123.568 46.7381H120.408V50.5216H118.479ZM120.408 45.1209H123.687C124.181 45.1209 124.562 44.9774 124.829 44.6906C125.096 44.4037 125.23 44.0081 125.23 43.5036C125.23 43.1772 125.17 42.9052 125.052 42.6876C124.933 42.46 124.76 42.2869 124.532 42.1682C124.305 42.0495 124.023 41.9902 123.687 41.9902H120.408V45.1209ZM131.614 50.5216V42.005H128.364V40.3433H136.807V42.005H133.543V50.5216H131.614ZM138.604 50.5216V40.3433H140.533V50.5216H138.604ZM143.088 50.5216V40.3433H150.403V41.9902H145.017V44.7203H149.869V46.3672H145.017V50.5216H143.088ZM152.427 50.5216V40.3433H154.355V50.5216H152.427ZM156.911 50.5216V40.3433H164.849V41.9902H158.84V44.4977H164.196V46.1446H158.84V48.8747H164.938V50.5216H156.911ZM167.176 50.5216V40.3433H171.256C172.285 40.3433 173.166 40.5263 173.897 40.8922C174.629 41.2582 175.193 41.8171 175.589 42.5689C175.985 43.3107 176.182 44.2652 176.182 45.4324C176.182 46.5897 175.985 47.5443 175.589 48.296C175.193 49.0478 174.629 49.6066 173.897 49.9726C173.166 50.3386 172.285 50.5216 171.256 50.5216H167.176ZM169.105 48.8747H171.256C171.731 48.8747 172.152 48.8054 172.518 48.667C172.884 48.5285 173.19 48.3257 173.438 48.0586C173.685 47.7817 173.873 47.4404 174.001 47.0349C174.13 46.6194 174.194 46.1397 174.194 45.5956V45.2841C174.194 44.7301 174.13 44.2504 174.001 43.8449C173.873 43.4294 173.685 43.0882 173.438 42.8211C173.19 42.5441 172.884 42.3364 172.518 42.1979C172.152 42.0594 171.731 41.9902 171.256 41.9902H169.105V48.8747ZM181.535 50.5216V40.3433H187.084C187.628 40.3433 188.113 40.4471 188.538 40.6549C188.973 40.8626 189.314 41.1544 189.562 41.5302C189.809 41.9061 189.933 42.3463 189.933 42.8508C189.933 43.2365 189.858 43.5877 189.71 43.9042C189.562 44.2207 189.359 44.4878 189.102 44.7054C188.854 44.9131 188.573 45.0714 188.256 45.1802V45.2396C188.632 45.3187 188.968 45.472 189.265 45.6995C189.562 45.9171 189.794 46.199 189.962 46.5452C190.13 46.8815 190.214 47.2723 190.214 47.7174C190.214 48.3504 190.071 48.8747 189.784 49.2901C189.507 49.7056 189.131 50.0171 188.657 50.2249C188.192 50.4227 187.667 50.5216 187.084 50.5216H181.535ZM183.464 48.8747H186.832C187.237 48.8747 187.569 48.7659 187.826 48.5483C188.093 48.3208 188.226 47.9696 188.226 47.4948C188.226 47.2179 188.172 46.9755 188.063 46.7678C187.954 46.5601 187.786 46.4018 187.559 46.293C187.341 46.1743 187.059 46.115 186.713 46.115H183.464V48.8747ZM183.464 44.4977H186.579C186.876 44.4977 187.123 44.4433 187.321 44.3345C187.529 44.2257 187.682 44.0773 187.781 43.8894C187.89 43.7014 187.944 43.4937 187.944 43.2662C187.944 42.831 187.826 42.5095 187.588 42.3018C187.361 42.0941 187.059 41.9902 186.683 41.9902H183.464V44.4977ZM195.028 50.5216V46.382L191.111 40.3433H193.336L196.022 44.6461H196.096L198.752 40.3433H200.859L196.957 46.382V50.5216H195.028ZM204.956 50.5216V40.3433H207.998L209.6 46.0111C209.659 46.2089 209.719 46.4315 209.778 46.6788C209.838 46.9261 209.892 47.1634 209.941 47.391C210.001 47.6185 210.045 47.8163 210.075 47.9844H210.194C210.213 47.8361 210.243 47.6531 210.283 47.4355C210.322 47.2179 210.367 46.9854 210.416 46.7381C210.476 46.4809 210.54 46.2336 210.609 45.9963L212.211 40.3433H215.223V50.5216H213.295V45.3731C213.295 44.9181 213.3 44.4631 213.309 44.0081C213.319 43.5531 213.329 43.1623 213.339 42.8359C213.359 42.5095 213.369 42.3166 213.369 42.2573H213.25C213.23 42.3463 213.181 42.5392 213.102 42.8359C213.023 43.1327 212.939 43.4541 212.849 43.8003C212.76 44.1465 212.681 44.4433 212.612 44.6906L210.935 50.5216H209.155L207.478 44.7054C207.419 44.4977 207.35 44.2504 207.271 43.9636C207.201 43.6668 207.127 43.3651 207.048 43.0585C206.979 42.7518 206.915 42.4848 206.855 42.2573H206.737C206.746 42.5243 206.756 42.8458 206.766 43.2217C206.776 43.5877 206.786 43.9636 206.796 44.3493C206.806 44.7252 206.811 45.0665 206.811 45.3731V50.5216H204.956ZM216.718 50.5216L220.68 40.3433H223.113L227.09 50.5216H224.997L224.181 48.3554H219.523L218.706 50.5216H216.718ZM220.131 46.7233H223.558L222.534 43.9636C222.495 43.8646 222.445 43.741 222.386 43.5926C222.337 43.4344 222.282 43.2662 222.223 43.0882C222.164 42.9002 222.104 42.7123 222.045 42.5243C221.986 42.3364 221.931 42.1682 221.882 42.0199H221.807C221.748 42.2177 221.674 42.4452 221.585 42.7024C221.506 42.9596 221.427 43.2019 221.348 43.4294C221.268 43.6569 221.204 43.835 221.155 43.9636L220.131 46.7233ZM228.588 50.5216V40.3433H230.517V50.5216H228.588ZM233.072 50.5216V40.3433H234.912L239.259 46.3523C239.309 46.4117 239.368 46.4958 239.437 46.6046C239.506 46.7035 239.571 46.8024 239.63 46.9013C239.689 47.0002 239.729 47.0794 239.749 47.1387H239.823C239.823 47.0002 239.823 46.8667 239.823 46.7381C239.823 46.6095 239.823 46.4809 239.823 46.3523V40.3433H241.678V50.5216H239.853L235.491 44.468C235.411 44.3493 235.317 44.2059 235.209 44.0377C235.11 43.8597 235.04 43.736 235.001 43.6668H234.927C234.927 43.7954 234.927 43.9289 234.927 44.0674C234.927 44.196 234.927 44.3295 234.927 44.468V50.5216H233.072ZM248.034 50.6997C247.47 50.6997 246.931 50.6403 246.417 50.5216C245.903 50.393 245.448 50.2001 245.052 49.943C244.656 49.6759 244.345 49.3495 244.117 48.9637C243.89 48.568 243.776 48.1031 243.776 47.569C243.776 47.5096 243.776 47.4503 243.776 47.391C243.786 47.3316 243.791 47.2871 243.791 47.2574H245.734C245.734 47.2772 245.73 47.3168 245.72 47.3761C245.72 47.4256 245.72 47.4701 245.72 47.5096C245.72 47.8361 245.814 48.118 246.002 48.3554C246.189 48.5829 246.461 48.7609 246.818 48.8895C247.174 49.0082 247.594 49.0676 248.079 49.0676C248.405 49.0676 248.692 49.0478 248.939 49.0082C249.196 48.9686 249.414 48.9142 249.592 48.845C249.78 48.7659 249.933 48.6768 250.052 48.5779C250.171 48.4691 250.255 48.3504 250.304 48.2218C250.364 48.0932 250.393 47.9548 250.393 47.8064C250.393 47.5195 250.304 47.2821 250.126 47.0942C249.948 46.9063 249.706 46.748 249.399 46.6194C249.103 46.4908 248.761 46.3771 248.375 46.2782C248 46.1694 247.609 46.0605 247.203 45.9517C246.808 45.8429 246.417 45.7143 246.031 45.566C245.655 45.4077 245.314 45.2198 245.007 45.0022C244.711 44.7845 244.473 44.5125 244.295 44.1861C244.117 43.8498 244.028 43.4492 244.028 42.9843C244.028 42.5095 244.127 42.0941 244.325 41.738C244.533 41.3819 244.82 41.0901 245.185 40.8626C245.561 40.6252 245.997 40.4521 246.491 40.3433C246.986 40.2246 247.525 40.1652 248.108 40.1652C248.652 40.1652 249.162 40.2246 249.637 40.3433C250.121 40.4521 250.547 40.6301 250.913 40.8774C251.279 41.1148 251.565 41.4214 251.773 41.7973C251.981 42.1633 252.085 42.6035 252.085 43.1178V43.2959H250.171V43.1475C250.171 42.8607 250.082 42.6183 249.904 42.4205C249.736 42.2227 249.493 42.0693 249.177 41.9605C248.87 41.8517 248.509 41.7973 248.094 41.7973C247.648 41.7973 247.268 41.8418 246.951 41.9309C246.635 42.01 246.392 42.1336 246.224 42.3018C246.056 42.46 245.972 42.6579 245.972 42.8953C245.972 43.1426 246.061 43.3503 246.239 43.5184C246.417 43.6866 246.654 43.83 246.951 43.9487C247.258 44.0674 247.599 44.1762 247.975 44.2751C248.361 44.374 248.751 44.4829 249.147 44.6016C249.553 44.7104 249.943 44.8389 250.319 44.9873C250.705 45.1357 251.046 45.3236 251.343 45.5511C251.65 45.7687 251.892 46.0408 252.07 46.3672C252.248 46.6936 252.337 47.0843 252.337 47.5393C252.337 48.301 252.149 48.9142 251.773 49.3791C251.407 49.844 250.898 50.1804 250.245 50.3881C249.602 50.5958 248.865 50.6997 248.034 50.6997ZM254.429 50.5216V40.3433H256.358V44.4829H261.106V40.3433H263.035V50.5216H261.106V46.1446H256.358V50.5216H254.429ZM264.539 50.5216L268.501 40.3433H270.934L274.911 50.5216H272.819L272.002 48.3554H267.344L266.528 50.5216H264.539ZM267.952 46.7233H271.379L270.356 43.9636C270.316 43.8646 270.267 43.741 270.207 43.5926C270.158 43.4344 270.103 43.2662 270.044 43.0882C269.985 42.9002 269.925 42.7123 269.866 42.5243C269.807 42.3364 269.752 42.1682 269.703 42.0199H269.629C269.569 42.2177 269.495 42.4452 269.406 42.7024C269.327 42.9596 269.248 43.2019 269.169 43.4294C269.089 43.6569 269.025 43.835 268.976 43.9636L267.952 46.7233ZM276.409 50.5216V40.3433H281.765C282.517 40.3433 283.14 40.4719 283.635 40.729C284.129 40.9862 284.5 41.3522 284.747 41.827C284.995 42.3018 285.118 42.8607 285.118 43.5036C285.118 44.1663 284.97 44.7549 284.673 45.2692C284.377 45.7737 283.941 46.1545 283.368 46.4117L285.474 50.5216H283.368L281.498 46.7381H278.338V50.5216H276.409ZM278.338 45.1209H281.617C282.111 45.1209 282.492 44.9774 282.759 44.6906C283.026 44.4037 283.16 44.0081 283.16 43.5036C283.16 43.1772 283.101 42.9052 282.982 42.6876C282.863 42.46 282.69 42.2869 282.463 42.1682C282.235 42.0495 281.953 41.9902 281.617 41.9902H278.338V45.1209ZM287.341 50.5216V40.3433H295.279V41.9902H289.27V44.4977H294.626V46.1446H289.27V48.8747H295.368V50.5216H287.341ZM301.405 50.6997C300.841 50.6997 300.302 50.6403 299.788 50.5216C299.273 50.393 298.818 50.2001 298.422 49.943C298.027 49.6759 297.715 49.3495 297.488 48.9637C297.26 48.568 297.146 48.1031 297.146 47.569C297.146 47.5096 297.146 47.4503 297.146 47.391C297.156 47.3316 297.161 47.2871 297.161 47.2574H299.105C299.105 47.2772 299.1 47.3168 299.09 47.3761C299.09 47.4256 299.09 47.4701 299.09 47.5096C299.09 47.8361 299.184 48.118 299.372 48.3554C299.56 48.5829 299.832 48.7609 300.188 48.8895C300.544 49.0082 300.965 49.0676 301.449 49.0676C301.776 49.0676 302.063 49.0478 302.31 49.0082C302.567 48.9686 302.785 48.9142 302.963 48.845C303.151 48.7659 303.304 48.6768 303.423 48.5779C303.541 48.4691 303.625 48.3504 303.675 48.2218C303.734 48.0932 303.764 47.9548 303.764 47.8064C303.764 47.5195 303.675 47.2821 303.497 47.0942C303.319 46.9063 303.076 46.748 302.77 46.6194C302.473 46.4908 302.132 46.3771 301.746 46.2782C301.37 46.1694 300.979 46.0605 300.574 45.9517C300.178 45.8429 299.788 45.7143 299.402 45.566C299.026 45.4077 298.685 45.2198 298.378 45.0022C298.081 44.7845 297.844 44.5125 297.666 44.1861C297.488 43.8498 297.399 43.4492 297.399 42.9843C297.399 42.5095 297.498 42.0941 297.695 41.738C297.903 41.3819 298.19 41.0901 298.556 40.8626C298.932 40.6252 299.367 40.4521 299.862 40.3433C300.356 40.2246 300.895 40.1652 301.479 40.1652C302.023 40.1652 302.532 40.2246 303.007 40.3433C303.492 40.4521 303.917 40.6301 304.283 40.8774C304.649 41.1148 304.936 41.4214 305.144 41.7973C305.351 42.1633 305.455 42.6035 305.455 43.1178V43.2959H303.541V43.1475C303.541 42.8607 303.452 42.6183 303.274 42.4205C303.106 42.2227 302.864 42.0693 302.547 41.9605C302.241 41.8517 301.88 41.7973 301.464 41.7973C301.019 41.7973 300.638 41.8418 300.322 41.9309C300.005 42.01 299.763 42.1336 299.595 42.3018C299.426 42.46 299.342 42.6579 299.342 42.8953C299.342 43.1426 299.431 43.3503 299.609 43.5184C299.788 43.6866 300.025 43.83 300.322 43.9487C300.628 44.0674 300.97 44.1762 301.345 44.2751C301.731 44.374 302.122 44.4829 302.518 44.6016C302.923 44.7104 303.314 44.8389 303.69 44.9873C304.075 45.1357 304.417 45.3236 304.713 45.5511C305.02 45.7687 305.262 46.0408 305.441 46.3672C305.619 46.6936 305.708 47.0843 305.708 47.5393C305.708 48.301 305.52 48.9142 305.144 49.3791C304.778 49.844 304.268 50.1804 303.616 50.3881C302.973 50.5958 302.236 50.6997 301.405 50.6997Z" fill="#F3DED4"/>
</svg>
