<svg width="275" height="312" viewBox="0 0 275 312" fill="none" xmlns="http://www.w3.org/2000/svg">
<path d="M139.265 8.59826L137.058 7.92823L134.852 8.59826L14.1978 45.2366L8.32264 47.0207L8.83727 53.1392L25.1486 247.07L25.5175 251.456L29.5072 253.316L133.85 301.956L137.125 303.483L140.376 301.904L240.5 253.264L244.29 251.422L244.733 247.233L265.263 53.3021L265.924 47.0604L259.918 45.2366L139.265 8.59826Z" fill="#FCFBF8" stroke="#CE6A45" stroke-width="15.1875"/>
<path fill-rule="evenodd" clip-rule="evenodd" d="M134.845 53.2341C134.716 53.3653 134.587 53.4954 134.422 53.5812L134.421 53.5819C134.417 53.5835 134.412 53.5851 134.408 53.5867C134.402 53.589 134.396 53.5914 134.389 53.5938C134.381 53.5969 134.373 53.6 134.365 53.6031C134.356 53.6065 134.347 53.6098 134.338 53.6131C134.34 53.5971 134.343 53.5814 134.345 53.5656C134.346 53.5597 134.347 53.5538 134.348 53.5479C134.35 53.538 134.351 53.5281 134.353 53.5181C134.364 53.4603 134.376 53.4025 134.388 53.3448L134.388 53.3447C134.42 53.1869 134.451 53.0292 134.487 52.8719C134.619 52.2826 134.593 52.2203 134.096 51.8864C133.986 51.812 133.88 51.7291 133.775 51.6462C133.728 51.6092 133.681 51.5723 133.634 51.536C133.613 51.5201 133.588 51.5057 133.562 51.4912C133.482 51.4448 133.398 51.3968 133.432 51.29C133.467 51.183 133.561 51.1955 133.651 51.2074C133.682 51.2115 133.713 51.2155 133.74 51.2145C134.608 51.1857 134.67 51.1359 134.848 50.285C134.851 50.27 134.852 50.2545 134.853 50.2389C134.853 50.2285 134.854 50.2182 134.855 50.2079C134.866 50.1277 134.894 50.0522 134.98 50.032C135.072 50.0109 135.121 50.0818 135.153 50.1534L135.154 50.156C135.186 50.2282 135.217 50.2966 135.356 50.3597C135.356 50.2616 135.357 50.1658 135.359 50.0717L135.359 50.0714C135.363 49.8609 135.367 49.6588 135.35 49.4582C135.324 49.1367 135.449 49.0152 135.764 49.0051C136.21 48.9907 136.655 48.9691 137.101 48.9474L137.101 48.9474C137.57 48.9247 138.039 48.9019 138.507 48.8876C139.562 48.8551 140.617 48.8208 141.672 48.7865L141.672 48.7865L141.672 48.7865L141.672 48.7865L141.673 48.7865C144.613 48.691 147.552 48.5955 150.493 48.5388C154.152 48.4687 157.81 48.4438 161.438 49.1125C162.952 49.3915 164.476 49.6038 166.001 49.8162L166.001 49.8162L166.001 49.8162L166.001 49.8162L166.001 49.8162C167.693 50.0519 169.385 50.2875 171.062 50.6143C171.36 50.6719 171.593 50.594 171.821 50.436L171.828 50.4311L171.84 50.4225L171.841 50.4223C171.961 50.3392 172.091 50.2496 172.072 50.074C172.053 49.8879 171.898 49.8303 171.749 49.7821C171.614 49.7385 171.478 49.7011 171.34 49.6684C169.59 49.2546 167.813 48.9971 166.036 48.7396C165.671 48.6866 165.305 48.6336 164.939 48.5793C164.424 48.5022 163.916 48.3917 163.447 48.1114C163.732 48.0736 164.015 48.0686 164.297 48.0637L164.298 48.0637C164.381 48.0622 164.464 48.0608 164.548 48.0585C164.58 48.0574 164.618 48.0635 164.657 48.0697C164.768 48.0875 164.886 48.1065 164.91 47.9596C164.943 47.7616 164.759 47.711 164.604 47.6682C164.594 47.6654 164.584 47.6626 164.574 47.6599C164.526 47.6465 164.475 47.643 164.423 47.6394L164.423 47.6394L164.423 47.6394L164.423 47.6394L164.423 47.6394C164.397 47.6376 164.37 47.6358 164.344 47.6326C163.983 47.5886 163.62 47.5486 163.258 47.5086L163.257 47.5085C162.441 47.4185 161.624 47.3284 160.816 47.192C158.713 46.8378 156.597 46.6494 154.471 46.5653C150.355 46.4027 146.24 46.4721 142.124 46.5416H142.124L142.124 46.5416C139.974 46.5779 137.824 46.6142 135.674 46.6174C135.346 46.6174 135.245 46.7763 135.263 47.0775C135.283 47.4138 135.294 47.7509 135.295 48.088C135.296 48.1219 135.302 48.1592 135.308 48.197L135.308 48.197C135.325 48.2965 135.342 48.3993 135.25 48.45C135.141 48.5105 135.076 48.4333 135.01 48.3558C134.98 48.3195 134.949 48.2832 134.914 48.2609C134.788 48.1813 134.671 48.0867 134.555 47.9928L134.542 47.9822C134.301 47.7852 134.081 47.8163 133.849 48.011C133.804 48.0484 133.757 48.1006 133.71 48.1533C133.596 48.2801 133.48 48.4098 133.383 48.3449C133.22 48.236 133.3 48.0302 133.37 47.8497L133.37 47.8496C133.389 47.8006 133.407 47.7534 133.42 47.7105C133.566 47.2122 133.474 46.8596 132.984 46.633C132.879 46.5844 132.787 46.5085 132.695 46.4329L132.695 46.4329L132.695 46.4329L132.695 46.4329L132.695 46.4329C132.656 46.4007 132.617 46.3687 132.577 46.3387C132.555 46.3222 132.529 46.3075 132.503 46.2925C132.422 46.2467 132.339 46.1993 132.362 46.0966C132.387 45.9843 132.479 45.9939 132.567 46.0032C132.6 46.0066 132.632 46.01 132.661 46.0071C132.78 45.9946 132.9 45.9884 133.02 45.9821C133.132 45.9763 133.244 45.9705 133.355 45.9596C133.655 45.93 133.69 45.6568 133.685 45.4653C133.679 45.2843 133.544 45.3168 133.422 45.3459C133.384 45.355 133.347 45.3637 133.316 45.3656C132.708 45.4022 132.106 45.3454 131.503 45.2887L131.501 45.2885L131.494 45.2878C131.22 45.2621 131.083 45.2492 131.029 45.3102C130.976 45.3707 131.004 45.5038 131.061 45.769L131.061 45.769L131.061 45.769L131.062 45.7728C131.066 45.7899 131.057 45.8097 131.046 45.8348C131.04 45.8485 131.033 45.8637 131.028 45.881C130.984 45.8482 130.941 45.815 130.899 45.782L130.899 45.782L130.899 45.782L130.899 45.7819L130.898 45.7819C130.635 45.5774 130.381 45.3811 130.04 45.3469C129.635 45.3062 129.369 45.5499 129.099 45.7974L129.099 45.7976C129.08 45.8148 129.061 45.832 129.042 45.8491C128.934 45.4808 128.914 45.4645 128.563 45.5011C128.394 45.5188 128.224 45.5382 128.054 45.5577C127.865 45.5793 127.676 45.6009 127.487 45.6202C127.465 45.6225 127.442 45.6228 127.419 45.6232H127.419C127.324 45.6248 127.23 45.6263 127.218 45.7603C127.205 45.916 127.316 45.9853 127.456 46.0157L127.466 46.0178L127.471 46.019L127.492 46.0236C127.568 46.0401 127.645 46.0569 127.716 46.0865C127.787 46.1163 127.874 46.1264 127.961 46.1365C128.128 46.1558 128.291 46.1746 128.319 46.3325C128.347 46.4945 128.139 46.6162 127.962 46.7194C127.925 46.7412 127.889 46.7622 127.857 46.7825C127.551 46.9779 127.527 47.2161 127.655 47.5143C127.677 47.5648 127.7 47.615 127.724 47.6651L127.724 47.6651L127.724 47.6652L127.724 47.6652L127.724 47.6652C127.82 47.8728 127.916 48.0805 127.915 48.32C127.92 48.3356 127.925 48.3514 127.931 48.3671C127.936 48.3829 127.941 48.3987 127.946 48.4142C127.931 48.4123 127.916 48.4101 127.9 48.408L127.9 48.408L127.9 48.408C127.885 48.4059 127.87 48.4037 127.854 48.4018C127.779 48.3448 127.702 48.2902 127.624 48.2355L127.624 48.2355L127.624 48.2355L127.624 48.2355L127.624 48.2355C127.448 48.1108 127.271 47.9861 127.122 47.8335C126.84 47.5431 126.631 47.533 126.374 47.8592C126.349 47.8911 126.323 47.9301 126.296 47.9708C126.195 48.1219 126.079 48.2962 125.936 48.2165C125.795 48.1382 125.866 47.9845 125.935 47.8342C125.963 47.7739 125.99 47.714 126.004 47.6599C126.101 47.2659 126.062 46.9016 125.751 46.6244C125.43 46.3395 125.071 46.0452 124.613 46.1963C124.289 46.3029 124.031 46.2508 123.779 46.0756C123.515 45.8919 123.257 45.6957 123.013 45.4855L123.008 45.4808C122.677 45.196 122.517 45.0577 122.378 45.0765C122.246 45.0941 122.134 45.2511 121.914 45.5561L121.902 45.5727C121.888 45.5929 121.872 45.6122 121.856 45.6314C121.839 45.6523 121.822 45.6731 121.806 45.6949C121.805 45.6968 121.804 45.6988 121.802 45.7007C121.801 45.7027 121.8 45.7047 121.798 45.7067L121.798 45.7068L121.798 45.7069C121.764 45.7573 121.729 45.8089 121.658 45.793C121.565 45.772 121.553 45.6918 121.549 45.6116C121.539 45.3866 121.605 45.1788 121.679 44.9701C121.815 44.5832 121.759 44.2656 121.365 44.0484C121.198 43.9566 121.044 43.8407 120.891 43.725C120.848 43.6925 120.805 43.6599 120.762 43.628C120.746 43.6168 120.73 43.6063 120.712 43.5955C120.641 43.5508 120.565 43.5033 120.595 43.3991C120.619 43.3172 120.688 43.3185 120.756 43.3197H120.756C120.781 43.3202 120.807 43.3206 120.83 43.3166C120.893 43.3049 120.958 43.2995 121.022 43.3018L121.047 43.3027H121.047C121.436 43.3172 121.621 43.324 121.735 43.2373C121.837 43.1592 121.883 43.0052 121.969 42.7126C121.993 42.6332 122.019 42.5435 122.051 42.4423C122.059 42.4178 122.061 42.3917 122.064 42.3656C122.067 42.3396 122.07 42.3135 122.077 42.289C122.14 42.092 122.25 42.1255 122.355 42.2469C122.401 42.2995 122.427 42.3714 122.452 42.4399L122.457 42.4532C122.695 43.0994 123.039 43.6155 123.822 43.6186C123.914 43.6186 124.009 43.6622 124.044 43.7518C124.084 43.8563 124.013 43.8988 123.945 43.9393C123.924 43.9519 123.903 43.9643 123.886 43.9783C123.817 44.036 123.744 44.0897 123.672 44.1435C123.589 44.2051 123.506 44.2667 123.427 44.3341C123.293 44.4493 123.211 44.6003 123.272 44.7833C123.327 44.9519 123.389 45.1185 123.45 45.285L123.45 45.285L123.45 45.2851L123.45 45.2851L123.45 45.2851L123.45 45.2853L123.45 45.2855L123.451 45.2856L123.451 45.2858C123.483 45.3728 123.515 45.4597 123.546 45.547C123.601 45.6996 123.686 45.8202 123.857 45.7167C124.448 45.3595 125.101 45.3217 125.761 45.2835L125.796 45.2815C126.072 45.266 126.339 45.1772 126.422 44.8557C126.495 44.57 126.6 44.6377 126.697 44.8315C126.783 45.0028 126.899 45.0986 127.093 45.0721C127.718 44.988 128.344 44.9032 128.969 44.8121C129.118 44.7903 129.238 44.7031 129.273 44.5497C129.307 44.4015 129.192 44.3179 129.092 44.2447L129.083 44.2383C128.837 44.059 128.586 43.8856 128.335 43.7119C128.3 43.6873 128.264 43.6627 128.229 43.6381L128.226 43.6358C128.161 43.5907 128.098 43.547 128.115 43.4552C128.134 43.3501 128.222 43.3454 128.295 43.3555C129.044 43.4567 129.487 43.1655 129.562 42.3793L129.563 42.3711C129.57 42.2945 129.582 42.1792 129.703 42.1807C129.778 42.1814 129.808 42.2446 129.836 42.3048C129.842 42.3169 129.848 42.329 129.853 42.3403C129.894 42.416 129.935 42.491 129.976 42.566L129.976 42.566C130.073 42.7403 130.169 42.9145 130.247 43.0963C130.374 43.3898 130.586 43.5494 130.89 43.5859C131.221 43.6256 131.508 43.7486 131.763 43.9643C132.071 44.2259 132.426 44.278 132.816 44.2002C133.36 44.092 133.905 43.9923 134.452 43.9051C134.507 43.8964 134.563 43.8827 134.619 43.8689C134.855 43.811 135.096 43.7517 135.274 44.0585C135.303 44.1075 135.443 44.1107 135.529 44.1044C136.978 44.0025 138.424 44.0684 139.87 44.1342C140.523 44.1639 141.177 44.1937 141.83 44.208C143.284 44.2392 144.738 44.2439 146.192 44.2486H146.192C148.504 44.256 150.815 44.2635 153.125 44.3777C155.752 44.5069 158.378 44.6774 160.981 45.0776C161.291 45.1253 161.601 45.1739 161.911 45.2225C162.976 45.3895 164.041 45.5565 165.111 45.6879C165.12 45.689 165.129 45.6902 165.138 45.6914L165.138 45.6914L165.138 45.6915L165.138 45.6915C165.27 45.7091 165.433 45.731 165.467 45.5571C165.502 45.3796 165.375 45.3695 165.26 45.3602C165.23 45.3578 165.2 45.3554 165.175 45.35C163.635 45.0293 162.121 44.6112 160.624 44.1301C160.598 44.122 160.57 44.1164 160.542 44.1107C160.449 44.092 160.351 44.0724 160.313 43.9565C160.349 43.882 160.411 43.8873 160.462 43.8918C160.469 43.8925 160.476 43.8931 160.483 43.8934C160.682 43.9058 160.882 43.92 161.081 43.9341C161.448 43.9602 161.815 43.9863 162.182 44.0009C162.224 44.0027 162.273 44.0145 162.324 44.0266C162.465 44.0605 162.617 44.0968 162.644 43.9254C162.667 43.7766 162.526 43.749 162.386 43.7216C162.328 43.7102 162.269 43.6988 162.224 43.6786C162.216 43.6751 162.208 43.6739 162.2 43.6726C162.195 43.6719 162.19 43.6712 162.186 43.67C158.955 42.8176 155.65 42.4493 152.332 42.2057C150.032 42.0364 147.727 42.0043 145.421 41.9723L145.421 41.9723L145.421 41.9723L145.421 41.9723L145.421 41.9723C144.386 41.958 143.352 41.9436 142.318 41.9168C140.284 41.8643 138.249 41.8454 136.214 41.8265C136.018 41.8247 135.823 41.8229 135.627 41.8211C135.275 41.818 135.137 41.6957 135.153 41.3407C135.167 41.0194 135.161 40.6971 135.154 40.3749V40.3748V40.3746V40.3745V40.3743C135.152 40.2815 135.15 40.1887 135.149 40.0959L135.149 40.0917C135.137 39.2792 135.137 39.2715 135.965 39.3166C140.368 39.5564 144.771 39.8001 149.174 40.0453C149.194 40.0464 149.214 40.0489 149.234 40.0514C149.318 40.0619 149.4 40.0722 149.446 39.9729C149.506 39.8437 149.418 39.7464 149.334 39.6693C149.175 39.524 148.971 39.4994 148.767 39.4748L148.759 39.4739L148.758 39.4738L148.758 39.4738L148.758 39.4738C146.108 39.1585 143.458 38.8433 140.809 38.5233C140.792 38.5212 140.772 38.5219 140.752 38.5227C140.675 38.5255 140.587 38.5287 140.585 38.3824C141.177 38.3219 141.767 38.363 142.356 38.4042C142.889 38.4413 143.421 38.4785 143.954 38.4408C143.345 38.1457 142.723 37.9192 142.047 37.8748C139.924 37.7363 137.798 37.6522 135.671 37.5907C135.263 37.579 134.885 37.4965 134.516 37.3221C134.073 37.1127 133.62 36.9173 133.127 36.8667C132.8 36.8332 132.677 36.992 132.771 37.3073C132.818 37.4625 132.868 37.6167 132.918 37.7709L132.918 37.7714L132.918 37.772L132.919 37.7724L132.919 37.7728C132.952 37.8762 132.986 37.9797 133.018 38.0835C133.026 38.1083 133.039 38.1344 133.053 38.1608C133.09 38.2337 133.128 38.3089 133.056 38.3661C132.961 38.4414 132.898 38.3704 132.84 38.3035C132.818 38.279 132.797 38.2552 132.775 38.2392C132.568 38.0866 132.36 37.9293 132.179 37.7464C131.957 37.5229 131.799 37.5704 131.599 37.7814C131.565 37.8167 131.533 37.8548 131.501 37.8934L131.501 37.8934C131.375 38.0438 131.241 38.2025 130.994 38.2384C131.01 38.1521 131.024 38.0688 131.038 37.9878L131.039 37.9872L131.039 37.987C131.069 37.8134 131.097 37.6504 131.137 37.4902C131.312 36.7826 131.069 36.4914 130.35 36.6253C129.065 36.865 127.769 36.996 126.472 37.127C126.244 37.1501 126.016 37.1731 125.788 37.1968C125.457 37.231 125.349 37.3945 125.429 37.6888C125.48 37.8788 125.546 38.0645 125.613 38.2504C125.65 38.3568 125.688 38.4634 125.724 38.5708C125.726 38.5777 125.728 38.5847 125.731 38.5919L125.731 38.592C125.754 38.6579 125.78 38.7341 125.706 38.7826C125.634 38.829 125.577 38.78 125.522 38.7328C125.516 38.7278 125.51 38.7228 125.505 38.7179C125.42 38.6471 125.335 38.5777 125.25 38.5083L125.25 38.5083L125.25 38.5083C125.095 38.3816 124.94 38.2551 124.792 38.1208C124.622 37.9667 124.491 37.9667 124.335 38.1403C124.22 38.2677 124.095 38.3853 123.955 38.5167L123.955 38.5167L123.955 38.5168L123.955 38.5169L123.955 38.5172C123.889 38.5792 123.82 38.6443 123.747 38.7148C123.699 38.3773 123.767 38.1243 123.835 37.8726L123.835 37.872L123.835 37.8716L123.835 37.8713L123.835 37.8711C123.84 37.8534 123.845 37.8357 123.85 37.818C123.904 37.6171 123.902 37.4023 123.604 37.4186C123.008 37.4519 122.413 37.4949 121.819 37.538L121.819 37.538L121.818 37.538L121.818 37.538L121.818 37.5381C121.744 37.5434 121.671 37.5488 121.597 37.5541C121.463 37.5634 121.344 37.5907 121.37 37.7845C121.433 38.2586 122.066 38.957 122.54 39.0885C122.59 39.1023 122.65 39.1021 122.71 39.1019C122.844 39.1014 122.978 39.101 122.998 39.2528C123.015 39.3732 122.898 39.4468 122.781 39.5203C122.729 39.5528 122.678 39.5853 122.638 39.6218L122.632 39.6269C122.596 39.6596 122.558 39.6938 122.515 39.716C122.233 39.8639 122.188 40.0757 122.306 40.3653C122.333 40.4325 122.363 40.4992 122.393 40.5661C122.504 40.8123 122.617 41.063 122.606 41.3672C122.299 41.2322 122.075 41.0195 121.856 40.8103C121.825 40.7806 121.794 40.7511 121.762 40.7218C121.528 40.5031 121.323 40.4906 121.103 40.7366C121.086 40.7548 121.07 40.7733 121.054 40.7918L121.054 40.7918C120.919 40.944 120.78 41.101 120.546 41.185C120.553 41.1251 120.556 41.0672 120.559 41.0116C120.566 40.8966 120.572 40.7916 120.609 40.6992C120.878 40.0352 120.683 39.593 120.042 39.2855C120.022 39.2759 119.999 39.2659 119.975 39.2553L119.975 39.2553C119.802 39.1779 119.557 39.0684 119.627 38.8596C119.668 38.7347 119.845 38.7518 120.015 38.7681C120.079 38.7743 120.142 38.7804 120.197 38.7787L120.198 38.7786C120.79 38.7608 120.801 38.7604 120.96 38.187C120.972 38.1434 120.981 38.099 120.991 38.0547C121 38.0103 121.01 37.9659 121.022 37.9223C121.085 37.6864 121.009 37.5844 120.756 37.6008C120.049 37.6459 119.34 37.6833 118.632 37.7168C118.316 37.7316 118.229 37.8632 118.328 38.1714C118.353 38.2485 118.383 38.3243 118.414 38.4019C118.496 38.6079 118.583 38.826 118.58 39.1111C118.473 39.0222 118.37 38.9383 118.27 38.8574C118.048 38.6761 117.843 38.5094 117.646 38.3334C117.447 38.1535 117.291 38.1746 117.125 38.3723C117.011 38.5087 116.891 38.6401 116.765 38.7787L116.764 38.7787L116.764 38.7787C116.705 38.8441 116.643 38.9112 116.581 38.9811C116.489 38.7526 116.538 38.5743 116.585 38.403L116.585 38.403L116.585 38.403L116.585 38.403L116.585 38.403C116.595 38.3653 116.605 38.328 116.614 38.2906C116.666 38.0624 116.591 37.9426 116.341 37.955L116.284 37.9579C115.838 37.9801 115.394 38.0023 114.958 38.1076C114.434 38.2345 114.355 38.5148 114.732 38.9165C114.843 39.0348 114.981 39.0893 115.139 39.1204C115.196 39.1318 115.26 39.1393 115.325 39.1469C115.541 39.1724 115.772 39.1997 115.82 39.3758C115.863 39.5331 115.678 39.6397 115.503 39.7403C115.441 39.7761 115.38 39.8112 115.331 39.8476C115.084 40.0313 115.016 40.2135 115.141 40.5077C115.148 40.5255 115.156 40.5432 115.164 40.561C115.287 40.8516 115.414 41.1504 115.444 41.5011C115.217 41.4042 115.052 41.2616 114.892 41.1233L114.892 41.1233L114.892 41.1233L114.892 41.1233L114.892 41.1233C114.836 41.0749 114.781 41.0271 114.724 40.9818C114.235 40.5957 114.174 40.6019 113.749 41.0729C113.727 41.0965 113.708 41.1277 113.688 41.1595C113.63 41.2537 113.569 41.3539 113.437 41.2823C113.311 41.2137 113.35 41.0975 113.387 40.9866C113.397 40.9554 113.408 40.9246 113.414 40.8954C113.424 40.8493 113.436 40.8037 113.447 40.7582L113.447 40.7582C113.455 40.7285 113.462 40.6987 113.469 40.6689C113.637 39.9698 113.554 39.8133 112.933 39.4474C112.671 39.294 112.506 39.3641 112.331 39.5603C112.163 39.7499 112.046 39.9707 111.929 40.1915C111.883 40.2789 111.837 40.3662 111.787 40.4517C111.698 40.6066 111.763 40.7016 111.9 40.7584C112.314 40.9328 112.482 41.2831 112.577 41.6895C112.613 41.8424 112.648 41.9954 112.684 42.1483L112.684 42.1485L112.684 42.1486C112.778 42.549 112.872 42.9493 112.968 43.3493C112.973 43.3724 112.978 43.3971 112.982 43.4223C113.002 43.5306 113.024 43.6473 113.134 43.677C113.54 43.7868 113.959 43.7736 114.356 43.6521C114.545 43.5939 114.575 43.4234 114.605 43.2539C114.617 43.1855 114.629 43.1172 114.652 43.0566C114.672 43.002 114.678 42.9361 114.684 42.8704C114.696 42.7278 114.709 42.5861 114.868 42.5638C115.044 42.5391 115.084 42.6816 115.124 42.8226C115.14 42.882 115.157 42.9411 115.184 42.9873C115.225 43.0602 115.265 43.1358 115.304 43.2114C115.514 43.6156 115.723 44.0168 116.318 43.9814C116.474 43.9721 116.666 43.9892 116.707 44.1636C116.742 44.3133 116.619 44.3836 116.503 44.4493C116.478 44.4635 116.453 44.4775 116.43 44.4921C115.899 44.8339 115.855 44.9795 116.094 45.5789C116.107 45.6104 116.12 45.6419 116.134 45.6735C116.217 45.8701 116.303 46.074 116.269 46.3496C116.171 46.2705 116.078 46.1967 115.987 46.1255L115.987 46.1255L115.987 46.1255L115.987 46.1255C115.793 45.9733 115.614 45.8327 115.45 45.6762C115.191 45.4302 114.988 45.4614 114.772 45.7222C114.757 45.74 114.742 45.7581 114.728 45.7762C114.607 45.9256 114.483 46.078 114.281 46.1363C114.19 46.009 114.228 45.8907 114.265 45.7741C114.282 45.7195 114.3 45.6654 114.303 45.6108C114.314 45.48 114.315 45.4154 114.147 45.4629C113.565 45.628 113.318 45.9643 113.439 46.5528C113.598 47.3305 113.576 48.095 113.393 48.8611C113.354 49.0207 113.345 49.1647 113.49 49.2838L113.493 49.286C113.842 49.5725 114.192 49.8587 114.641 49.9775C114.662 49.9831 114.684 49.9894 114.706 49.9957C114.884 50.0469 115.065 50.0991 115.163 49.8459C115.263 49.5867 115.225 49.3648 114.976 49.2029C114.717 49.0339 114.461 48.8595 114.207 48.6844C114.198 48.6783 114.189 48.6722 114.179 48.6661C114.102 48.615 114.017 48.5594 114.058 48.4454C114.089 48.3589 114.159 48.3666 114.228 48.3743C114.25 48.3767 114.273 48.3792 114.293 48.3784C114.913 48.3535 115.323 48.0372 115.523 47.4294C115.529 47.4104 115.533 47.3888 115.537 47.3667C115.55 47.2964 115.564 47.2218 115.647 47.2153C115.764 47.2065 115.804 47.3143 115.838 47.4061C115.84 47.4119 115.842 47.4176 115.844 47.4232C116.139 48.2071 116.617 48.7677 117.558 48.7895C117.424 49.022 117.235 49.1509 117.053 49.2752C116.991 49.3178 116.93 49.3598 116.872 49.4053C116.701 49.5392 116.619 49.6684 116.735 49.8981C116.836 50.1023 116.902 50.3262 116.966 50.5474L116.966 50.5474C116.974 50.575 116.982 50.6024 116.99 50.6299C116.997 50.6523 117.009 50.6763 117.021 50.7008C117.057 50.7733 117.095 50.851 117.009 50.9109C116.909 50.981 116.842 50.9113 116.778 50.8453C116.759 50.8256 116.74 50.8062 116.721 50.791C116.607 50.7008 116.497 50.6077 116.386 50.5146L116.386 50.5145C116.289 50.4332 116.192 50.3519 116.094 50.2725C116.076 50.2586 116.059 50.2426 116.042 50.2263C115.963 50.1533 115.881 50.0762 115.765 50.1736C115.658 50.2639 115.716 50.3828 115.765 50.4823L115.771 50.4952C115.984 50.9366 116.008 51.3796 115.844 51.8482C115.735 52.1651 115.772 52.4889 115.965 52.7785C115.972 52.7885 115.978 52.7988 115.985 52.8093C116.035 52.8874 116.088 52.9709 116.193 52.9537C116.277 52.9402 116.299 52.8609 116.32 52.7859C116.324 52.7698 116.329 52.7538 116.334 52.7388C116.344 52.7058 116.349 52.6672 116.353 52.6283C116.365 52.5204 116.378 52.4108 116.525 52.4165C116.652 52.4215 116.695 52.5374 116.737 52.6506C116.748 52.6784 116.758 52.706 116.769 52.7318L116.779 52.7546C116.955 53.1508 117.125 53.5373 117.65 53.603C119.224 53.7999 120.8 53.9696 122.391 53.9408C122.549 53.9377 122.789 53.9221 122.81 53.8062C122.876 53.4357 123.119 53.4568 123.338 53.4758C123.396 53.4808 123.452 53.4857 123.503 53.4831C123.921 53.4613 124.187 53.3507 124.234 52.8821C124.248 52.742 124.305 52.6065 124.366 52.4621C124.395 52.3939 124.425 52.3236 124.451 52.2499C124.62 52.3865 124.705 52.5608 124.787 52.7301C124.835 52.8292 124.883 52.9266 124.946 53.0136C124.956 53.0286 124.967 53.0439 124.977 53.0592L124.977 53.0592C125.033 53.1425 125.086 53.2226 125.204 53.2114L125.28 53.204L125.28 53.204C125.767 53.1566 126.254 53.1093 126.74 53.0487C126.911 53.0269 127.051 52.9334 127.11 52.7489C127.309 52.1277 127.294 52.0779 126.763 51.6878C126.723 51.6584 126.682 51.6301 126.641 51.6019C126.543 51.5344 126.445 51.4671 126.362 51.3842C126.327 51.3496 126.276 51.3254 126.224 51.3015C126.124 51.2545 126.025 51.2083 126.059 51.0845C126.103 50.9288 126.233 50.9511 126.358 50.9725C126.408 50.981 126.456 50.9893 126.498 50.9864C127.139 50.9428 127.227 50.8852 127.43 50.2671C127.431 50.2635 127.433 50.26 127.434 50.2565C127.437 50.2472 127.44 50.238 127.443 50.2287C127.446 50.22 127.449 50.2113 127.453 50.2025C127.471 50.151 127.489 50.0993 127.5 50.046C127.503 50.0307 127.505 50.0149 127.507 49.9991L127.507 49.9991C127.52 49.9109 127.534 49.8218 127.653 49.8179C127.781 49.814 127.819 49.9269 127.852 50.0242C128.096 50.7482 128.497 51.2877 129.332 51.3523C129.525 51.3671 129.542 51.4847 129.395 51.6045C129.214 51.7509 129.032 51.8957 128.84 52.0249C128.663 52.1425 128.662 52.2943 128.714 52.4671C128.771 52.6547 128.897 52.7443 129.092 52.7256C129.121 52.7228 129.15 52.7201 129.178 52.7174C129.317 52.7044 129.455 52.6914 129.591 52.6656C130.026 52.5833 130.461 52.4991 130.895 52.4148L130.895 52.4148L130.896 52.4148L130.896 52.4148L130.896 52.4147C131.283 52.3396 131.671 52.2645 132.059 52.1908C132.082 52.1863 132.108 52.1781 132.134 52.1698C132.221 52.1418 132.314 52.112 132.371 52.2164C132.422 52.3073 132.353 52.3647 132.289 52.4188C132.27 52.4347 132.252 52.4503 132.237 52.4663C132.063 52.6516 132.048 52.8626 132.153 53.0775C132.234 53.2437 132.328 53.4036 132.421 53.5637L132.421 53.5638L132.421 53.5638C132.452 53.6152 132.482 53.6666 132.511 53.7182C132.571 53.8217 132.651 53.9097 132.776 53.926C132.885 53.9404 132.994 53.9589 133.103 53.9775C133.365 54.022 133.628 54.0666 133.887 54.0545C135.059 54 136.233 53.9416 137.399 53.8155C140.783 53.4501 144.177 53.2038 147.571 52.9575L147.571 52.9575L147.571 52.9575L147.571 52.9575L147.571 52.9574L147.998 52.9264C152.433 52.6041 156.865 52.6353 161.286 53.1071C161.609 53.1416 161.933 53.1764 162.256 53.2112L162.256 53.2112C164.29 53.4301 166.324 53.649 168.365 53.7914C168.637 53.81 168.908 53.8248 169.173 53.7197C168.531 53.5489 167.878 53.4369 167.225 53.3252C166.424 53.1879 165.624 53.0508 164.847 52.805C165.249 52.7147 165.648 52.7155 166.047 52.7513C166.799 52.8191 167.542 52.9441 168.285 53.0691C168.762 53.1493 169.239 53.2296 169.718 53.2947C169.768 53.3015 169.819 53.3105 169.869 53.3196C170.05 53.3518 170.231 53.3843 170.406 53.318C170.542 53.2666 170.736 53.1896 170.734 53.03C170.733 52.9004 170.606 52.8735 170.487 52.8483C170.456 52.8418 170.426 52.8355 170.399 52.8276C166.961 51.8311 163.441 51.3741 159.877 51.2044C159.436 51.1834 159.012 51.1008 158.602 50.9241C158.172 50.7388 157.717 50.64 157.246 50.6454C156.002 50.6606 154.758 50.6768 153.513 50.6929L153.508 50.693L153.508 50.693L153.508 50.693L153.507 50.693C152.265 50.7091 151.023 50.7252 149.78 50.7404C149.507 50.7435 149.276 50.8253 149.098 51.0401C148.824 51.3687 148.483 51.4481 148.089 51.3017C147.927 51.2418 147.77 51.2114 147.599 51.2604C146.659 51.528 145.693 51.5805 144.727 51.633C144.535 51.6434 144.342 51.6539 144.15 51.666C144.144 51.6665 144.137 51.6669 144.13 51.6673C143.999 51.6759 143.861 51.6849 143.742 51.5656C143.884 51.4501 144.061 51.4043 144.241 51.3575C144.501 51.2902 144.769 51.221 144.952 50.9389C144.89 50.9389 144.833 50.9382 144.78 50.9375H144.78H144.78H144.78C144.677 50.9362 144.589 50.9351 144.501 50.9397L144.391 50.9457C141.673 51.0932 138.954 51.2407 136.236 51.3912C135.367 51.4401 135.367 51.4449 135.365 52.2969L135.365 52.3083C135.365 52.3617 135.372 52.423 135.38 52.4852C135.399 52.6452 135.419 52.811 135.312 52.8626C135.124 52.9523 134.984 53.0938 134.845 53.2341ZM124.405 41.4662C124.153 41.2971 123.896 41.1246 123.667 40.8783H123.666C123.912 40.8122 124.131 40.8228 124.344 40.8332L124.344 40.8332C124.372 40.8345 124.4 40.8359 124.427 40.837C124.775 40.8518 124.995 40.728 125.06 40.3637C125.097 40.1613 125.15 39.9597 125.215 39.7643C125.272 39.5938 125.377 39.5603 125.477 39.7355C125.492 39.76 125.506 39.7846 125.52 39.8092C125.61 39.9631 125.701 40.1185 125.761 40.2843C125.946 40.7872 126.296 41.0558 126.82 41.1173C126.845 41.1202 126.872 41.1215 126.9 41.1229C127.019 41.1286 127.15 41.1349 127.181 41.2746C127.207 41.3882 127.114 41.4377 127.025 41.4855C126.993 41.5022 126.962 41.5187 126.937 41.5377C126.349 41.9775 126.32 42.0858 126.62 42.8503C126.646 42.9157 126.677 42.9786 126.708 43.0415L126.708 43.0415L126.708 43.0415L126.708 43.0416L126.708 43.0416L126.708 43.0416C126.729 43.0827 126.749 43.1237 126.768 43.1655C126.797 43.2286 126.797 43.2924 126.742 43.343C126.669 43.4108 126.598 43.3765 126.538 43.322C126.439 43.2331 126.342 43.1431 126.244 43.0531C126.171 42.9856 126.097 42.9181 126.024 42.851C125.737 42.5902 125.467 42.5832 125.18 42.8689C125.152 42.8976 125.124 42.9291 125.096 42.9611C125 43.0717 124.899 43.1885 124.722 43.2138C124.677 42.9362 124.748 42.6894 124.819 42.4463C124.833 42.3956 124.848 42.345 124.861 42.2944C124.942 41.9931 124.861 41.779 124.599 41.5976C124.535 41.5533 124.47 41.5099 124.405 41.4662ZM119.873 49.9161C119.898 49.8461 119.925 49.7732 119.953 49.6956C120.191 49.8615 120.294 50.0857 120.355 50.2935C120.539 50.9148 120.948 51.2021 121.567 51.2418C121.67 51.248 121.783 51.2659 121.802 51.3975C121.814 51.4858 121.753 51.5289 121.692 51.5726C121.678 51.582 121.665 51.5915 121.652 51.6014C120.978 52.1324 120.971 52.1612 121.276 52.9568C121.303 53.0273 121.336 53.0957 121.368 53.1641C121.374 53.1773 121.381 53.1904 121.387 53.2036C121.43 53.2939 121.436 53.3889 121.351 53.448C121.263 53.5088 121.178 53.4519 121.109 53.3897C121.057 53.343 121.007 53.2944 120.957 53.2459L120.957 53.2459L120.957 53.2459C120.869 53.1602 120.78 53.0747 120.683 52.9996C120.251 52.6641 120.174 52.6765 119.764 53.0448C119.733 53.0726 119.703 53.1114 119.672 53.1506C119.598 53.2476 119.521 53.3473 119.417 53.2908C119.259 53.2036 119.35 52.9591 119.404 52.8322C119.708 52.1246 119.39 51.7213 118.799 51.4006C118.771 51.3854 118.739 51.3703 118.705 51.3544C118.545 51.2786 118.351 51.1868 118.415 50.9981C118.458 50.871 118.618 50.8893 118.773 50.9069H118.773H118.773H118.773H118.773C118.834 50.9138 118.894 50.9206 118.945 50.9187L118.966 50.9179C119.553 50.8954 119.553 50.8954 119.733 50.3161C119.774 50.1853 119.821 50.0566 119.873 49.9163L119.873 49.9162L119.873 49.9162L119.873 49.9161ZM120.338 47.9668C120.404 48.1115 120.471 48.2601 120.428 48.4516C120.1 48.2523 119.816 48.0149 119.55 47.7611C119.33 47.5516 119.153 47.5766 118.962 47.7891C118.931 47.8234 118.901 47.859 118.871 47.8948C118.747 48.043 118.619 48.1941 118.415 48.2725C118.331 47.9826 118.422 47.7298 118.507 47.4899C118.519 47.4586 118.53 47.4276 118.54 47.3967C118.655 47.0643 118.546 46.8479 118.293 46.6626C118.16 46.5647 118.026 46.4685 117.891 46.3724L117.891 46.3724C117.774 46.2889 117.658 46.2054 117.542 46.1208C117.537 46.1171 117.532 46.1135 117.527 46.1099C117.48 46.0765 117.429 46.0399 117.44 45.9697C117.457 45.8677 117.549 45.8537 117.618 45.8662C118.435 46.0102 118.824 45.6241 118.902 44.8362C118.907 44.7904 118.94 44.7473 118.975 44.7012L118.975 44.7011L118.975 44.7011L118.975 44.7011L118.975 44.7011C118.992 44.6784 119.01 44.6549 119.026 44.6299C119.221 44.7833 119.336 44.9826 119.395 45.2076C119.55 45.7969 119.946 46.0849 120.526 46.1558C120.546 46.1583 120.567 46.16 120.588 46.1616C120.698 46.1701 120.81 46.1789 120.847 46.3099C120.878 46.4264 120.796 46.4731 120.716 46.5184L120.716 46.5184C120.693 46.5315 120.67 46.5445 120.65 46.5591C120.079 46.9787 120.027 47.1639 120.283 47.8397C120.299 47.8824 120.318 47.9244 120.338 47.9668ZM134.241 43.4404C134.24 43.47 134.239 43.5089 134.239 43.5626V43.5618C134.134 43.4727 134.035 43.3892 133.939 43.309L133.939 43.3088L133.939 43.3088L133.938 43.3081L133.938 43.3081C133.733 43.1356 133.546 42.9782 133.365 42.8137C133.138 42.6066 132.957 42.5941 132.755 42.8549C132.739 42.8759 132.722 42.8988 132.703 42.9229C132.56 43.1122 132.365 43.3708 132.242 43.2893C132.085 43.1859 132.163 42.9865 132.237 42.7951C132.264 42.7257 132.291 42.6573 132.305 42.5949L132.313 42.5624C132.453 41.976 132.453 41.9734 131.944 41.614C131.754 41.4801 131.566 41.3446 131.383 41.2022C131.368 41.1908 131.351 41.1804 131.332 41.1698C131.271 41.134 131.206 41.0955 131.237 41.006C131.265 40.9256 131.343 40.9171 131.417 40.9091C131.435 40.9072 131.452 40.9053 131.469 40.9024C131.531 40.8908 131.596 40.883 131.661 40.883C132.442 40.8824 132.452 40.8411 132.553 40.4319C132.578 40.3282 132.61 40.2008 132.661 40.0445C132.67 40.017 132.676 39.9869 132.682 39.9568C132.703 39.8558 132.725 39.7543 132.851 39.7471C132.947 39.7414 132.975 39.8187 133.002 39.8967C133.016 39.9347 133.029 39.9729 133.051 40.0017C133.104 40.0725 133.141 40.1582 133.174 40.2423C133.384 40.7857 133.711 41.1757 134.343 41.2131C134.356 41.2138 134.37 41.2142 134.384 41.2147C134.496 41.2185 134.644 41.2236 134.677 41.3555C134.706 41.4706 134.611 41.5283 134.523 41.582C134.495 41.5987 134.469 41.6151 134.446 41.6327L134.438 41.6393C133.833 42.1216 133.832 42.1219 134.089 42.8689C134.144 43.0278 134.191 43.1881 134.237 43.3493C134.243 43.3706 134.243 43.394 134.241 43.4403V43.4404ZM124.813 51.0729C124.754 50.7032 124.663 50.4661 124.561 50.2289C124.299 49.6225 124.344 49.494 124.882 49.1476C124.913 49.1277 124.951 49.1115 124.989 49.095C125.1 49.0469 125.217 48.9968 125.179 48.8479C125.138 48.6898 124.987 48.6789 124.844 48.6686C124.812 48.6663 124.781 48.664 124.751 48.6602C124.325 48.605 124.012 48.4088 123.837 47.9899C123.717 47.7042 123.587 47.4138 123.353 47.1678C123.339 47.1967 123.324 47.2223 123.311 47.2458L123.311 47.2458L123.311 47.2458C123.285 47.2921 123.263 47.3305 123.26 47.3703C123.195 48.2157 122.721 48.5185 121.923 48.4064L121.92 48.406C121.865 48.3982 121.784 48.387 121.762 48.4687C121.738 48.5579 121.804 48.6045 121.866 48.6485L121.871 48.6524C121.927 48.6925 121.982 48.7355 122.036 48.7784L122.036 48.7784L122.036 48.7784L122.036 48.7785L122.036 48.7785C122.156 48.8722 122.275 48.966 122.408 49.03C122.881 49.2589 122.958 49.6131 122.837 50.0896C122.824 50.14 122.805 50.1977 122.785 50.2577C122.718 50.4624 122.641 50.6936 122.765 50.7544C122.916 50.8276 123.064 50.6359 123.195 50.4656C123.231 50.4186 123.265 50.3733 123.299 50.3356C123.504 50.102 123.662 50.1129 123.878 50.3044C124.066 50.4713 124.261 50.6283 124.481 50.8046L124.481 50.8046C124.586 50.8886 124.696 50.977 124.813 51.0729ZM130.404 50.8046C130.334 50.8787 130.258 50.9591 130.11 50.9778H130.108C130.128 50.8723 130.144 50.7678 130.161 50.6645V50.6645L130.161 50.6645L130.161 50.6645L130.161 50.6645L130.161 50.6645L130.161 50.6645C130.198 50.4317 130.234 50.2052 130.299 49.9868C130.394 49.6692 130.299 49.4668 130.04 49.2971C129.871 49.1871 129.708 49.0694 129.545 48.9516L129.545 48.9516L129.545 48.9516L129.545 48.9515L129.545 48.9515C129.478 48.9033 129.411 48.8551 129.344 48.8074C129.33 48.7972 129.314 48.7874 129.298 48.7774C129.223 48.7307 129.143 48.6806 129.179 48.5793C129.213 48.4865 129.299 48.4937 129.381 48.5005C129.407 48.5026 129.432 48.5047 129.455 48.5038C129.488 48.5024 129.521 48.5007 129.554 48.499C129.689 48.4922 129.824 48.4853 129.957 48.4991C130.323 48.5365 130.482 48.3333 130.521 48.011C130.55 47.7603 130.618 47.5322 130.787 47.3095C131.024 47.5104 131.141 47.7914 131.233 48.0507C131.407 48.5349 131.736 48.7435 132.214 48.7887C132.23 48.7901 132.245 48.7914 132.261 48.7928C132.417 48.8056 132.596 48.8203 132.627 48.9981C132.653 49.137 132.533 49.1974 132.419 49.2547C132.385 49.2716 132.353 49.2881 132.324 49.3064C131.781 49.6536 131.742 49.8062 132.003 50.4687C132.022 50.517 132.052 50.5695 132.083 50.623C132.168 50.7705 132.257 50.9252 132.13 51.0183C131.985 51.125 131.887 50.9916 131.792 50.8618C131.752 50.8079 131.713 50.7546 131.672 50.7194C131.093 50.2328 131.009 50.2297 130.455 50.7521C130.437 50.7685 130.421 50.7863 130.404 50.8045L130.404 50.8046ZM119.474 43.8748C119.435 43.5716 119.353 43.3549 119.271 43.1404C119.267 43.1278 119.262 43.1151 119.257 43.1025C119.09 42.6645 119.192 42.3069 119.562 42.0297C119.567 42.0257 119.573 42.0219 119.578 42.0181C119.594 42.007 119.61 41.996 119.622 41.9814C119.652 41.9482 119.695 41.9227 119.738 41.8974C119.825 41.8462 119.91 41.7955 119.882 41.6825C119.85 41.5506 119.715 41.5413 119.594 41.5328C119.567 41.531 119.541 41.5291 119.516 41.526C118.985 41.4567 118.605 41.2138 118.449 40.6658C118.414 40.5432 118.346 40.4295 118.279 40.3159L118.279 40.3159L118.279 40.3159C118.253 40.2723 118.227 40.2287 118.203 40.1847C118.198 40.1752 118.193 40.1653 118.187 40.1551L118.187 40.1551L118.187 40.1551L118.187 40.1551C118.158 40.0958 118.125 40.0314 118.043 40.0461C117.96 40.0609 117.929 40.127 117.911 40.2119C117.895 40.287 117.873 40.3615 117.851 40.4358C117.817 40.5477 117.783 40.6595 117.772 40.7732C117.738 41.1461 117.517 41.245 117.193 41.2387C117.16 41.2381 117.128 41.2372 117.095 41.2363L117.095 41.2363C116.876 41.2303 116.653 41.2242 116.41 41.3034C116.588 41.5435 116.814 41.6882 117.034 41.829L117.034 41.829L117.034 41.829L117.034 41.829C117.139 41.8968 117.244 41.9637 117.341 42.0398C117.563 42.2142 117.642 42.3995 117.576 42.6751C117.567 42.7108 117.558 42.7464 117.549 42.7822L117.549 42.7825C117.479 43.0659 117.408 43.3542 117.412 43.6825C117.628 43.5722 117.774 43.4118 117.915 43.2559L117.915 43.2559C117.954 43.2137 117.992 43.1718 118.031 43.1313C118.198 42.9577 118.344 42.9476 118.528 43.1064C118.723 43.2751 118.925 43.4359 119.144 43.6108C119.25 43.6948 119.359 43.782 119.474 43.8748ZM128.113 40.6749L128.114 40.6744L128.114 40.6742L128.114 40.6742L128.114 40.6741L128.114 40.6741L128.114 40.674C128.23 40.5509 128.328 40.447 128.419 40.3372C128.622 40.0905 128.816 40.1068 129.041 40.3139C129.212 40.472 129.395 40.6174 129.577 40.7628L129.577 40.7629L129.577 40.7629L129.577 40.763C129.617 40.7944 129.656 40.8258 129.696 40.8573C129.705 40.8645 129.714 40.8726 129.723 40.881C129.775 40.9258 129.833 40.9772 129.896 40.9312C129.985 40.8666 129.942 40.7654 129.902 40.6829C129.885 40.6451 129.862 40.6094 129.839 40.5736L129.839 40.5736C129.82 40.5438 129.801 40.514 129.785 40.4828C129.44 39.8281 129.538 39.4482 130.155 39.0449C130.172 39.0337 130.191 39.0235 130.211 39.0131C130.277 38.9786 130.345 38.9428 130.339 38.8674C130.329 38.7541 130.215 38.7275 130.118 38.705C130.113 38.7039 130.108 38.7027 130.103 38.7016C130.024 38.6827 129.944 38.6677 129.863 38.6527C129.804 38.6418 129.746 38.6308 129.687 38.6183C129.345 38.5443 129.09 38.3443 128.999 38.008C128.964 37.8802 128.898 37.7716 128.833 37.6637C128.773 37.5637 128.713 37.4643 128.678 37.3509C128.654 37.273 128.599 37.2092 128.508 37.2263C128.424 37.2427 128.39 37.3182 128.372 37.396C128.361 37.4434 128.352 37.4914 128.343 37.5394C128.329 37.6182 128.314 37.6971 128.291 37.7736C128.127 38.317 128.067 38.3622 127.507 38.3777C127.37 38.3815 127.234 38.3805 127.097 38.3795C127.034 38.379 126.971 38.3785 126.908 38.3785C127.096 38.7082 127.363 38.8967 127.623 39.081C127.66 39.1073 127.698 39.1336 127.734 39.1601C128.057 39.3929 128.145 39.6708 127.993 40.0352C127.896 40.2669 127.872 40.5087 127.921 40.8808C127.991 40.805 128.055 40.7375 128.113 40.6749ZM134.598 38.3939C134.637 38.4004 134.673 38.4065 134.695 38.3956C134.983 38.3412 135.076 38.4797 135.069 38.7125C135.069 38.7219 135.069 38.7321 135.069 38.7427C135.068 38.8331 135.067 38.9548 134.921 38.9032C134.914 38.9008 134.907 38.8983 134.9 38.8959L134.886 38.8908C134.693 38.8226 134.471 38.7444 134.44 38.5132C134.421 38.3642 134.514 38.38 134.598 38.3939ZM161.766 55.8852C161.878 56.0824 162.042 56.0918 162.194 56.1004C162.23 56.1025 162.266 56.1045 162.299 56.109C163.043 56.2048 163.787 56.2969 164.531 56.389C165.462 56.5042 166.393 56.6194 167.323 56.7419C167.684 56.7896 168.042 56.8628 168.399 56.936L168.399 56.936L168.399 56.936L168.399 56.936L168.399 56.936C168.572 56.9714 168.745 57.0068 168.918 57.0393C168.925 57.0407 168.933 57.0422 168.941 57.0436L168.941 57.0436C169.091 57.0714 169.25 57.1008 169.208 57.311C169.169 57.5081 169.013 57.4907 168.866 57.4741C168.855 57.4729 168.844 57.4717 168.833 57.4706C168.096 57.395 167.358 57.3215 166.621 57.2479L166.62 57.2479L166.62 57.2479L166.62 57.2478L166.62 57.2478C164.934 57.0797 163.248 56.9116 161.564 56.7193C159.45 56.478 157.341 56.5839 155.231 56.7006C151.194 56.9242 147.185 57.4229 143.177 57.9214L143.177 57.9215C142.44 58.0131 141.704 58.1047 140.967 58.1946C140.633 58.2353 140.299 58.2763 139.965 58.3172L139.958 58.3181C136.84 58.7002 133.721 59.0825 130.587 59.2954C127.669 59.4939 124.744 59.6442 121.815 59.5149C121.068 59.4817 120.321 59.4534 119.574 59.425C119.2 59.4108 118.826 59.3966 118.453 59.3818C117.972 59.3631 117.874 59.2401 117.958 58.7637C118 58.5262 117.858 58.5831 117.74 58.6344C117.456 58.7559 117.173 58.8797 116.894 59.0136C116.574 59.1669 116.348 59.1381 116.175 58.7761C116.103 58.6245 116.014 58.4809 115.926 58.3371C115.804 58.1398 115.682 57.9421 115.601 57.7228C115.315 56.949 115.745 56.3246 116.568 56.3386C116.863 56.3441 117.159 56.3838 117.45 56.4328C121.713 57.1491 125.994 57.0634 130.287 56.8018C132.578 56.6619 134.859 56.4233 137.14 56.1846C138.756 56.0156 140.371 55.8466 141.989 55.7127C143.363 55.599 144.735 55.4593 146.106 55.3197L146.106 55.3197C147.466 55.1812 148.826 55.0427 150.187 54.9295C154.783 54.5473 159.381 54.4835 163.969 55.0448C164.566 55.118 165.158 55.2224 165.751 55.3269L165.751 55.3269L165.751 55.3269L165.751 55.3269L165.751 55.3269C165.996 55.3701 166.241 55.4133 166.487 55.4543C166.575 55.469 166.669 55.4877 166.743 55.5321L166.751 55.537C166.846 55.593 166.964 55.6629 166.936 55.7937C166.914 55.8965 166.824 55.8973 166.738 55.8981C166.716 55.8982 166.694 55.8984 166.674 55.9003C165.528 56.0008 164.386 56.0459 163.242 55.8606C162.761 55.7829 162.273 55.7999 161.766 55.8852ZM118.269 64.9388C118.283 64.9265 118.296 64.9151 118.308 64.9043L118.308 64.9043C118.358 64.861 118.395 64.8284 118.431 64.7948C118.468 64.7611 118.522 64.7373 118.576 64.7136C118.689 64.6645 118.799 64.6163 118.742 64.4834C118.698 64.3795 118.56 64.4339 118.434 64.4837C118.393 64.4996 118.354 64.515 118.32 64.5246C118.035 64.6048 117.752 64.6951 117.472 64.7901C117.451 64.797 117.431 64.8049 117.41 64.8128L117.41 64.8129C117.295 64.8565 117.179 64.9005 117.082 64.7839C116.967 64.6445 116.961 64.4709 117.043 64.3074C117.136 64.1186 117.276 63.966 117.417 63.8132L117.417 63.8131L117.417 63.8131L117.417 63.813C117.452 63.7756 117.486 63.7382 117.52 63.7002C117.681 63.5196 117.768 63.388 117.412 63.3491C117.395 63.3472 117.377 63.3454 117.36 63.3437C117.128 63.3204 116.859 63.2934 116.884 62.9318C116.909 62.5527 117.196 62.2436 117.548 62.2537C117.846 62.2623 118.144 62.2842 118.442 62.3061H118.442H118.442H118.442L118.443 62.3061L118.443 62.3061L118.443 62.3061C118.659 62.322 118.875 62.3379 119.091 62.3487C122.146 62.5021 125.2 62.4826 128.251 62.2545C128.437 62.2403 128.624 62.227 128.815 62.2133H128.815H128.815C128.939 62.2045 129.065 62.1955 129.195 62.186C129.175 62.363 129.044 62.4399 128.92 62.5121L128.92 62.5122C128.898 62.5254 128.876 62.5384 128.854 62.5519C128.405 62.8368 127.912 63.0283 127.406 63.184C127.003 63.3078 126.662 63.5344 126.34 63.7952L126.338 63.7965C126.227 63.8865 126.103 63.9867 126.183 64.1502C126.248 64.2826 126.34 64.2434 126.429 64.2055C126.46 64.1922 126.491 64.179 126.52 64.1735C126.62 64.1548 126.733 64.1323 126.809 64.0715C127.588 63.4559 128.508 63.1976 129.427 62.9396L129.427 62.9396L129.427 62.9396L129.427 62.9396C129.734 62.8534 130.041 62.7673 130.342 62.6679C132.184 62.0606 134.091 61.7236 136.007 61.4838C136.241 61.4544 136.476 61.4315 136.711 61.4087C137.472 61.3345 138.23 61.2606 138.956 60.9684C139.08 60.9187 139.226 60.919 139.37 60.9193C139.424 60.9195 139.479 60.9196 139.531 60.917L139.573 60.9151C139.856 60.9019 140.141 60.8887 140.407 60.787C141.801 60.2576 143.255 60.1595 144.723 60.1494C144.875 60.1486 145.038 60.1253 145.176 60.0661C146.316 59.5714 147.526 59.4435 148.736 59.3157L148.736 59.3157C148.973 59.2906 149.21 59.2656 149.447 59.2378C149.572 59.2231 149.699 59.2135 149.825 59.2039C150.02 59.189 150.216 59.1741 150.408 59.1405C151.004 59.0362 151.564 59.1483 152.104 59.3857C152.381 59.5072 152.667 59.5889 152.964 59.5757C153.333 59.5586 153.703 59.5532 154.072 59.5479C154.695 59.5389 155.318 59.5298 155.94 59.4643C156.225 59.434 156.492 59.3592 156.747 59.2199C157.578 58.7645 158.468 58.5402 159.416 58.5527C160.19 58.5628 160.963 58.5255 161.735 58.4741C163.38 58.365 165.01 58.5334 166.641 58.702L166.723 58.7105L166.855 58.7241C166.91 58.7298 166.965 58.7354 167.021 58.7411C167.201 58.7598 167.346 58.8213 167.429 58.9871L167.433 58.9941L167.438 59.0041C167.5 59.1269 167.571 59.2655 167.503 59.3927C167.437 59.5162 167.33 59.4879 167.226 59.4602L167.226 59.4602C167.189 59.4505 167.153 59.4409 167.119 59.4379C166.799 59.4081 166.479 59.375 166.16 59.3418L166.16 59.3418C165.134 59.2356 164.108 59.1293 163.074 59.1335C163.048 59.1335 163.018 59.1303 162.986 59.1269C162.878 59.1155 162.757 59.1026 162.74 59.2129C162.719 59.3478 162.845 59.3807 162.96 59.4105C162.992 59.4189 163.023 59.427 163.05 59.4371C163.571 59.6322 164.113 59.7433 164.654 59.8545C164.895 59.9039 165.136 59.9533 165.374 60.0101C165.415 60.0196 165.456 60.0285 165.496 60.0374C165.519 60.0423 165.541 60.0471 165.563 60.0521C165.567 60.053 165.571 60.0539 165.575 60.0548L165.58 60.0559C165.677 60.0777 165.778 60.1005 165.76 60.2366C165.743 60.3624 165.661 60.3582 165.57 60.3536C165.555 60.3528 165.54 60.352 165.525 60.3518C164.661 60.3394 163.797 60.3331 162.933 60.3285C161.025 60.3184 159.121 60.3736 157.222 60.6072C156.788 60.6609 156.34 60.6169 155.894 60.5731C155.733 60.5572 155.571 60.5413 155.41 60.5301C153.257 60.3814 151.139 60.6562 149.028 61.0369C148.942 61.0525 148.828 61.0774 148.785 61.1389C148.54 61.4941 148.168 61.5488 147.801 61.6027C147.781 61.6056 147.762 61.6085 147.742 61.6115C147.723 61.6143 147.705 61.6171 147.686 61.62C145.019 62.0358 142.368 62.5409 139.717 63.046L139.716 63.0462L139.715 63.0464L139.714 63.0465C138.797 63.2213 137.88 63.396 136.962 63.5671C133.002 64.3043 129.018 64.8158 125.006 65.1217C122.921 65.2805 120.832 65.2829 118.747 65.0906C118.733 65.0893 118.719 65.0882 118.705 65.087C118.565 65.0753 118.421 65.0634 118.271 64.938L118.269 64.9388ZM123.756 70.3349C123.786 70.3336 123.816 70.3324 123.846 70.3338V70.3346C124.583 70.2536 125.33 70.1228 125.99 69.7608C126.946 69.2362 127.951 68.8234 128.955 68.4107C129.677 68.1141 130.398 67.8177 131.102 67.4798C131.122 67.47 131.145 67.4617 131.167 67.4534C131.256 67.4207 131.346 67.3875 131.319 67.2603C131.292 67.1297 131.193 67.1406 131.101 67.1507L131.101 67.1507C131.076 67.1534 131.052 67.1561 131.029 67.156C130.562 67.1521 130.099 67.2046 129.636 67.2571L129.636 67.2571L129.636 67.2571C129.446 67.2787 129.257 67.3002 129.066 67.3179C126.665 67.5398 124.263 67.7506 121.861 67.9613C121.028 68.0345 120.194 68.1076 119.361 68.1812C119.339 68.183 119.317 68.1833 119.294 68.1835C119.198 68.1846 119.098 68.1857 119.065 68.3035C119.021 68.4607 119.054 68.6242 119.181 68.7309C119.266 68.8025 119.382 68.8484 119.491 68.8764C119.725 68.9364 119.96 68.9921 120.195 69.0477L120.195 69.0478L120.195 69.0478C120.612 69.1466 121.028 69.2454 121.438 69.3685C122.1 69.567 122.683 69.3942 123.254 69.0851C123.334 69.0413 123.41 68.9896 123.486 68.9379L123.486 68.9379C123.538 68.9023 123.59 68.8667 123.644 68.8336C123.71 68.7924 123.791 68.7612 123.854 68.8321C123.917 68.9021 123.885 68.9777 123.833 69.0407C123.788 69.0957 123.742 69.1495 123.695 69.2033L123.695 69.2034L123.695 69.2035L123.695 69.2035L123.695 69.2035C123.615 69.2967 123.535 69.39 123.463 69.4891C123.309 69.7015 123.384 69.9165 123.458 70.1299C123.465 70.1504 123.472 70.1709 123.479 70.1913C123.53 70.3442 123.64 70.3396 123.756 70.3349ZM126.124 54.3036C126.231 53.7626 126.596 53.6325 127.087 53.6185C127.354 53.6109 127.619 53.5577 127.885 53.5046L127.885 53.5046L127.885 53.5046C128 53.4817 128.114 53.4587 128.229 53.4395C128.233 53.4389 128.236 53.4383 128.24 53.4378C128.244 53.4372 128.248 53.4367 128.252 53.4361C128.284 53.4318 128.318 53.4272 128.34 53.4091C128.46 53.307 128.581 53.3631 128.708 53.4214C128.862 53.4924 129.024 53.5668 129.198 53.3624C129.341 53.1947 129.583 53.1883 129.826 53.1818H129.826C129.938 53.1788 130.05 53.1758 130.153 53.1569C130.482 53.0962 130.812 53.044 131.145 53.0113C131.183 53.0077 131.225 52.9955 131.268 52.983C131.414 52.9412 131.572 52.8957 131.596 53.1545C131.622 53.4286 131.466 53.6263 131.188 53.6793C131.049 53.7061 130.907 53.7218 130.766 53.7374C130.665 53.7486 130.564 53.7598 130.464 53.775C130.454 53.7766 130.443 53.778 130.432 53.7795L130.432 53.7795C130.313 53.7957 130.179 53.814 130.349 53.9938C130.489 54.1417 130.378 54.2125 130.25 54.2172C128.888 54.2616 127.527 54.2974 126.165 54.3332C126.146 54.3332 126.126 54.3048 126.126 54.3044L126.124 54.3036ZM135.258 45.849C135.251 45.8048 135.245 45.7634 135.249 45.7307V45.7299L135.249 45.7267C135.27 45.3747 135.288 45.0724 134.838 45.157C134.793 45.1654 134.742 45.1643 134.69 45.1632C134.548 45.1601 134.403 45.1569 134.374 45.357C134.33 45.6591 134.77 46.1791 135.021 46.1667C135.305 46.1525 135.28 45.987 135.258 45.849Z" fill="#CE6A45"/>
<path d="M54.3081 177.066C53.3968 177.066 52.5615 176.838 51.8021 176.382C51.0596 175.91 50.4606 175.294 50.005 174.534C49.5493 173.758 49.3215 172.906 49.3215 171.978L49.3468 163.954C49.3468 163.026 49.5662 162.182 50.005 161.422C50.4606 160.663 51.0681 160.056 51.8275 159.6C52.5868 159.144 53.4137 158.916 54.3081 158.916C55.2193 158.916 56.0462 159.144 56.7887 159.6C57.5312 160.056 58.1218 160.663 58.5606 161.422C59.0162 162.182 59.244 163.026 59.244 163.954L59.2693 171.978C59.2693 172.906 59.0415 173.758 58.5859 174.534C58.1471 175.294 57.5481 175.91 56.7887 176.382C56.0462 176.838 55.2193 177.066 54.3081 177.066ZM54.3081 174.003C54.8143 174.003 55.2531 173.8 55.6243 173.395C56.0125 172.973 56.2065 172.501 56.2065 171.978L56.1812 163.954C56.1812 163.397 56.004 162.924 55.6496 162.536C55.2953 162.148 54.8481 161.954 54.3081 161.954C53.785 161.954 53.3378 162.148 52.9665 162.536C52.5953 162.907 52.4096 163.38 52.4096 163.954V171.978C52.4096 172.535 52.5953 173.016 52.9665 173.421C53.3378 173.809 53.785 174.003 54.3081 174.003ZM63.7322 176.812C63.6647 176.812 63.6225 176.77 63.6057 176.686L60.6188 159.296C60.6019 159.229 60.6272 159.195 60.6947 159.195H63.5297C63.5972 159.195 63.6394 159.229 63.6563 159.296L65.2763 170.737L66.9469 159.296C66.9638 159.229 67.0144 159.195 67.0988 159.195H69.3769C69.4444 159.195 69.4866 159.229 69.5035 159.296L71.1488 170.737L72.7941 159.296C72.811 159.229 72.8532 159.195 72.9207 159.195H75.7304C75.8147 159.195 75.8485 159.229 75.8316 159.296L72.8194 176.686C72.8025 176.72 72.7772 176.753 72.7435 176.787C72.7097 176.804 72.6929 176.812 72.6929 176.812H69.63C69.5794 176.812 69.5372 176.77 69.5035 176.686L68.2125 167.599L66.9216 176.686C66.9047 176.77 66.8625 176.812 66.795 176.812H63.7322ZM78.0567 176.812C77.9217 176.812 77.8542 176.753 77.8542 176.635L77.8289 159.397C77.8289 159.262 77.8964 159.195 78.0314 159.195H80.3096L84.5874 169.168L84.4608 159.397C84.4608 159.262 84.5367 159.195 84.6886 159.195H87.1946C87.2958 159.195 87.3464 159.262 87.3464 159.397L87.3717 176.661C87.3717 176.762 87.3296 176.812 87.2452 176.812H85.0177L80.6386 167.497L80.8158 176.61C80.8158 176.745 80.7399 176.812 80.588 176.812H78.0567ZM90.1781 176.812C90.1106 176.812 90.0768 176.77 90.0768 176.686L90.1021 159.296C90.1021 159.229 90.1359 159.195 90.2034 159.195H98.3287C98.3962 159.195 98.4299 159.237 98.4299 159.321V162.156C98.4299 162.224 98.3962 162.258 98.3287 162.258H93.1396V166.206H98.3287C98.3962 166.206 98.4299 166.24 98.4299 166.308L98.4553 169.168C98.4553 169.236 98.4215 169.269 98.354 169.269H93.1396V173.699H98.354C98.4215 173.699 98.4553 173.741 98.4553 173.826V176.711C98.4553 176.779 98.4215 176.812 98.354 176.812H90.1781ZM101.339 176.812C101.255 176.812 101.212 176.77 101.212 176.686L101.263 159.296C101.263 159.229 101.297 159.195 101.364 159.195L106.098 159.17C107.026 159.153 107.87 159.372 108.629 159.828C109.405 160.283 110.021 160.899 110.477 161.676C110.932 162.435 111.16 163.279 111.16 164.207V171.471C111.16 172.45 110.924 173.345 110.451 174.155C109.979 174.948 109.346 175.581 108.553 176.053C107.76 176.526 106.865 176.77 105.87 176.787L101.339 176.812ZM104.3 173.699H105.87C106.494 173.699 107.017 173.48 107.439 173.041C107.878 172.602 108.097 172.079 108.097 171.471V164.181C108.097 163.641 107.895 163.177 107.49 162.789C107.102 162.384 106.638 162.19 106.098 162.207L104.326 162.232L104.3 173.699ZM122.049 176.834C121.22 176.834 120.488 176.63 119.856 176.222C119.237 175.814 118.752 175.301 118.4 174.682C118.049 174.063 117.873 173.444 117.873 172.826V171.434C117.873 170.955 117.985 170.491 118.21 170.041C118.435 169.591 118.731 169.191 119.096 168.839C118.801 168.516 118.569 168.122 118.4 167.658C118.231 167.18 118.147 166.652 118.147 166.076C118.147 165.344 118.316 164.684 118.653 164.093C119.005 163.488 119.469 163.01 120.045 162.659C120.636 162.307 121.29 162.131 122.007 162.131H124.855C124.953 162.131 125.002 162.18 125.002 162.279V164.515C125.002 164.599 124.96 164.641 124.876 164.641H122.007C121.656 164.641 121.346 164.782 121.079 165.063C120.826 165.344 120.699 165.682 120.699 166.076C120.699 166.554 120.805 166.926 121.016 167.194C121.241 167.461 121.571 167.594 122.007 167.594H127.745C127.815 167.594 127.85 167.63 127.85 167.7V170.041C127.85 170.098 127.822 170.126 127.766 170.126H125.909L125.888 176.728C125.888 176.784 125.86 176.812 125.804 176.812L122.049 176.834ZM122.049 174.302L123.42 174.281L123.442 170.126H121.986C121.691 170.126 121.417 170.203 121.163 170.358C120.924 170.498 120.734 170.667 120.594 170.864C120.453 171.061 120.383 171.251 120.383 171.434V172.826C120.383 173.037 120.446 173.262 120.573 173.501C120.713 173.726 120.91 173.916 121.163 174.07C121.417 174.225 121.712 174.302 122.049 174.302ZM139.196 177.066C138.285 177.066 137.45 176.838 136.69 176.382C135.948 175.91 135.349 175.294 134.893 174.534C134.437 173.758 134.21 172.906 134.21 171.978L134.235 163.954C134.235 163.026 134.454 162.182 134.893 161.422C135.349 160.663 135.956 160.056 136.715 159.6C137.475 159.144 138.302 158.916 139.196 158.916C140.107 158.916 140.934 159.144 141.677 159.6C142.419 160.056 143.01 160.663 143.449 161.422C143.904 162.182 144.132 163.026 144.132 163.954L144.157 171.978C144.157 172.906 143.93 173.758 143.474 174.534C143.035 175.294 142.436 175.91 141.677 176.382C140.934 176.838 140.107 177.066 139.196 177.066ZM139.196 174.003C139.702 174.003 140.141 173.8 140.512 173.395C140.9 172.973 141.095 172.501 141.095 171.978L141.069 163.954C141.069 163.397 140.892 162.924 140.538 162.536C140.183 162.148 139.736 161.954 139.196 161.954C138.673 161.954 138.226 162.148 137.855 162.536C137.483 162.907 137.298 163.38 137.298 163.954V171.978C137.298 172.535 137.483 173.016 137.855 173.421C138.226 173.809 138.673 174.003 139.196 174.003ZM146.715 176.812C146.63 176.812 146.588 176.77 146.588 176.686L146.639 159.296C146.639 159.229 146.672 159.195 146.74 159.195H151.6C153.152 159.195 154.376 159.667 155.27 160.612C156.182 161.557 156.637 162.84 156.637 164.46C156.637 165.658 156.401 166.696 155.928 167.573C155.456 168.451 154.84 169.126 154.081 169.598C153.321 170.071 152.494 170.307 151.6 170.307H149.676V176.686C149.676 176.77 149.634 176.812 149.55 176.812H146.715ZM149.676 167.244H151.6C152.14 167.244 152.604 166.991 152.992 166.485C153.397 165.962 153.6 165.287 153.6 164.46C153.6 163.802 153.422 163.262 153.068 162.84C152.714 162.418 152.224 162.207 151.6 162.207L149.676 162.232V167.244ZM158.764 176.812C158.697 176.812 158.663 176.77 158.663 176.686L158.688 159.296C158.688 159.229 158.722 159.195 158.79 159.195H166.915C166.982 159.195 167.016 159.237 167.016 159.321V162.156C167.016 162.224 166.982 162.258 166.915 162.258H161.726V166.206H166.915C166.982 166.206 167.016 166.24 167.016 166.308L167.041 169.168C167.041 169.236 167.008 169.269 166.94 169.269H161.726V173.699H166.94C167.008 173.699 167.041 173.741 167.041 173.826V176.711C167.041 176.779 167.008 176.812 166.94 176.812H158.764ZM169.9 176.812C169.832 176.812 169.798 176.77 169.798 176.686L169.849 159.296C169.849 159.229 169.883 159.195 169.95 159.195H175.063C175.975 159.195 176.81 159.423 177.569 159.878C178.346 160.317 178.962 160.916 179.417 161.676C179.873 162.418 180.101 163.262 180.101 164.207C180.101 164.831 180.008 165.396 179.822 165.903C179.637 166.392 179.417 166.814 179.164 167.168C178.911 167.506 178.683 167.759 178.481 167.928C179.392 168.94 179.848 170.13 179.848 171.497L179.873 176.686C179.873 176.77 179.831 176.812 179.746 176.812H176.886C176.818 176.812 176.785 176.787 176.785 176.736V171.497C176.785 170.889 176.565 170.366 176.127 169.927C175.705 169.472 175.182 169.244 174.557 169.244H172.887L172.861 176.686C172.861 176.77 172.828 176.812 172.76 176.812H169.9ZM172.887 166.206H175.063C175.587 166.206 176.051 166.012 176.456 165.624C176.861 165.236 177.063 164.764 177.063 164.207C177.063 163.667 176.861 163.203 176.456 162.815C176.068 162.426 175.603 162.232 175.063 162.232H172.887V166.206ZM181.655 176.686L184.794 159.296C184.811 159.229 184.853 159.195 184.921 159.195H188.591C188.659 159.195 188.701 159.229 188.718 159.296L191.73 176.686C191.747 176.77 191.713 176.812 191.629 176.812H188.819C188.751 176.812 188.709 176.77 188.692 176.686L188.414 174.838H184.971L184.693 176.686C184.676 176.77 184.634 176.812 184.566 176.812H181.757C181.689 176.812 181.655 176.77 181.655 176.686ZM185.478 172.13H187.908L186.87 165.017L186.718 164.08L186.617 165.017L185.478 172.13ZM195.145 176.812C195.077 176.812 195.043 176.77 195.043 176.686V162.258H191.753C191.668 162.258 191.626 162.216 191.626 162.131L191.651 159.296C191.651 159.229 191.685 159.195 191.753 159.195H201.371C201.456 159.195 201.498 159.229 201.498 159.296V162.131C201.498 162.216 201.464 162.258 201.397 162.258H198.081L198.106 176.686C198.106 176.77 198.072 176.812 198.005 176.812H195.145ZM203.356 176.812C203.288 176.812 203.255 176.77 203.255 176.686L203.28 159.296C203.28 159.229 203.314 159.195 203.381 159.195H211.506C211.574 159.195 211.608 159.237 211.608 159.321V162.156C211.608 162.224 211.574 162.258 211.506 162.258H206.317V166.206H211.506C211.574 166.206 211.608 166.24 211.608 166.308L211.633 169.168C211.633 169.236 211.599 169.269 211.532 169.269H206.317V173.699H211.532C211.599 173.699 211.633 173.741 211.633 173.826V176.711C211.633 176.779 211.599 176.812 211.532 176.812H203.356ZM214.517 176.812C214.432 176.812 214.39 176.77 214.39 176.686L214.441 159.296C214.441 159.229 214.474 159.195 214.542 159.195L219.275 159.17C220.203 159.153 221.047 159.372 221.807 159.828C222.583 160.283 223.199 160.899 223.654 161.676C224.11 162.435 224.338 163.279 224.338 164.207V171.471C224.338 172.45 224.102 173.345 223.629 174.155C223.157 174.948 222.524 175.581 221.731 176.053C220.938 176.526 220.043 176.77 219.048 176.787L214.517 176.812ZM217.478 173.699H219.048C219.672 173.699 220.195 173.48 220.617 173.041C221.056 172.602 221.275 172.079 221.275 171.471V164.181C221.275 163.641 221.073 163.177 220.668 162.789C220.279 162.384 219.815 162.19 219.275 162.207L217.503 162.232L217.478 173.699Z" fill="#132527"/>
<path d="M39.7962 137.5C39.605 137.5 39.5093 137.38 39.5093 137.141L39.581 87.9422C39.581 87.7032 39.7006 87.5837 39.9396 87.5837H47.9004C48.1395 87.5837 48.259 87.7032 48.259 87.9422L48.1873 128.679H62.9614C63.2004 128.679 63.32 128.798 63.32 129.037V137.141C63.32 137.38 63.2004 137.5 62.9614 137.5H39.7962ZM80.3022 138.217C77.7203 138.217 75.3536 137.572 73.202 136.281C71.0983 134.942 69.4009 133.197 68.11 131.045C66.819 128.846 66.1736 126.431 66.1736 123.802L66.2453 101.067C66.2453 98.4371 66.8669 96.0465 68.11 93.8949C69.4009 91.7433 71.1222 90.0221 73.2737 88.7312C75.4253 87.4402 77.7681 86.7948 80.3022 86.7948C82.884 86.7948 85.2269 87.4402 87.3306 88.7312C89.4344 90.0221 91.1078 91.7433 92.3509 93.8949C93.6419 96.0465 94.2873 98.4371 94.2873 101.067L94.359 123.802C94.359 126.431 93.7136 128.846 92.4226 131.045C91.1795 133.197 89.4822 134.942 87.3306 136.281C85.2269 137.572 82.884 138.217 80.3022 138.217ZM80.3022 129.539C81.7365 129.539 82.9797 128.965 84.0315 127.818C85.1312 126.623 85.6811 125.284 85.6811 123.802L85.6094 101.067C85.6094 99.489 85.1073 98.1502 84.1033 97.0505C83.0992 95.9508 81.8322 95.401 80.3022 95.401C78.82 95.401 77.553 95.9508 76.5011 97.0505C75.4492 98.1024 74.9233 99.4412 74.9233 101.067V123.802C74.9233 125.379 75.4492 126.742 76.5011 127.89C77.553 128.989 78.82 129.539 80.3022 129.539ZM113.008 138.217C110.378 138.217 107.988 137.572 105.836 136.281C103.733 134.942 102.059 133.173 100.816 130.974C99.5728 128.774 98.9513 126.312 98.9513 123.586L99.023 101.21C99.023 98.5805 99.6207 96.1899 100.816 94.0383C102.059 91.839 103.733 90.0938 105.836 88.8029C107.988 87.4641 110.378 86.7948 113.008 86.7948C115.638 86.7948 118.005 87.4402 120.108 88.7312C122.212 90.0221 123.886 91.7672 125.129 93.9666C126.372 96.1182 126.993 98.5327 126.993 101.21V104.509C126.993 104.701 126.898 104.796 126.706 104.796H118.674C118.483 104.796 118.387 104.701 118.387 104.509V101.21C118.387 99.6324 117.861 98.2697 116.809 97.1223C115.805 95.9748 114.538 95.401 113.008 95.401C111.287 95.401 109.972 95.9987 109.064 97.194C108.155 98.3415 107.701 99.6802 107.701 101.21V123.586C107.701 125.356 108.203 126.79 109.207 127.89C110.259 128.989 111.526 129.539 113.008 129.539C114.538 129.539 115.805 128.941 116.809 127.746C117.861 126.503 118.387 125.116 118.387 123.586V120.287C118.387 120.096 118.483 120.001 118.674 120.001H126.778C126.969 120.001 127.065 120.096 127.065 120.287V123.586C127.065 126.312 126.42 128.774 125.129 130.974C123.886 133.173 122.212 134.942 120.108 136.281C118.005 137.572 115.638 138.217 113.008 138.217ZM129.661 137.141L138.554 87.8705C138.602 87.6793 138.721 87.5837 138.913 87.5837H149.312C149.503 87.5837 149.623 87.6793 149.67 87.8705L158.205 137.141C158.253 137.38 158.157 137.5 157.918 137.5H149.957C149.766 137.5 149.647 137.38 149.599 137.141L148.81 131.906H139.056L138.267 137.141C138.219 137.38 138.1 137.5 137.909 137.5H129.948C129.757 137.5 129.661 137.38 129.661 137.141ZM140.49 124.232H147.375L144.435 104.079L144.005 101.425L143.718 104.079L140.49 124.232ZM162.993 137.5C162.802 137.5 162.706 137.38 162.706 137.141L162.778 87.9422C162.778 87.7032 162.897 87.5837 163.136 87.5837H171.097C171.336 87.5837 171.456 87.7032 171.456 87.9422L171.384 128.679H186.158C186.397 128.679 186.517 128.798 186.517 129.037V137.141C186.517 137.38 186.397 137.5 186.158 137.5H162.993ZM191.498 137.5C191.307 137.5 191.211 137.38 191.211 137.141L191.283 87.9422C191.283 87.7032 191.403 87.5837 191.642 87.5837H199.602C199.841 87.5837 199.961 87.7032 199.961 87.9422L199.889 128.679H214.663C214.902 128.679 215.022 128.798 215.022 129.037V137.141C215.022 137.38 214.902 137.5 214.663 137.5H191.498ZM220.573 137.5C220.43 137.5 220.358 137.404 220.358 137.213L220.43 116.845L210.82 87.8705C210.772 87.6793 210.844 87.5837 211.035 87.5837H218.996C219.235 87.5837 219.378 87.6793 219.426 87.8705L224.733 107.163L230.112 87.8705C230.16 87.6793 230.279 87.5837 230.471 87.5837H238.503C238.694 87.5837 238.766 87.6793 238.718 87.8705L229.036 116.558L229.108 137.213C229.108 137.404 229.012 137.5 228.821 137.5H220.573Z" fill="#132527"/>
<path d="M137.058 256.63L139.92 265.438H149.182L141.689 270.882L144.551 279.691L137.058 274.247L129.565 279.691L132.427 270.882L124.934 265.438H134.196L137.058 256.63Z" fill="#CE6A45"/>
<path d="M116.931 254.952L118.889 260.978L125.226 260.978L120.1 264.703L122.058 270.73L116.931 267.005L111.804 270.73L113.763 264.703L108.636 260.978L114.973 260.978L116.931 254.952Z" fill="#CE6A45"/>
<path d="M156.851 254.952L158.809 260.978L165.146 260.978L160.02 264.703L161.978 270.73L156.851 267.005L151.724 270.73L153.683 264.703L148.556 260.978L154.893 260.978L156.851 254.952Z" fill="#CE6A45"/>
<path d="M171.612 254.281L172.893 258.222H177.036L173.684 260.657L174.964 264.598L171.612 262.162L168.26 264.598L169.54 260.657L166.188 258.222H170.332L171.612 254.281Z" fill="#CE6A45"/>
<path d="M102.506 254.281L103.786 258.222H107.929L104.577 260.657L105.858 264.598L102.506 262.162L99.1536 264.598L100.434 260.657L97.0819 258.222H101.225L102.506 254.281Z" fill="#CE6A45"/>
<rect x="84.3857" y="194.797" width="101.25" height="0.84375" fill="#C9C9C9"/>
<path d="M215.47 220.673C215.47 220.909 215.596 221.087 215.831 221.232C216.067 221.376 216.408 221.501 216.856 221.626C217.198 221.718 217.506 221.805 217.756 221.877C218.026 221.968 218.295 222.112 218.565 222.272C218.853 222.45 219.07 222.667 219.229 222.955C219.374 223.225 219.446 223.567 219.446 223.927C219.446 224.649 219.157 225.203 218.618 225.602C218.06 225.997 217.376 226.213 216.564 226.213C215.843 226.213 215.212 226.05 214.692 225.746C214.168 225.442 213.792 225.028 213.557 224.485L214.924 223.677C215.178 224.394 215.717 224.74 216.564 224.74C217.411 224.74 217.825 224.47 217.825 223.931C217.825 223.517 217.358 223.213 216.42 222.978C216.059 222.887 215.77 222.8 215.52 222.708C215.284 222.617 215.015 222.492 214.726 222.333C214.438 222.169 214.221 221.938 214.062 221.668C213.918 221.399 213.845 221.072 213.845 220.715C213.845 220.032 214.1 219.493 214.62 219.079C215.144 218.665 215.789 218.448 216.545 218.448C217.156 218.448 217.699 218.593 218.181 218.862C218.648 219.132 219.028 219.508 219.279 219.998L217.927 220.753C217.692 220.18 217.225 219.91 216.541 219.91C216.237 219.91 215.964 219.982 215.767 220.108C215.569 220.252 215.463 220.449 215.463 220.681H215.467L215.47 220.673ZM206.988 221.718H211.328C211.222 221.121 210.967 220.692 210.591 220.37C210.216 220.066 209.764 219.903 209.225 219.903C208.628 219.903 208.142 220.066 207.748 220.389C207.353 220.711 207.098 221.144 206.992 221.721L206.988 221.718ZM212.877 223.008H207.007C207.114 223.548 207.387 223.98 207.816 224.284C208.23 224.588 208.75 224.732 209.365 224.732C210.193 224.732 210.842 224.428 211.271 223.832L212.585 224.588C211.863 225.666 210.785 226.205 209.342 226.205C208.154 226.205 207.182 225.83 206.445 225.108C205.709 224.372 205.329 223.434 205.329 222.321C205.329 221.209 205.709 220.309 206.426 219.568C207.148 218.813 208.082 218.433 209.236 218.433C210.299 218.433 211.18 218.828 211.882 219.584C212.585 220.339 212.927 221.258 212.927 222.336C212.927 222.534 212.908 222.75 212.87 223.001L212.877 223.008ZM202.629 218.642V219.884C203.043 218.969 203.799 218.517 204.915 218.517V220.244C204.304 220.187 203.78 220.351 203.313 220.677C202.861 221 202.626 221.543 202.626 222.295V226.016H201.039V218.642H202.626H202.629ZM193.589 224.018C194.041 224.466 194.58 224.683 195.263 224.683C195.947 224.683 196.49 224.466 196.919 224.018C197.371 223.57 197.583 223.012 197.583 222.329C197.583 221.645 197.367 221.087 196.919 220.654C196.486 220.187 195.928 219.971 195.263 219.971C194.599 219.971 194.037 220.187 193.589 220.654C193.137 221.087 192.925 221.645 192.925 222.329C192.925 223.012 193.141 223.57 193.589 224.018ZM197.587 219.686V218.642H199.189V226.016H197.587V224.952C196.991 225.78 196.129 226.213 195.013 226.213C193.988 226.213 193.122 225.837 192.401 225.078C191.698 224.341 191.338 223.422 191.338 222.325C191.338 221.228 191.698 220.313 192.401 219.572C193.122 218.817 193.988 218.437 195.013 218.437C196.129 218.437 196.995 218.851 197.587 219.679V219.686ZM187.199 218.445C188.065 218.445 188.748 218.733 189.253 219.272C189.777 219.811 190.028 220.548 190.028 221.486V226.016H188.441V221.645C188.441 221.106 188.296 220.673 187.989 220.385C187.7 220.081 187.305 219.937 186.781 219.937C186.208 219.937 185.756 220.115 185.414 220.476C185.073 220.837 184.909 221.357 184.909 222.059V226.016H183.322V215.692H184.909V219.595C185.395 218.839 186.17 218.445 187.195 218.445H187.199ZM178.029 220.673C178.029 220.909 178.155 221.087 178.39 221.232C178.626 221.376 178.967 221.501 179.415 221.626C179.757 221.718 180.065 221.805 180.315 221.881C180.566 221.972 180.839 222.116 181.124 222.276C181.413 222.454 181.629 222.671 181.788 222.959C181.933 223.229 182.005 223.57 182.005 223.931C182.005 224.649 181.716 225.207 181.177 225.606C180.619 226 179.936 226.217 179.123 226.217C178.386 226.217 177.771 226.054 177.251 225.75C176.727 225.446 176.351 225.028 176.116 224.489L177.483 223.68C177.737 224.402 178.276 224.744 179.123 224.744C179.97 224.744 180.384 224.474 180.384 223.935C180.384 223.521 179.917 223.217 178.979 222.982C178.618 222.891 178.329 222.803 178.079 222.712C177.843 222.621 177.574 222.496 177.285 222.336C176.997 222.173 176.761 221.942 176.621 221.672C176.477 221.402 176.404 221.076 176.404 220.719C176.404 220.035 176.655 219.496 177.179 219.082C177.703 218.669 178.333 218.452 179.104 218.452C179.715 218.452 180.258 218.596 180.74 218.866C181.207 219.136 181.568 219.512 181.838 220.001L180.486 220.757C180.235 220.184 179.784 219.914 179.1 219.914C178.796 219.914 178.527 219.986 178.326 220.111C178.128 220.256 178.022 220.453 178.022 220.685H178.026L178.029 220.673ZM172.053 218.445C172.919 218.445 173.602 218.733 174.123 219.272C174.627 219.811 174.897 220.548 174.897 221.486V226.016H173.295V221.645C173.295 221.106 173.151 220.673 172.862 220.385C172.558 220.081 172.16 219.937 171.636 219.937C171.062 219.937 170.61 220.115 170.269 220.476C169.942 220.837 169.764 221.357 169.764 222.059V226.016H168.177V218.642H169.764V219.595C170.269 218.839 171.024 218.445 172.049 218.445H172.053ZM166.328 226.016H164.74V218.642H166.328V226.016ZM157.291 224.018C157.743 224.466 158.282 224.683 158.965 224.683C159.649 224.683 160.192 224.466 160.621 224.018C161.073 223.57 161.285 223.012 161.285 222.329C161.285 221.645 161.069 221.087 160.621 220.654C160.188 220.187 159.63 219.971 158.965 219.971C158.301 219.971 157.739 220.187 157.291 220.654C156.839 221.087 156.627 221.645 156.627 222.329C156.627 223.012 156.843 223.57 157.291 224.018ZM161.285 219.686V218.642H162.888V226.016H161.285V224.952C160.689 225.78 159.827 226.213 158.711 226.213C157.686 226.213 156.82 225.837 156.099 225.078C155.396 224.341 155.036 223.422 155.036 222.325C155.036 221.228 155.396 220.313 156.099 219.572C156.82 218.817 157.686 218.437 158.711 218.437C159.827 218.437 160.693 218.851 161.285 219.679V219.686ZM150.95 218.445C151.778 218.445 152.465 218.733 152.966 219.272C153.308 219.633 153.54 220.081 153.65 220.639L152.085 221.053C152.029 220.783 151.922 220.548 151.759 220.37C151.505 220.081 151.148 219.937 150.715 219.937C150.21 219.937 149.815 220.1 149.526 220.442C149.238 220.768 149.113 221.235 149.094 221.847L147.506 222.279V221.562C147.506 221.038 147.381 220.647 147.146 220.377C146.891 220.089 146.55 219.944 146.121 219.944C145.616 219.944 145.221 220.123 144.932 220.449C144.628 220.791 144.484 221.258 144.484 221.888V223.092L142.882 223.525V218.65H144.484V219.531C144.951 218.809 145.654 218.452 146.591 218.452C147.529 218.452 148.228 218.847 148.68 219.622C149.166 218.847 149.921 218.452 150.946 218.452L150.95 218.445Z" fill="#132527"/>
<path d="M144.485 226.014V223.785L142.887 224.214V226.014H144.485Z" fill="#132527"/>
<path d="M147.51 222.978V226.015H149.093V222.545L147.51 222.978Z" fill="#132527"/>
<path d="M152.139 221.736V226.015H153.741V221.447L153.726 221.303L152.139 221.736Z" fill="#132527"/>
<path d="M166.329 227.598H164.746V234.557H137.503V207.345H164.746V217.057H166.329V205.766H135.916V236.141H166.329V227.598Z" fill="#132527"/>
<path d="M122.601 226.053C122.563 226.053 122.529 226.041 122.499 226.019C122.476 225.988 122.465 225.954 122.465 225.916V223.034C122.465 223.004 122.461 222.981 122.453 222.966L120.107 218.25C120.092 218.22 120.084 218.197 120.084 218.182C120.084 218.121 120.126 218.091 120.209 218.091H121.644C121.72 218.091 121.774 218.125 121.804 218.193L123.228 221.223C123.251 221.269 123.273 221.269 123.296 221.223L124.72 218.193C124.75 218.125 124.803 218.091 124.879 218.091H126.337C126.391 218.091 126.425 218.106 126.44 218.136C126.463 218.159 126.463 218.197 126.44 218.25L124.071 222.966C124.063 222.981 124.059 223.004 124.059 223.034V225.916C124.059 225.954 124.044 225.988 124.014 226.019C123.991 226.041 123.961 226.053 123.923 226.053H122.601Z" fill="#132527"/>
<path d="M118.238 221.907C118.192 221.929 118.192 221.952 118.238 221.975C118.959 222.347 119.32 222.966 119.32 223.832C119.32 224.568 119.069 225.126 118.568 225.506C118.067 225.878 117.41 226.064 116.598 226.064H113.647C113.609 226.064 113.575 226.053 113.545 226.03C113.522 226 113.511 225.965 113.511 225.927V218.227C113.511 218.189 113.522 218.159 113.545 218.136C113.575 218.106 113.609 218.091 113.647 218.091H116.506C118.306 218.091 119.206 218.82 119.206 220.278C119.206 221.037 118.883 221.58 118.238 221.907ZM115.174 219.469C115.136 219.469 115.117 219.488 115.117 219.526V221.303C115.117 221.341 115.136 221.36 115.174 221.36H116.506C116.863 221.36 117.141 221.276 117.338 221.109C117.535 220.942 117.634 220.714 117.634 220.426C117.634 220.13 117.535 219.898 117.338 219.731C117.141 219.556 116.863 219.469 116.506 219.469H115.174ZM116.598 224.675C116.947 224.675 117.22 224.587 117.418 224.413C117.615 224.23 117.714 223.983 117.714 223.672C117.714 223.361 117.615 223.118 117.418 222.943C117.22 222.761 116.943 222.67 116.586 222.67H115.174C115.136 222.67 115.117 222.689 115.117 222.727V224.618C115.117 224.656 115.136 224.675 115.174 224.675H116.598Z" fill="#132527"/>
<path d="M103.642 226.064C103.604 226.064 103.569 226.053 103.539 226.03C103.516 226 103.505 225.965 103.505 225.927V218.227C103.505 218.189 103.516 218.159 103.539 218.136C103.569 218.106 103.604 218.091 103.642 218.091H106.489C107.059 218.091 107.556 218.193 107.981 218.398C108.414 218.596 108.748 218.877 108.984 219.241C109.219 219.606 109.337 220.027 109.337 220.506V223.649C109.337 224.128 109.219 224.549 108.984 224.914C108.748 225.278 108.414 225.563 107.981 225.768C107.556 225.965 107.059 226.064 106.489 226.064H103.642ZM105.111 224.629C105.111 224.667 105.13 224.686 105.168 224.686H106.546C106.895 224.686 107.176 224.568 107.389 224.333C107.609 224.097 107.723 223.782 107.731 223.387V220.768C107.731 220.373 107.621 220.058 107.4 219.822C107.188 219.587 106.899 219.469 106.535 219.469H105.168C105.13 219.469 105.111 219.488 105.111 219.526V224.629Z" fill="#132527"/>
<path d="M102.048 219.332C102.048 219.37 102.032 219.404 102.002 219.435C101.979 219.458 101.949 219.469 101.911 219.469H98.1747C98.1368 219.469 98.1178 219.488 98.1178 219.526V221.291C98.1178 221.329 98.1368 221.348 98.1747 221.348H100.624C100.662 221.348 100.692 221.364 100.715 221.394C100.745 221.417 100.76 221.447 100.76 221.485V222.59C100.76 222.628 100.745 222.662 100.715 222.693C100.692 222.715 100.662 222.727 100.624 222.727H98.1747C98.1368 222.727 98.1178 222.746 98.1178 222.784V224.629C98.1178 224.667 98.1368 224.686 98.1747 224.686H101.911C101.949 224.686 101.979 224.701 102.002 224.731C102.032 224.754 102.048 224.785 102.048 224.823V225.927C102.048 225.965 102.032 226 102.002 226.03C101.979 226.053 101.949 226.064 101.911 226.064H96.6484C96.6104 226.064 96.5763 226.053 96.5459 226.03C96.5231 226 96.5117 225.965 96.5117 225.927V218.227C96.5117 218.189 96.5231 218.159 96.5459 218.136C96.5763 218.106 96.6104 218.091 96.6484 218.091H101.911C101.949 218.091 101.979 218.106 102.002 218.136C102.032 218.159 102.048 218.189 102.048 218.227V219.332Z" fill="#132527"/>
<path d="M93.3144 226.064C93.2765 226.064 93.2423 226.053 93.2119 226.03C93.1891 226 93.1777 225.965 93.1777 225.927V218.227C93.1777 218.189 93.1891 218.159 93.2119 218.136C93.2423 218.106 93.2765 218.091 93.3144 218.091H94.6471C94.6851 218.091 94.7155 218.106 94.7382 218.136C94.7686 218.159 94.7838 218.189 94.7838 218.227V225.927C94.7838 225.965 94.7686 226 94.7382 226.03C94.7155 226.053 94.6851 226.064 94.6471 226.064H93.3144Z" fill="#132527"/>
<path d="M91.9864 219.332C91.9864 219.37 91.9712 219.404 91.9408 219.435C91.918 219.458 91.8876 219.469 91.8497 219.469H88.1249C88.087 219.469 88.068 219.488 88.068 219.526V221.291C88.068 221.329 88.087 221.348 88.1249 221.348H90.5739C90.6119 221.348 90.6423 221.364 90.6651 221.394C90.6954 221.417 90.7106 221.447 90.7106 221.485V222.59C90.7106 222.628 90.6954 222.662 90.6651 222.693C90.6423 222.715 90.6119 222.727 90.5739 222.727H88.1249C88.087 222.727 88.068 222.746 88.068 222.784V225.927C88.068 225.965 88.0528 226 88.0224 226.03C87.9996 226.053 87.9693 226.064 87.9313 226.064H86.5986C86.5606 226.064 86.5265 226.053 86.4961 226.03C86.4733 226 86.4619 225.965 86.4619 225.927V218.227C86.4619 218.189 86.4733 218.159 86.4961 218.136C86.5265 218.106 86.5606 218.091 86.5986 218.091H91.8497C91.8876 218.091 91.918 218.106 91.9408 218.136C91.9712 218.159 91.9864 218.189 91.9864 218.227V219.332Z" fill="#132527"/>
<path d="M83.2646 226.064C83.2266 226.064 83.1925 226.053 83.1621 226.03C83.1393 226 83.1279 225.965 83.1279 225.927V218.227C83.1279 218.189 83.1393 218.159 83.1621 218.136C83.1925 218.106 83.2266 218.091 83.2646 218.091H84.5973C84.6353 218.091 84.6657 218.106 84.6884 218.136C84.7188 218.159 84.734 218.189 84.734 218.227V225.927C84.734 225.965 84.7188 226 84.6884 226.03C84.6657 226.053 84.6353 226.064 84.5973 226.064H83.2646Z" fill="#132527"/>
<path d="M81.6246 218.091C81.6626 218.091 81.693 218.106 81.7158 218.136C81.7461 218.159 81.7613 218.189 81.7613 218.227V219.344C81.7613 219.382 81.7461 219.416 81.7158 219.446C81.693 219.469 81.6626 219.48 81.6246 219.48H79.5857C79.5477 219.48 79.5288 219.499 79.5288 219.537V225.927C79.5288 225.965 79.5136 226 79.4832 226.03C79.4604 226.053 79.43 226.064 79.3921 226.064H78.0594C78.0214 226.064 77.9872 226.053 77.9569 226.03C77.9341 226 77.9227 225.965 77.9227 225.927V219.537C77.9227 219.499 77.9037 219.48 77.8657 219.48H75.8838C75.8458 219.48 75.8116 219.469 75.7812 219.446C75.7585 219.416 75.7471 219.382 75.7471 219.344V218.227C75.7471 218.189 75.7585 218.159 75.7812 218.136C75.8116 218.106 75.8458 218.091 75.8838 218.091H81.6246Z" fill="#132527"/>
<path d="M73.1699 226.064C73.094 226.064 73.0408 226.03 73.0104 225.962L71.5866 222.806C71.5714 222.776 71.5486 222.761 71.5183 222.761H70.4589C70.421 222.761 70.402 222.78 70.402 222.818V225.927C70.402 225.965 70.3868 226 70.3564 226.03C70.3336 226.053 70.3033 226.064 70.2653 226.064H68.9326C68.8946 226.064 68.8604 226.053 68.8301 226.03C68.8073 226 68.7959 225.965 68.7959 225.927V218.227C68.7959 218.189 68.8073 218.159 68.8301 218.136C68.8604 218.106 68.8946 218.091 68.9326 218.091H72.1903C72.6763 218.091 73.1016 218.189 73.4661 218.387C73.8381 218.584 74.1229 218.865 74.3204 219.23C74.5254 219.594 74.6279 220.016 74.6279 220.494C74.6279 221.011 74.4988 221.455 74.2406 221.827C73.9824 222.191 73.6217 222.45 73.1585 222.601C73.1205 222.617 73.1091 222.643 73.1243 222.681L74.6735 225.905C74.6886 225.935 74.6962 225.958 74.6962 225.973C74.6962 226.034 74.6545 226.064 74.5709 226.064H73.1699ZM70.4589 219.469C70.421 219.469 70.402 219.488 70.402 219.526V221.474C70.402 221.512 70.421 221.531 70.4589 221.531H71.9511C72.27 221.531 72.5282 221.436 72.7257 221.246C72.9307 221.056 73.0332 220.809 73.0332 220.506C73.0332 220.202 72.9307 219.955 72.7257 219.765C72.5282 219.568 72.27 219.469 71.9511 219.469H70.4589Z" fill="#132527"/>
<path d="M67.3386 219.332C67.3386 219.37 67.3234 219.404 67.293 219.435C67.2702 219.458 67.2399 219.469 67.2019 219.469H63.4658C63.4278 219.469 63.4088 219.488 63.4088 219.526V221.291C63.4088 221.329 63.4278 221.348 63.4658 221.348H65.9148C65.9527 221.348 65.9831 221.364 66.0059 221.394C66.0363 221.417 66.0514 221.447 66.0514 221.485V222.59C66.0514 222.628 66.0363 222.662 66.0059 222.693C65.9831 222.715 65.9527 222.727 65.9148 222.727H63.4658C63.4278 222.727 63.4088 222.746 63.4088 222.784V224.629C63.4088 224.667 63.4278 224.686 63.4658 224.686H67.2019C67.2399 224.686 67.2702 224.701 67.293 224.731C67.3234 224.754 67.3386 224.785 67.3386 224.823V225.927C67.3386 225.965 67.3234 226 67.293 226.03C67.2702 226.053 67.2399 226.064 67.2019 226.064H61.9394C61.9015 226.064 61.8673 226.053 61.8369 226.03C61.8141 226 61.8027 225.965 61.8027 225.927V218.227C61.8027 218.189 61.8141 218.159 61.8369 218.136C61.8673 218.106 61.9015 218.091 61.9394 218.091H67.2019C67.2399 218.091 67.2702 218.106 67.293 218.136C67.3234 218.159 67.3386 218.189 67.3386 218.227V219.332Z" fill="#132527"/>
<path d="M57.3327 226.156C56.7403 226.156 56.2202 226.042 55.7721 225.814C55.3241 225.578 54.9786 225.252 54.7356 224.834C54.4926 224.417 54.3711 223.934 54.3711 223.388V220.756C54.3711 220.21 54.4926 219.727 54.7356 219.31C54.9786 218.892 55.3241 218.569 55.7721 218.342C56.2202 218.114 56.7403 218 57.3327 218C57.9174 218 58.43 218.11 58.8704 218.33C59.3184 218.543 59.6639 218.85 59.9069 219.253C60.1575 219.648 60.2828 220.107 60.2828 220.631C60.2828 220.699 60.2373 220.741 60.1461 220.756L58.8134 220.836H58.7907C58.7147 220.836 58.6768 220.794 58.6768 220.711C58.6768 220.308 58.5515 219.986 58.3009 219.743C58.0579 219.5 57.7351 219.378 57.3327 219.378C56.9226 219.378 56.5923 219.5 56.3417 219.743C56.0987 219.986 55.9772 220.308 55.9772 220.711V223.456C55.9772 223.851 56.0987 224.17 56.3417 224.413C56.5923 224.656 56.9226 224.777 57.3327 224.777C57.7351 224.777 58.0579 224.656 58.3009 224.413C58.5515 224.17 58.6768 223.851 58.6768 223.456C58.6768 223.372 58.7223 223.331 58.8134 223.331L60.1461 223.388C60.1841 223.388 60.2145 223.399 60.2373 223.422C60.2676 223.445 60.2828 223.471 60.2828 223.502C60.2828 224.026 60.1575 224.489 59.9069 224.891C59.6639 225.294 59.3184 225.605 58.8704 225.825C58.43 226.045 57.9174 226.156 57.3327 226.156Z" fill="#132527"/>
</svg>
