<?xml version="1.0" encoding="UTF-8"?>
<svg id="Layer_1" xmlns="http://www.w3.org/2000/svg" version="1.1" viewBox="0 0 153.95 156.24">
  <!-- Generator: Adobe Illustrator 29.6.1, SVG Export Plug-In . SVG Version: 2.1.1 Build 9)  -->
  <defs>
    <style>
      .st0 {
        fill: #1d355b;
      }

      .st1 {
        fill: #6b7aa3;
      }
    </style>
  </defs>
  <path class="st1" d="M41.63,115.89c-19.47-19.12-20.3-52.06-.71-71.55,21-20.89,52.97-20.17,72.58-.44L41.63,115.89ZM61.53,38.37s-1.5.62-1.5.62l-23.11,23.1s-.62,1.38-.62,1.38c0,.12,0,32.78,0,32.78l.62,1.5,23.1,23.09s1.5.62,1.5.62h32.69s1.5-.63,1.5-.63l23.08-23.07s.62-1.48.62-1.48c0-.02,0-32.58,0-32.58,0-.04,0-.08,0-.11,0-.56-.22-1.1-.62-1.5l-23.1-23.09s-1.55-.63-1.55-.63c.04,0-32.62,0-32.62,0ZM77.79,108.16c4.13,2.58,7.86,5.66,11.28,9.06h-22.64c3.26-3.27,7.6-6.75,11.36-9.06ZM43.38,98.21c4.85,0,9.71.6,14.49,1.7,1.1,4.77,1.7,9.63,1.7,14.48h0c-3.23-3.22-12.96-12.96-16.18-16.18ZM51.91,84.05c1.91,3.61,3.47,7.38,4.67,11.27-4.24-.83-8.52-1.33-12.8-1.36,3-3.04,5.73-6.34,8.13-9.91ZM115.16,68.66c0,4.73,0,17.72,0,22.46-3.4-3.41-6.47-7.13-9.05-11.25,2.57-4.1,5.65-7.81,9.04-11.21ZM112.35,98.21c-3.23,3.22-12.98,12.98-16.21,16.21,0,0,0-.02,0-.02,0-4.87.6-9.72,1.69-14.5,4.78-1.09,9.65-1.69,14.52-1.68ZM93.28,101.17c-.83,4.25-1.33,8.54-1.36,12.86-3.06-3.02-6.37-5.76-9.97-8.17,3.63-1.92,7.41-3.48,11.33-4.68ZM103.79,84.02c2.41,3.58,5.15,6.89,8.16,9.94-4.3.03-8.59.53-12.84,1.36,1.21-3.91,2.77-7.69,4.68-11.3ZM59.58,45.44v.05c0,4.85-.6,9.69-1.69,14.44-4.77,1.1-9.63,1.7-14.5,1.7,3.23-3.23,12.97-12.96,16.19-16.19ZM63.82,45.83c3.04,3.01,6.35,5.74,9.93,8.15-3.61,1.91-7.38,3.47-11.29,4.67.83-4.25,1.34-8.53,1.36-12.82ZM89.2,42.62c-3.87,3.85-8.15,7.08-11.29,9.05-4.11-2.57-7.83-5.66-11.24-9.05h22.53ZM91.9,45.82c.03,4.3.53,8.59,1.36,12.82-3.9-1.2-7.67-2.77-11.27-4.68,3.58-2.41,6.88-5.14,9.92-8.14ZM96.14,45.46h0c3.23,3.21,12.98,12.96,16.2,16.18-4.86,0-9.72-.6-14.5-1.7-1.1-4.78-1.7-9.63-1.7-14.48ZM99.14,64.52c4.24.83,8.51,1.33,12.8,1.36-3,3.03-5.73,6.33-8.13,9.9-1.9-3.6-3.46-7.36-4.67-11.25ZM56.6,64.5c-1.2,3.91-2.77,7.69-4.68,11.31-2.41-3.59-5.15-6.9-8.17-9.94,4.3-.03,8.59-.54,12.85-1.37ZM77.85,56.62c5.18,2.98,10.71,5.28,16.48,6.83,1.56,5.77,3.85,11.29,6.81,16.46-2.96,5.17-5.24,10.7-6.8,16.47-5.77,1.56-11.3,3.85-16.49,6.83-5.18-2.98-10.71-5.26-16.46-6.82-1.56-5.76-3.85-11.29-6.82-16.48,2.98-5.18,5.27-10.71,6.82-16.48,5.76-1.56,11.29-3.85,16.46-6.82ZM62.45,101.21c3.89,1.21,7.66,2.76,11.26,4.67-3.57,2.4-6.87,5.13-9.91,8.14-.02-4.29-.53-8.57-1.35-12.81ZM40.55,68.72c3.4,3.41,6.49,7.14,9.06,11.26-2.2,3.45-5.45,7.73-9.06,11.35v-22.61"/>
  <g>
    <g>
      <path class="st0" d="M17.68,58.85l-8.94-3.98c-.2-.09-.37-.11-.52-.07-.14.05-.3.17-.48.37l-.29-.13,2.86-6.43c.59-1.34,1.23-2.31,1.9-2.94.95-.87,2.07-1.3,3.37-1.3.9,0,1.86.23,2.87.68,1.87.83,3.04,2.02,3.51,3.57.21.69.26,1.42.15,2.19-.11.77-.39,1.66-.84,2.68l-2.86,6.42-.29-.13c.04-.25.03-.45-.04-.6-.07-.14-.2-.26-.4-.35ZM17.88,55.78l1.24-2.8c.57-1.28.69-2.34.37-3.19-.34-.88-1.08-1.57-2.21-2.07-1.13-.5-2.14-.59-3.02-.26-.44.16-.83.44-1.17.82-.34.38-.66.91-.95,1.59l-1.25,2.79,7,3.12"/>
      <path class="st0" d="M25.18,28.73l7.14,6.68c.16.15.32.23.47.23.15,0,.35-.06.58-.19l.23.21-2.91,3.1-.23-.21c.12-.23.18-.42.16-.58-.02-.16-.11-.31-.27-.46l-7.14-6.69c-.16-.15-.32-.23-.47-.24-.15,0-.34.06-.58.19l-.23-.21,2.91-3.11.23.22c-.13.24-.18.43-.16.58.02.15.1.3.26.46"/>
      <path class="st0" d="M48.84,21.3l-4.89,2.58.06,1.44c.01.35.06.6.14.76.16.3.47.39.91.26l.15.28-3.9,2.06-.15-.28c.22-.17.36-.33.42-.5.06-.17.09-.45.08-.85l-.25-9.87c-.01-.37-.07-.67-.19-.89-.13-.26-.42-.37-.85-.32l-.15-.28,4.13-2.17.15.28c-.27.32-.34.63-.18.92.11.21.32.42.64.64l8.02,5.47c.44.3.75.47.95.53.19.06.43.04.71-.05l.15.28-4.32,2.28-.15-.28c.38-.29.49-.59.32-.9-.1-.19-.31-.39-.62-.6l-1.15-.77ZM47.28,20.22l-3.54-2.49.14,4.28,3.39-1.79"/>
      <path class="st0" d="M71.8,18.4l-4.84-7.57.42,6.73c.02.22.08.38.19.49.1.11.29.2.55.26l.02.31-3.99.25-.02-.31c.24-.08.41-.18.51-.31.09-.13.14-.3.12-.52l-.62-9.77c-.02-.22-.07-.38-.18-.5-.11-.11-.29-.19-.55-.25l-.02-.31,5.06-.32.02.31c-.33.13-.48.34-.46.64.02.29.16.64.43,1.05l3.32,5.23,2.65-5.54c.31-.58.45-.99.44-1.23-.02-.29-.21-.46-.56-.52l-.02-.31,4.93-.31.02.31c-.25.09-.43.19-.52.32-.09.12-.13.3-.12.51l.62,9.76c.02.22.07.39.18.51.11.11.29.2.55.25l.02.31-4.25.27-.02-.31c.25-.08.42-.18.51-.31.09-.12.13-.3.13-.52l-.43-6.74-4.11,8.13"/>
      <path class="st0" d="M100.99,10.51c1.79.66,3.12,1.68,3.98,3.03,1.02,1.63,1.17,3.42.44,5.38-.68,1.84-1.94,3.04-3.78,3.61-1.52.47-3.18.37-4.97-.29-1.79-.67-3.11-1.67-3.96-3.02-1.03-1.63-1.19-3.4-.49-5.3.72-1.92,1.99-3.16,3.83-3.7,1.52-.45,3.17-.35,4.95.29ZM100.2,12.65c-1.17-.43-2.26-.42-3.27.05-.94.44-1.6,1.19-1.99,2.23-.38,1.04-.37,2.04.06,2.98.46,1.02,1.28,1.75,2.45,2.19,1.17.43,2.26.41,3.27-.06.93-.43,1.59-1.16,1.97-2.17.41-1.1.39-2.12-.04-3.04-.47-1-1.29-1.73-2.45-2.17"/>
      <path class="st0" d="M120.18,26.7l-4.7,4.89c-.15.16-.23.32-.25.48,0,.16.05.35.18.58l-.22.22-2.88-2.77.22-.23c.22.13.41.18.58.17.16-.02.31-.1.47-.26l6.78-7.05c.15-.16.23-.31.24-.47,0-.15-.06-.34-.19-.58l.22-.22,3.32,3.2-.22.23c-.28-.16-.49-.17-.63-.03-.12.13-.17.35-.17.67l.19,9.02,4.57-4.75c.15-.16.23-.31.24-.47.01-.15-.05-.35-.19-.58l.22-.23,2.88,2.78-.22.22c-.23-.13-.43-.18-.58-.17-.15.01-.31.1-.46.26l-6.78,7.04c-.15.16-.23.31-.24.47,0,.15.05.35.18.58l-.22.23-3.1-2.99.22-.23c.26.17.47.19.61.05.07-.07.11-.18.12-.31,0-.13.01-.42,0-.86l-.22-8.9"/>
      <path class="st0" d="M129.91,49.16l9.03-3.77c.2-.08.34-.19.41-.33.06-.14.08-.34.06-.6l.3-.12,2.7,6.49c.57,1.35.84,2.48.83,3.4-.02,1.29-.48,2.4-1.37,3.34-.62.66-1.44,1.2-2.47,1.62-1.89.79-3.56.83-5.01.11-.64-.33-1.21-.79-1.69-1.4-.48-.61-.94-1.43-1.37-2.45l-2.71-6.49.29-.12c.15.21.31.33.46.38.15.05.33.03.53-.05ZM132,51.42l1.18,2.82c.54,1.29,1.23,2.11,2.07,2.45.87.36,1.89.29,3.02-.18,1.14-.48,1.89-1.15,2.26-2.02.18-.43.25-.9.2-1.41-.05-.51-.21-1.1-.5-1.79l-1.18-2.82-7.06,2.95"/>
      <path class="st0" d="M12.79,103.68l-1.99,2.53-.25-.18c.06-.2.08-.35.05-.44-.04-.12-.25-.35-.64-.69-.84-.76-1.48-1.46-1.92-2.11-.44-.65-.8-1.44-1.1-2.37-.59-1.87-.63-3.53-.12-5,.3-.83.77-1.56,1.42-2.21.69-.69,1.53-1.18,2.5-1.49,1.34-.43,2.65-.42,3.92.04,2,.71,3.39,2.32,4.19,4.85.3.93.46,1.8.48,2.59.02.79-.1,1.74-.35,2.84-.12.51-.16.81-.13.93.03.1.14.21.3.33l-.11.29-3.05-.93.09-.28c.08-.02.13-.03.16-.03.07-.01.11-.02.13-.03.33-.11.56-.69.69-1.74.12-1,.04-1.94-.24-2.83-.4-1.24-1.04-2.16-1.95-2.76-1.02-.69-2.11-.85-3.25-.49-1.15.36-1.94,1.12-2.38,2.28-.39,1.01-.38,2.14.01,3.37.31.97.86,1.86,1.65,2.67.62.63,1.08.9,1.36.8.02,0,.1-.04.27-.12l.24.17"/>
      <path class="st0" d="M21.62,117.64l-2.31,1.82,4.68,5.96c.14.17.28.28.43.31.15.03.35,0,.6-.11l.19.24-2.78,2.19-.2-.25c.16-.2.24-.39.25-.55,0-.16-.06-.32-.19-.49l-6.88-8.77.25-.19c.21.16.39.24.54.24.16,0,.32-.06.5-.19l7.7-6.04c.17-.13.27-.28.3-.43.02-.15,0-.35-.11-.6l.25-.19,6.68,8.51c.14.18.29.29.44.31.15.03.35,0,.6-.11l.17.22-2.79,2.18-.17-.23c.16-.21.24-.4.25-.55,0-.15-.06-.32-.2-.5l-4.48-5.71-2.06,1.62,2.78,3.55c.14.17.28.28.43.31.15.03.36,0,.6-.1l.18.22-2.72,2.14-.18-.23c.15-.21.23-.4.24-.55,0-.15-.06-.32-.2-.5l-2.78-3.55"/>
      <path class="st0" d="M38.2,133.93l-2.01,3.26c-.12.19-.16.36-.14.51.02.15.12.33.3.53l-.16.27-3.62-2.23.17-.27c.24.07.44.09.59.04.15-.05.29-.16.4-.35l5.14-8.33c.11-.19.16-.36.13-.51-.03-.15-.13-.32-.3-.53l.16-.26,6.68,4.12c.87.53,1.5.99,1.9,1.35.4.37.71.78.93,1.23.44.93.32,1.94-.35,3.02-.51.82-1.13,1.32-1.87,1.51-.74.19-1.67.07-2.81-.35l.27,3.9c.05.72.12,1.23.22,1.54.1.31.27.57.51.78l-.16.27-4.28-2.64.17-.27c.37.11.61.07.72-.12.08-.14.11-.39.08-.79l-.24-4.17-2.45-1.51ZM39.34,132.08l3.67,2.26c.56.35,1.01.54,1.35.58.47.07.86-.14,1.16-.62.26-.43.32-.81.16-1.14-.16-.33-.57-.71-1.25-1.12l-3.67-2.26-1.43,2.31"/>
      <path class="st0" d="M64.45,139.49l-1.79,8.52c-.04.21-.03.39.04.53.08.14.23.27.47.4l-.07.31-4.16-.87.06-.31c.26-.01.45-.07.58-.16.13-.1.22-.25.26-.47l1.79-8.53-3.47-.72c-.22-.05-.4-.03-.54.05-.14.07-.27.23-.39.46l-.28-.06.72-3.47.28.06c.02.26.07.45.16.57.09.13.25.21.48.26l9.76,2.04c.22.04.4.03.54-.04.13-.08.26-.23.39-.47l.28.06-.72,3.46-.28-.06c-.02-.26-.07-.46-.17-.58-.09-.13-.25-.21-.48-.26l-3.46-.72"/>
      <path class="st0" d="M81.34,139.23l.63,9.75c.01.22.07.39.18.5.11.11.29.2.55.26l.02.31-4.25.27-.02-.31c.24-.08.41-.18.51-.31.1-.12.13-.3.12-.52l-.63-9.76c-.02-.22-.07-.38-.18-.49-.11-.11-.29-.19-.55-.25l-.02-.31,4.25-.27.02.31c-.25.09-.42.19-.51.32s-.13.3-.12.51"/>
      <path class="st0" d="M96.81,141.93l1.36,3.76c.07.21.18.35.32.43.13.08.34.11.6.09l.11.29-4,1.45-.1-.3c.21-.15.35-.29.4-.44.06-.15.05-.33-.03-.54l-3.34-9.2c-.07-.21-.18-.35-.31-.42-.13-.07-.33-.1-.61-.09l-.1-.3,10.09-3.66c.21-.08.36-.19.43-.32.07-.14.1-.34.08-.6l.27-.1,1.2,3.33-.27.09c-.15-.21-.3-.35-.45-.4-.14-.06-.32-.05-.54.03l-6.74,2.44.9,2.47,4.24-1.53c.22-.08.36-.18.43-.32.07-.13.1-.33.09-.6l.27-.1,1.18,3.25-.27.1c-.15-.21-.3-.35-.45-.41-.15-.05-.33-.04-.54.04l-4.24,1.53"/>
      <path class="st0" d="M113.06,126.91l5.75,7.91c.13.18.27.28.42.32.15.03.35.01.6-.08l.19.25-3.44,2.5-.19-.25c.17-.2.25-.38.27-.53,0-.16-.05-.33-.18-.51l-5.76-7.91c-.13-.18-.27-.29-.41-.32-.15-.03-.35,0-.6.08l-.19-.25,3.44-2.51.18.26c-.17.21-.25.39-.26.54-.01.15.04.32.18.5"/>
      <path class="st0" d="M127.61,120.91l2.33,1.79,4.62-6.01c.14-.18.2-.34.19-.49,0-.15-.09-.33-.26-.55l.19-.25,2.81,2.16-.19.25c-.24-.1-.43-.13-.59-.1-.16.03-.3.14-.43.31l-6.79,8.84-.25-.19c.11-.24.14-.43.11-.59-.03-.16-.13-.3-.31-.44l-7.76-5.96c-.18-.14-.34-.2-.49-.19-.15.01-.34.09-.55.25l-.25-.19,6.59-8.58c.14-.18.2-.35.2-.5,0-.15-.09-.34-.25-.55l.17-.23,2.81,2.16-.18.22c-.25-.1-.45-.14-.6-.1-.14.04-.29.14-.43.32l-4.42,5.75,2.09,1.6,2.75-3.58c.13-.18.2-.34.19-.5,0-.15-.09-.34-.24-.56l.17-.23,2.74,2.11-.17.23c-.24-.1-.44-.13-.59-.1-.15.03-.3.14-.44.32l-2.75,3.58"/>
      <path class="st0" d="M142.11,104.66l-9.36-2.86c-.21-.07-.39-.07-.53,0-.14.06-.28.21-.43.42l-.3-.09,2.05-6.73c.43-1.39.94-2.45,1.53-3.14.84-.98,1.9-1.55,3.19-1.71.9-.11,1.88,0,2.93.32,1.96.6,3.26,1.64,3.92,3.11.29.66.43,1.38.41,2.16-.02.77-.19,1.69-.51,2.76l-2.05,6.73-.3-.09c.01-.26-.03-.45-.11-.59-.08-.13-.23-.23-.44-.3ZM141.93,101.59l.89-2.93c.41-1.34.4-2.41-.03-3.21-.45-.83-1.27-1.43-2.45-1.79-1.18-.36-2.19-.32-3.03.12-.42.21-.77.53-1.05.95-.29.42-.54.98-.76,1.69l-.89,2.93,7.32,2.23"/>
    </g>
    <g>
      <path class="st0" d="M59.58,45.49v-.05c-3.23,3.22-12.97,12.96-16.19,16.19,4.88,0,9.73-.6,14.5-1.7,1.09-4.75,1.69-9.59,1.69-14.44"/>
      <path class="st0" d="M40.55,91.33c3.61-3.62,6.86-7.9,9.06-11.35-2.58-4.12-5.66-7.84-9.06-11.26v22.61"/>
      <path class="st0" d="M56.58,95.33c-1.2-3.89-2.76-7.66-4.67-11.27-2.4,3.57-5.13,6.87-8.13,9.91,4.28.03,8.56.53,12.8,1.36"/>
      <path class="st0" d="M51.44,106.27l6.36-6.37c-4.76-1.09-9.59-1.69-14.42-1.69,1.6,1.61,4.83,4.83,8.06,8.06"/>
      <path class="st0" d="M43.76,65.87c3.02,3.05,5.76,6.35,8.17,9.94,1.91-3.62,3.48-7.4,4.68-11.31-4.25.83-8.54,1.34-12.85,1.37"/>
      <path class="st0" d="M36.93,97.75l-.62-1.5s0-32.66,0-32.78c0,0,.62-1.37.62-1.38l23.11-23.1s1.51-.62,1.5-.62c0,0,32.66,0,32.62,0,0,0,1.58.66,1.55.63l11.46,11.46,6.52-6.53c-19.71-19.83-51.75-20.48-72.76.41-19.59,19.49-18.83,52.5.74,71.72l6.79-6.8-11.52-11.52"/>
      <path class="st0" d="M96.14,45.44h0c0,4.83.6,9.64,1.68,14.38l6.34-6.36c-3.22-3.22-6.42-6.42-8.02-8.02"/>
      <path class="st0" d="M62.46,58.65c3.9-1.2,7.67-2.76,11.29-4.67-3.58-2.41-6.88-5.14-9.93-8.15-.02,4.29-.53,8.57-1.36,12.82"/>
      <path class="st0" d="M77.91,51.67c3.14-1.97,7.42-5.2,11.29-9.05h-22.53c3.41,3.39,7.13,6.48,11.24,9.05"/>
      <path class="st0" d="M91.9,45.82c-3.04,3.01-6.34,5.74-9.92,8.14,3.6,1.91,7.38,3.48,11.27,4.68-.83-4.24-1.33-8.52-1.36-12.82"/>
      <path class="st0" d="M77.85,56.62c-5.17,2.97-10.69,5.26-16.46,6.82-1.56,5.77-3.85,11.3-6.82,16.48,2.96,5.16,5.24,10.68,6.8,16.41l32.86-32.91c-5.74-1.56-11.23-3.83-16.38-6.8"/>
    </g>
  </g>
  <g>
    <path class="st1" d="M142.84,75.4c-2.54,0-4.66,1.99-4.66,4.6s2.13,4.65,4.66,4.65,4.64-1.99,4.64-4.65-2.11-4.6-4.64-4.6ZM142.84,83.97c-2.17,0-3.82-1.71-3.82-3.97s1.66-3.92,3.82-3.92,3.8,1.71,3.8,3.92-1.66,3.97-3.8,3.97"/>
    <path class="st1" d="M143.73,80.37c.72-.15,1.13-.6,1.13-1.33,0-.96-.58-1.44-1.74-1.44h-1.91v4.85h.98v-1.98h.56c.07.11,1.25,1.98,1.25,1.98h1.07s-1.18-1.82-1.35-2.08ZM142.19,79.63v-1.2h.82c.61,0,.88.17.88.57,0,.54-.33.63-1.08.63h-.62"/>
  </g>
</svg>